<?xml version="1.0" encoding="UTF-8" standalone="no"?>
<svg width="28px" height="30px" viewBox="0 0 28 30" version="1.1" xmlns="http://www.w3.org/2000/svg" xmlns:xlink="http://www.w3.org/1999/xlink">
    <!-- Generator: Sketch 41.2 (35397) - http://www.bohemiancoding.com/sketch -->
    <title>calculator</title>
    <desc>Created with Sketch.</desc>
    <defs>
        <linearGradient x1="100%" y1="0%" x2="1.11022302e-14%" y2="100%" id="linearGradient-1">
            <stop stop-color="#FF4881" offset="0%"></stop>
            <stop stop-color="#FF9B63" offset="100%"></stop>
        </linearGradient>
    </defs>
    <g id="Pre-Launch-Landing-Page" stroke="none" stroke-width="1" fill="none" fill-rule="evenodd">
        <g id="Desktop-HD" transform="translate(-180.000000, -351.000000)">
            <g id="school-1a-125-1455-+-Rectangle-Mask" transform="translate(-44.000000, 139.000000)">
                <g id="calculator" transform="translate(224.000000, 212.000000)">
                    <rect id="Rectangle-path" fill="#E6E6E6" x="0.608730469" y="0.597597656" width="26.7902344" height="28.8048047"></rect>
                    <rect id="Rectangle-path" fill="#BAE1F2" x="3.65982422" y="4.00183594" width="20.5966406" height="5.43345703"></rect>
                    <rect id="Rectangle-path" fill="#ADB1B9" x="3.63539063" y="12.3812695" width="5.43345703" height="5.43345703"></rect>
                    <rect id="Rectangle-path" fill="#ADB1B9" x="11.9164453" y="12.3812695" width="5.43345703" height="5.43345703"></rect>
                    <rect id="Rectangle-path" fill="#ADB1B9" x="3.63539063" y="20.6300977" width="5.43345703" height="5.43345703"></rect>
                    <rect id="Rectangle-path" fill="#ADB1B9" x="11.9164453" y="20.6300977" width="5.43345703" height="5.43345703"></rect>
                    <rect id="Rectangle-path" fill="#F95265" x="20.2304297" y="17.6187305" width="4.18986328" height="8.44482422"></rect>
                    <rect id="Rectangle-path" fill="#ADB1B9" x="20.2304297" y="12.3161133" width="4.18986328" height="2.42220703"></rect>
                    <path d="M27.399082,30 L0.608730469,30 C0.278671875,30 0.0111328125,29.7324609 0.0111328125,29.4024023 L0.0111328125,0.597597656 C0.0111328125,0.267539062 0.278671875,0 0.608730469,0 L27.399082,0 C27.729082,0 27.9966797,0.267539062 27.9966797,0.597597656 L27.9966797,29.4024023 C27.9966797,29.7324609 27.7291406,30 27.399082,30 L27.399082,30 Z M1.20632812,28.8048047 L26.8014844,28.8048047 L26.8014844,1.19519531 L1.20632812,1.19519531 L1.20632812,28.8048047 L1.20632812,28.8048047 Z" id="Shape" fill="#202B39"></path>
                    <path d="M24.2567578,10.0330078 L3.65982422,10.0330078 C3.32976562,10.0330078 3.06222656,9.76546875 3.06222656,9.43541016 L3.06222656,4.00183594 C3.06222656,3.67177734 3.32976562,3.40423828 3.65982422,3.40423828 L24.2567578,3.40423828 C24.5867578,3.40423828 24.8543555,3.67177734 24.8543555,4.00183594 L24.8543555,9.43541016 C24.8543555,9.76546875 24.5868164,10.0330078 24.2567578,10.0330078 L24.2567578,10.0330078 Z M4.25742187,8.8378125 L23.6591016,8.8378125 L23.6591016,4.59943359 L4.25742187,4.59943359 L4.25742187,8.8378125 L4.25742187,8.8378125 Z" id="Shape" fill="#202B39"></path>
                    <path d="M9.06878906,18.4126172 L3.63515625,18.4126172 C3.30509766,18.4126172 3.03755859,18.1450781 3.03755859,17.8150195 L3.03755859,12.3813867 C3.03755859,12.0513281 3.30509766,11.7837891 3.63515625,11.7837891 L9.06878906,11.7837891 C9.39884766,11.7837891 9.66638672,12.0513281 9.66638672,12.3813867 L9.66638672,17.8150195 C9.66638672,18.1450195 9.39884766,18.4126172 9.06878906,18.4126172 L9.06878906,18.4126172 Z M4.23275391,17.2173633 L8.47119141,17.2173633 L8.47119141,12.9789258 L4.23275391,12.9789258 L4.23275391,17.2173633 L4.23275391,17.2173633 Z" id="Shape" fill="#202B39"></path>
                    <path d="M17.3501367,18.4126172 L11.9165039,18.4126172 C11.5864453,18.4126172 11.3189062,18.1450781 11.3189062,17.8150195 L11.3189062,12.3813867 C11.3189062,12.0513281 11.5864453,11.7837891 11.9165039,11.7837891 L17.3501367,11.7837891 C17.6801367,11.7837891 17.9477344,12.0513281 17.9477344,12.3813867 L17.9477344,17.8150195 C17.947793,18.1450195 17.6801367,18.4126172 17.3501367,18.4126172 L17.3501367,18.4126172 Z M12.5141016,17.2173633 L16.7525391,17.2173633 L16.7525391,12.9789258 L12.5141016,12.9789258 L12.5141016,17.2173633 L12.5141016,17.2173633 L12.5141016,17.2173633 Z" id="Shape" fill="#202B39"></path>
                    <path d="M9.06878906,26.6612695 L3.63515625,26.6612695 C3.30509766,26.6612695 3.03755859,26.3937305 3.03755859,26.0636719 L3.03755859,20.6300391 C3.03755859,20.2999805 3.30509766,20.0324414 3.63515625,20.0324414 L9.06878906,20.0324414 C9.39884766,20.0324414 9.66638672,20.2999805 9.66638672,20.6300391 L9.66638672,26.0636719 C9.66638672,26.3937305 9.39884766,26.6612695 9.06878906,26.6612695 L9.06878906,26.6612695 Z M4.23275391,25.4660742 L8.47119141,25.4660742 L8.47119141,21.2276367 L4.23275391,21.2276367 L4.23275391,25.4660742 L4.23275391,25.4660742 Z" id="Shape" fill="#202B39"></path>
                    <path d="M17.3501367,26.6612695 L11.9165039,26.6612695 C11.5864453,26.6612695 11.3189062,26.3937305 11.3189062,26.0636719 L11.3189062,20.6300391 C11.3189062,20.2999805 11.5864453,20.0324414 11.9165039,20.0324414 L17.3501367,20.0324414 C17.6801367,20.0324414 17.9477344,20.2999805 17.9477344,20.6300391 L17.9477344,26.0636719 C17.947793,26.3937305 17.6801367,26.6612695 17.3501367,26.6612695 L17.3501367,26.6612695 Z M12.5141016,25.4660742 L16.7525391,25.4660742 L16.7525391,21.2276367 L12.5141016,21.2276367 L12.5141016,25.4660742 L12.5141016,25.4660742 L12.5141016,25.4660742 Z" id="Shape" fill="#202B39"></path>
                    <path d="M24.4203516,26.6612695 L20.2305469,26.6612695 C19.9005469,26.6612695 19.6329492,26.3937305 19.6329492,26.0636719 L19.6329492,17.6186133 C19.6329492,17.2885547 19.9005469,17.0210156 20.2305469,17.0210156 L24.4203516,17.0210156 C24.7503516,17.0210156 25.0179492,17.2885547 25.0179492,17.6186133 L25.0179492,26.0636133 C25.0179492,26.3937305 24.7504102,26.6612695 24.4203516,26.6612695 L24.4203516,26.6612695 Z M20.8282031,25.4660742 L23.8227539,25.4660742 L23.8227539,18.2162109 L20.8282031,18.2162109 L20.8282031,25.4660742 L20.8282031,25.4660742 Z" id="Shape" fill="#202B39"></path>
                    <path d="M24.4203516,15.3357422 L20.2305469,15.3357422 C19.9005469,15.3357422 19.6329492,15.0682031 19.6329492,14.7381445 L19.6329492,12.3159375 C19.6329492,11.9858789 19.9005469,11.7183398 20.2305469,11.7183398 L24.4203516,11.7183398 C24.7503516,11.7183398 25.0179492,11.9858789 25.0179492,12.3159375 L25.0179492,14.7381445 C25.0179492,15.0682031 24.7504102,15.3357422 24.4203516,15.3357422 L24.4203516,15.3357422 Z M20.8282031,14.1405469 L23.8227539,14.1405469 L23.8227539,12.9135352 L20.8282031,12.9135352 L20.8282031,14.1405469 L20.8282031,14.1405469 Z" id="Shape" fill="#202B39"></path>
                    <path d="M17.9066016,7.41439453 L6.64658203,7.41439453 C6.31652344,7.41439453 6.04898438,7.14685547 6.04898438,6.81679687 C6.04898438,6.48673828 6.31652344,6.21919922 6.64658203,6.21919922 L17.9066016,6.21919922 C18.2366016,6.21919922 18.5041992,6.48673828 18.5041992,6.81679687 C18.5041992,7.14685547 18.2366602,7.41439453 17.9066016,7.41439453 L17.9066016,7.41439453 Z" id="Shape" fill="#202B39"></path>
                    <path d="M20.8525195,7.41439453 L20.1324023,7.41439453 C19.8024023,7.41439453 19.5348047,7.14685547 19.5348047,6.81679687 C19.5348047,6.48673828 19.8024023,6.21919922 20.1324023,6.21919922 L20.8525195,6.21919922 C21.1825195,6.21919922 21.4501172,6.48673828 21.4501172,6.81679687 C21.4501172,7.14685547 21.1825781,7.41439453 20.8525195,7.41439453 L20.8525195,7.41439453 Z" id="Shape" fill="#202B39"></path>
                </g>
            </g>
        </g>
    </g>
</svg>