<?xml version="1.0" encoding="UTF-8" standalone="no"?>
<svg width="32px" height="30px" viewBox="0 0 32 30" version="1.1" xmlns="http://www.w3.org/2000/svg" xmlns:xlink="http://www.w3.org/1999/xlink">
    <!-- Generator: Sketch 41.2 (35397) - http://www.bohemiancoding.com/sketch -->
    <title>clip-1</title>
    <desc>Created with Sketch.</desc>
    <defs>
        <linearGradient x1="100%" y1="0%" x2="1.11022302e-14%" y2="100%" id="linearGradient-1">
            <stop stop-color="#FF4881" offset="0%"></stop>
            <stop stop-color="#FF9B63" offset="100%"></stop>
        </linearGradient>
    </defs>
    <g id="Pre-Launch-Landing-Page" stroke="none" stroke-width="1" fill="none" fill-rule="evenodd">
        <g id="Desktop-HD" transform="translate(-584.000000, -950.000000)">
            <g id="school-1a-125-1455-+-Rectangle-Mask" transform="translate(-44.000000, 139.000000)">
                <g id="clip-1" transform="translate(628.000000, 811.000000)">
                    <path d="M23.4347727,13.8120248 L11.6864256,25.5603719 C9.17051653,28.076281 5.07471074,28.1384504 2.54442149,25.6371074 C0.00378099174,23.1254132 -0.0051446281,19.0147934 2.51770661,16.4919421 L15.6744421,3.33514463 C19.1939256,-0.184338843 24.9228719,-0.254194215 28.4521488,3.25549587 C31.9810537,6.76475207 31.9871281,12.4908471 28.4702479,16.0077273 L15.6248554,28.8531198 C14.985124,29.4928512 13.9226653,29.5082231 13.2952066,28.8565289 C12.6869628,28.2247934 12.6942769,27.2194835 13.3170868,26.5966736 L26.1360744,13.777686 C28.3850826,11.5286777 28.4553719,7.8667562 26.2282438,5.5961157 C23.9793595,3.30328512 20.2840909,3.28971074 18.0181612,5.5556405 L4.83805785,18.7358058 C3.59113636,19.9827273 3.5332438,22.0136157 4.75623967,23.283905 C6.00768595,24.5838223 8.08394628,24.5986364 9.35423554,23.3283471 L21.1527273,11.5298554 C21.7829132,10.8996694 22.8046488,10.8996694 23.4348347,11.5298554 L23.4348347,11.5298554 C24.0649587,12.1600413 24.0649587,13.1817769 23.4347727,13.8120248 L23.4347727,13.8120248 Z" id="Shape" fill="#BAE1F2"></path>
                    <path d="M14.4458058,29.9714256 C14.4386157,29.9714256 14.4314256,29.9714256 14.4242355,29.9713636 C13.8167355,29.9655992 13.2539876,29.7254752 12.8397521,29.295124 C11.9972107,28.4200413 12.0107851,27.0090496 12.870062,26.1498347 L25.6890496,13.3307851 C27.7044421,11.3154545 27.7438017,8.04433884 25.7769421,6.03892562 C24.8093182,5.05233471 23.5136157,4.50533058 22.1283471,4.49863636 C22.1197934,4.49863636 22.1111777,4.49857438 22.102624,4.49857438 C20.7265909,4.49857438 19.4359091,5.0321281 18.4653099,6.00272727 L5.28508264,19.1828306 C4.27376033,20.1940909 4.24084711,21.8371488 5.21163223,22.8454959 C5.69708678,23.3497934 6.35076446,23.6311983 7.05210744,23.6378306 C7.75487603,23.6452686 8.41270661,23.3758264 8.90721074,22.8813843 L20.7057025,11.0828926 C21.581343,10.207314 23.006157,10.2071901 23.8818595,11.0828926 C24.3060744,11.5071074 24.5396281,12.0710331 24.5396281,12.6709711 C24.5396281,13.2709091 24.3060124,13.8348967 23.8818595,14.2590496 L12.1335124,26.0073967 C9.36123967,28.7797314 4.86024793,28.8153099 2.10006198,26.0866736 C0.751301653,24.7533471 0.00551652893,22.972376 -1.02083381e-13,21.0717149 C-0.00545454545,19.1708678 0.729855372,17.3856198 2.07055785,16.0448554 L15.2274174,2.88818182 C19.0081612,-0.89268595 25.1407438,-0.928946281 28.8979339,2.8072314 C30.7241529,4.62334711 31.7319421,7.04528926 31.7355372,9.62708678 C31.7391322,12.2090083 30.7382851,14.6338017 28.9172727,16.4547521 L16.0718182,29.3002066 C15.6445661,29.7274587 15.0529959,29.9713636 14.4458058,29.9714256 L14.4458058,29.9714256 Z M22.102314,3.23417355 C22.1130372,3.23417355 22.1236983,3.23417355 22.1344215,3.23423554 C23.8597314,3.24260331 25.473781,3.92417355 26.6795455,5.15349174 C29.129938,7.6518595 29.0866116,11.7211983 26.5830992,14.2247107 L13.7640496,27.0437603 C13.3886157,27.4192562 13.3825413,28.0358058 13.7505992,28.4181198 C13.927562,28.6019008 14.1710331,28.7044835 14.4363223,28.7070248 C14.7152479,28.7091322 14.9840702,28.5999793 15.1778306,28.406157 L28.0232851,15.5607025 C29.6050413,13.9789463 30.4743595,11.872314 30.4712603,9.62876033 C30.4680992,7.38539256 29.5927686,5.28117769 28.0064256,3.70369835 C24.742376,0.457747934 19.4106818,0.492892562 16.1215289,3.78210744 L2.9647314,16.9389669 C1.86378099,18.0399174 1.25993802,19.5063223 1.26440083,21.0681198 C1.26886364,22.6296694 1.88126033,24.0926033 2.98884298,25.1874793 C4.1088843,26.2947521 5.5792562,26.8469008 7.0552686,26.8469628 C8.56698347,26.8470248 10.0846488,26.2680992 11.2393388,25.1134091 L22.987686,13.365062 C23.1730785,13.1796694 23.2752273,12.9331612 23.2752273,12.6709711 C23.2752273,12.408781 23.1731405,12.1623347 22.987686,11.9769421 C22.605124,11.5942562 21.982438,11.5941942 21.5996901,11.9769421 L9.80126033,23.7753719 C9.07369835,24.5028719 8.10774793,24.9022314 7.07801653,24.9022314 C7.0653719,24.9022314 7.05285124,24.9021694 7.04014463,24.9021074 C5.99652893,24.8921901 5.02369835,24.4732438 4.30078512,23.722376 C2.8556405,22.2211983 2.89605372,19.7836983 4.39103306,18.288781 L17.5711364,5.1086157 C18.7806818,3.89913223 20.388843,3.23417355 22.102314,3.23417355 L22.102314,3.23417355 Z" id="Shape" fill="#212B39"></path>
                    <path d="M22.758595,20.0533884 C22.5967562,20.0533884 22.4350413,19.9917149 22.3116322,19.8682438 C22.0646901,19.6213636 22.0646901,19.2211364 22.3115702,18.9741942 L22.5644628,18.7213017 C22.811281,18.4744215 23.2116322,18.4743595 23.4585124,18.7213017 C23.7054545,18.9681818 23.7054545,19.3684091 23.4585744,19.6153512 L23.2056818,19.8682438 C23.0822107,19.9917149 22.9204339,20.0533884 22.758595,20.0533884 L22.758595,20.0533884 Z" id="Shape" fill="#212B39"></path>
                    <path d="M14.6034298,28.2085537 C14.4416529,28.2085537 14.279814,28.1468802 14.156405,28.0234091 C13.9095248,27.7765289 13.9095248,27.3762397 14.156405,27.1292975 L21.0471694,20.2385331 C21.2941116,19.9916529 21.6942769,19.9916529 21.941281,20.2385331 C22.1881612,20.4854132 22.1881612,20.8857025 21.941281,21.1326446 L15.0505165,28.0234091 C14.9270455,28.1468802 14.7652066,28.2085537 14.6034298,28.2085537 L14.6034298,28.2085537 Z" id="Shape" fill="#212B39"></path>
                </g>
            </g>
        </g>
    </g>
</svg>