<?xml version="1.0" encoding="UTF-8" standalone="no"?>
<svg width="30px" height="40px" viewBox="0 0 30 40" version="1.1" xmlns="http://www.w3.org/2000/svg" xmlns:xlink="http://www.w3.org/1999/xlink">
    <!-- Generator: Sketch 41.2 (35397) - http://www.bohemiancoding.com/sketch -->
    <title>compass</title>
    <desc>Created with Sketch.</desc>
    <defs>
        <linearGradient x1="100%" y1="0%" x2="1.11022302e-14%" y2="100%" id="linearGradient-1">
            <stop stop-color="#FF4881" offset="0%"></stop>
            <stop stop-color="#FF9B63" offset="100%"></stop>
        </linearGradient>
    </defs>
    <g id="Pre-Launch-Landing-Page" stroke="none" stroke-width="1" fill="none" fill-rule="evenodd">
        <g id="Desktop-HD" transform="translate(-548.000000, -545.000000)">
            <g id="school-1a-125-1455-+-Rectangle-Mask" transform="translate(-44.000000, 139.000000)">
                <g id="compass" transform="translate(592.000000, 406.000000)">
                    <path d="M6.41359375,31.8958594 L6.41359375,31.8958594 L14.5971875,14.3588281 L10.3667969,12.3847656 L4.15726562,25.6914063 C3.06695312,28.0278125 4.0771875,30.805625 6.41359375,31.8958594 L6.41359375,31.8958594 Z" id="Shape" fill="#BAE1F2"></path>
                    <path d="M22.8050781,31.8958594 L22.8050781,31.8958594 L14.6214844,14.3588281 L18.851875,12.3847656 L25.0614062,25.6914063 C26.1516406,28.0278125 25.1414844,30.805625 22.8050781,31.8958594 L22.8050781,31.8958594 Z" id="Shape" fill="#BAE1F2"></path>
                    <ellipse id="Oval" fill="#EF5263" cx="14.6092188" cy="11.7465625" rx="4.41351562" ry="4.41351563"></ellipse>
                    <rect id="Rectangle-path" fill="#EF5263" x="13.5057031" y="0.796796875" width="2.206875" height="6.45085938"></rect>
                    <ellipse id="Oval" fill="#E6E6E6" cx="14.6092188" cy="11.7465625" rx="1.27320312" ry="1.27320312"></ellipse>
                    <path d="M28.3597656,22.4082812 L24.4085937,22.4082812 L19.7689844,12.4658594 C19.8016406,12.2304687 19.8198437,11.9905469 19.8198437,11.7463281 C19.8198437,9.54367187 18.4453125,7.65726562 16.5096094,6.89617187 L16.5096094,0.796796875 C16.5095312,0.356796875 16.1527344,0 15.7127344,0 L13.5057812,0 C13.0657812,0 12.7089844,0.356796875 12.7089844,0.796796875 L12.7089844,6.89601562 C10.7732031,7.65710937 9.39875,9.54359375 9.39875,11.7461719 C9.39875,11.9903906 9.41695312,12.2303906 9.44960937,12.4657812 L4.81007812,22.4082031 L0.85890625,22.4082031 C0.41890625,22.4082031 0.062109375,22.765 0.062109375,23.205 C0.062109375,23.645 0.41890625,24.0017969 0.85890625,24.0017969 L4.06648437,24.0017969 L3.4353125,25.354375 C2.81796875,26.6772656 2.75273437,28.1614062 3.2515625,29.533125 C3.65851562,30.6521875 4.40117187,31.5869531 5.37898437,32.2286719 L2.28171875,38.8659375 C2.09554687,39.2647656 2.26804687,39.7388281 2.66679687,39.9249219 C2.77570312,39.9758594 2.89039062,39.9998437 3.00320312,39.9998437 C3.30328125,39.9998437 3.590625,39.8295312 3.72578125,39.5398438 L10.9765625,24.0017188 L13.334375,24.0017188 C13.774375,24.0017188 14.1311719,23.6449219 14.1311719,23.2049219 C14.1311719,22.7649219 13.774375,22.408125 13.334375,22.408125 L11.7202344,22.408125 L14.2698437,16.9444531 C14.3821875,16.9517188 14.4951562,16.9567188 14.609375,16.9567188 C14.7235937,16.9567188 14.8365625,16.9517188 14.9489062,16.9444531 L25.4929687,39.5399219 C25.6282031,39.8297656 25.9155469,39.9999219 26.2155469,39.9999219 C26.3282812,39.9999219 26.4429687,39.9758594 26.5519531,39.925 C26.9507812,39.7389062 27.1232031,39.2648437 26.9370312,38.8660156 L23.8397656,32.2286719 C24.8175,31.5870312 25.5602344,30.6521094 25.9671875,29.533125 C26.4660937,28.1611719 26.4007812,26.6771094 25.7834375,25.354375 L25.1522656,24.0017969 L28.3598437,24.0017969 C28.7998437,24.0017969 29.1566406,23.645 29.1566406,23.205 C29.1566406,22.765 28.7998437,22.4082812 28.3597656,22.4082812 L28.3597656,22.4082812 Z M14.3026562,1.59359375 L14.9159375,1.59359375 L14.9159375,6.45085937 L14.3026562,6.45085937 L14.3026562,1.59359375 L14.3026562,1.59359375 Z M10.229375,14.5632812 C10.8129687,15.4675 11.6682031,16.1799219 12.6792187,16.5846875 L9.96164062,22.4082031 L6.56859375,22.4082031 L10.229375,14.5632812 L10.229375,14.5632812 Z M4.87929687,26.0282812 L5.82492187,24.0017969 L9.21796875,24.0017969 L6.06289062,30.7628906 C5.46546875,30.3164062 5.01,29.7058594 4.74921875,28.9885937 C4.39578125,28.0167187 4.44195312,26.9654687 4.87929687,26.0282812 L4.87929687,26.0282812 Z M10.9923437,11.74625 C10.9923437,9.75195312 12.6149219,8.12929687 14.6092969,8.12929687 C16.6036719,8.12929687 18.22625,9.751875 18.22625,11.74625 C18.22625,13.740625 16.6036719,15.3632812 14.6092969,15.3632812 C12.6149219,15.3632812 10.9923437,13.740625 10.9923437,11.74625 L10.9923437,11.74625 Z M24.4694531,28.9886719 C24.2086719,29.7059375 23.7532031,30.3165625 23.1557812,30.7629687 L16.5394531,16.5847656 C17.5505469,16.18 18.405625,15.4675781 18.9892187,14.5633594 L24.3392969,26.0283594 C24.7767187,26.9654687 24.8228906,28.0167187 24.4694531,28.9886719 L24.4694531,28.9886719 Z" id="Shape" fill="#202B39"></path>
                    <path d="M16.0435937,22.4082813 L15.7248437,22.4082813 C15.2848437,22.4082813 14.9280469,22.7650781 14.9280469,23.2050781 C14.9280469,23.6450781 15.2848437,24.001875 15.7248437,24.001875 L16.0435937,24.001875 C16.4835937,24.001875 16.8403906,23.6450781 16.8403906,23.2050781 C16.8403906,22.7650781 16.4835937,22.4082813 16.0435937,22.4082813 L16.0435937,22.4082813 Z" id="Shape" fill="#603813"></path>
                    <path d="M14.6092969,9.67632812 C13.4679688,9.67632812 12.5392969,10.6049219 12.5392969,11.7463281 C12.5392969,12.8877344 13.4678906,13.8163281 14.6092969,13.8163281 C15.7507031,13.8163281 16.6792969,12.8877344 16.6792969,11.7463281 C16.6792969,10.6049219 15.7507031,9.67632812 14.6092969,9.67632812 L14.6092969,9.67632812 Z M14.6092969,12.2227344 C14.3465625,12.2227344 14.1328906,12.0089844 14.1328906,11.7463281 C14.1328906,11.4836719 14.3465625,11.2699219 14.6092969,11.2699219 C14.8720313,11.2699219 15.0857031,11.4835937 15.0857031,11.7463281 C15.0857813,12.0090625 14.8720313,12.2227344 14.6092969,12.2227344 L14.6092969,12.2227344 Z" id="Shape" fill="#202B39"></path>
                </g>
            </g>
        </g>
    </g>
</svg>