<?xml version="1.0" encoding="UTF-8" standalone="no"?>
<svg width="37px" height="35px" viewBox="0 0 37 35" version="1.1" xmlns="http://www.w3.org/2000/svg" xmlns:xlink="http://www.w3.org/1999/xlink">
    <!-- Generator: Sketch 41.2 (35397) - http://www.bohemiancoding.com/sketch -->
    <title>highlighter</title>
    <desc>Created with Sketch.</desc>
    <defs>
        <linearGradient x1="100%" y1="0%" x2="1.11022302e-14%" y2="100%" id="linearGradient-1">
            <stop stop-color="#FF4881" offset="0%"></stop>
            <stop stop-color="#FF9B63" offset="100%"></stop>
        </linearGradient>
    </defs>
    <g id="Pre-Launch-Landing-Page" stroke="none" stroke-width="1" fill="none" fill-rule="evenodd">
        <g id="Desktop-HD" transform="translate(-627.000000, -666.000000)">
            <g id="school-1a-125-1455-+-Rectangle-Mask" transform="translate(-44.000000, 139.000000)">
                <g id="highlighter" transform="translate(671.000000, 527.000000)">
                    <polygon id="Shape" fill="#F95265" points="8.00667339 16.6548488 19.4918952 28.1400706 35.4093448 9.06231855 27.084496 0.737469758"></polygon>
                    <polygon id="Shape" fill="#ADB1B9" points="9.31846774 17.9665726 18.1829234 26.8310282 15.4942742 29.4824194 6.64583669 20.6339113"></polygon>
                    <path d="M3.20010081,28.7783972 L7.3684879,32.9467843 L7.3740625,32.9523589 C9.62986895,31.3360081 12.2366633,30.1671069 14.9524798,29.5963105 L15.4943448,29.4824194 L6.64583669,20.6339113 L6.54126008,21.1431754 C5.97667339,23.8920867 4.83451613,26.4972581 3.20010081,28.7783972 L3.20010081,28.7783972 L3.20010081,28.7783972 Z" id="Shape" fill="#E6E6E6"></path>
                    <polygon id="Shape" fill="#F95265" points="4.8268246 34.2623891 0.7196875 32.4847278 3.81302419 29.3913911 6.75542339 32.3337903"></polygon>
                    <path d="M35.9183266,8.55340726 L27.5934778,0.228558468 C27.3300605,-0.0347177419 26.909496,-0.0536995968 26.623498,0.184879032 L7.5456754,16.1022581 C7.39050403,16.231744 7.29686492,16.420504 7.2877621,16.6224597 C7.27865927,16.8244153 7.35501008,17.0207964 7.49783266,17.1637601 L8.30015121,17.9660786 L6.13748992,20.1244355 C6.03686492,20.2248488 5.96912298,20.3519355 5.94103831,20.4891129 L5.94089718,20.4890423 L5.83632056,20.9983065 C5.29678427,23.6257762 4.18285282,26.1711794 2.6150504,28.3591734 C2.40984879,28.6454536 2.44216734,29.0382157 2.69118952,29.2873085 L2.79527218,29.3913911 L0.21077621,31.9758165 C0.0421975806,32.1443952 -0.0318951613,32.385373 0.0127016129,32.6195766 C0.0573689516,32.8537097 0.215080645,33.0505141 0.433830645,33.1452117 L4.54089718,34.9229435 C4.63298387,34.9628125 4.73022177,34.9821472 4.82668347,34.9821472 C5.01389113,34.9821472 5.19792339,34.9091129 5.33573589,34.771371 L6.75549395,33.3516129 L6.86275202,33.458871 L6.86839718,33.4644456 C7.00740927,33.6017641 7.1903125,33.6721169 7.37427419,33.6721169 C7.52034274,33.6721169 7.66711694,33.6278024 7.79321573,33.5374798 C9.99087702,31.9628327 12.5177218,30.8435383 15.1004536,30.3006855 L15.6423185,30.1867238 L15.6421774,30.186371 C15.7728629,30.1589919 15.897621,30.0955544 15.9996573,29.9948589 L18.1793246,27.8453931 L18.9829839,28.6490524 C19.118256,28.784254 19.3014415,28.8598286 19.4918246,28.8598286 C19.502621,28.8598286 19.5134879,28.8596169 19.5242843,28.859123 C19.7262399,28.8500202 19.915,28.7564516 20.0445565,28.6012802 L35.962006,9.52352823 C36.2005141,9.23745968 36.1816028,8.81675403 35.9183266,8.55340726 L35.9183266,8.55340726 Z M4.66382056,33.4076411 L1.97735887,32.244879 L3.81295363,30.4092137 L5.73753024,32.3337903 L4.66382056,33.4076411 L4.66382056,33.4076411 Z M4.13409274,28.6946371 C5.48490927,26.6844657 6.488125,24.4199093 7.06823589,22.0742742 L14.0580746,29.0641129 C11.7374194,29.646623 9.47935484,30.6569657 7.45746976,32.0182258 L4.13409274,28.6946371 L4.13409274,28.6946371 Z M15.497873,28.4680544 L7.66415323,20.6344052 L9.31797379,18.9839718 L17.161502,26.8275 L15.497873,28.4680544 L15.497873,28.4680544 Z M9.0725504,16.7029738 L27.0406048,1.71133065 L34.4354133,9.10620968 L19.4439113,27.0742641 L9.0725504,16.7029738 L9.0725504,16.7029738 Z" id="Shape" fill="#202B39"></path>
                    <path d="M20.1944355,8.95978831 L11.4140927,16.2857258 C11.1089012,16.5403226 11.0678327,16.9941935 11.3225706,17.2993851 C11.4649698,17.4700101 11.6694657,17.5580746 11.8755847,17.5580746 C12.0382359,17.5580746 12.2016633,17.503246 12.3363004,17.3909778 L21.1166431,10.0650403 C21.4218347,9.81044355 21.4629032,9.35657258 21.2081653,9.05138105 C20.9534274,8.74597782 20.4995565,8.70512097 20.1944355,8.95978831 L20.1944355,8.95978831 Z" id="Shape" fill="#202B39"></path>
                    <path d="M23.1451613,6.49779234 L22.1796976,7.30335685 C21.874506,7.55795363 21.8334375,8.0118246 22.0881754,8.31701613 C22.2305746,8.48764113 22.4350706,8.57570565 22.6411895,8.57570565 C22.8038407,8.57570565 22.9672681,8.52087702 23.1019052,8.40860887 L24.067369,7.60304435 C24.372631,7.34844758 24.413629,6.89457661 24.1588911,6.58938508 C23.9040827,6.28405242 23.4503528,6.24319556 23.1451613,6.49779234 L23.1451613,6.49779234 Z" id="Shape" fill="#202B39"></path>
                </g>
            </g>
        </g>
    </g>
</svg>