<?xml version="1.0" encoding="UTF-8" standalone="no"?>
<svg width="26px" height="30px" viewBox="0 0 26 30" version="1.1" xmlns="http://www.w3.org/2000/svg" xmlns:xlink="http://www.w3.org/1999/xlink">
    <!-- Generator: Sketch 41.2 (35397) - http://www.bohemiancoding.com/sketch -->
    <title>notebook</title>
    <desc>Created with Sketch.</desc>
    <defs>
        <linearGradient x1="100%" y1="0%" x2="1.11022302e-14%" y2="100%" id="linearGradient-1">
            <stop stop-color="#FF4881" offset="0%"></stop>
            <stop stop-color="#FF9B63" offset="100%"></stop>
        </linearGradient>
    </defs>
    <g id="Pre-Launch-Landing-Page" stroke="none" stroke-width="1" fill="none" fill-rule="evenodd">
        <g id="Desktop-HD" transform="translate(-40.000000, -259.000000)">
            <g id="school-1a-125-1455-+-Rectangle-Mask" transform="translate(-44.000000, 139.000000)">
                <g id="notebook" transform="translate(84.000000, 120.000000)">
                    <rect id="Rectangle-path" fill="#F95265" x="6.61095703" y="0.597597656" width="18.5575781" height="28.8048047"></rect>
                    <rect id="Rectangle-path" fill="#BAE1F2" x="2.48712891" y="0.597597656" width="4.12412109" height="28.8048047"></rect>
                    <rect id="Rectangle-path" fill="#E6E6E6" x="10.9985742" y="5.28404297" width="9.78228516" height="6.18585937"></rect>
                    <path d="M25.1685937,30 C25.4985937,30 25.7661914,29.7324023 25.7661914,29.4024023 L25.7661914,0.597597656 C25.7661914,0.267597656 25.4985937,0 25.1685937,0 L2.48712891,0 C2.15712891,0 1.88953125,0.267597656 1.88953125,0.597597656 L1.88953125,2.49931641 L0.61265625,2.49931641 C0.28265625,2.49931641 0.0150585937,2.76691406 0.0150585937,3.09691406 C0.0150585937,3.42691406 0.28265625,3.69451172 0.61265625,3.69451172 L1.88953125,3.69451172 L1.88953125,8.37269531 L0.61265625,8.37269531 C0.28265625,8.37269531 0.0150585937,8.64029297 0.0150585937,8.97029297 C0.0150585937,9.30029297 0.28265625,9.56789063 0.61265625,9.56789063 L1.88953125,9.56789063 L1.88953125,14.2460156 L0.61265625,14.2460156 C0.28265625,14.2460156 0.0150585937,14.5136133 0.0150585937,14.8436133 C0.0150585937,15.1736133 0.28265625,15.4412109 0.61265625,15.4412109 L1.88953125,15.4412109 L1.88953125,20.1193945 L0.61265625,20.1193945 C0.28265625,20.1193945 0.0150585937,20.3869922 0.0150585937,20.7169922 C0.0150585937,21.0469922 0.28265625,21.3145898 0.61265625,21.3145898 L1.88953125,21.3145898 L1.88953125,25.9927734 L0.61265625,25.9927734 C0.28265625,25.9927734 0.0150585937,26.2603711 0.0150585937,26.5903711 C0.0150585937,26.9203711 0.28265625,27.1879688 0.61265625,27.1879688 L1.88953125,27.1879688 L1.88953125,29.402168 C1.88953125,29.732168 2.15712891,29.9997656 2.48712891,29.9997656 L25.1685937,29.9997656 L25.1685937,30 Z M3.08472656,27.1882617 L4.36166016,27.1882617 C4.69166016,27.1882617 4.95925781,26.9206641 4.95925781,26.5906641 C4.95925781,26.2606641 4.69166016,25.9930664 4.36166016,25.9930664 L3.08472656,25.9930664 L3.08472656,21.3148828 L4.36166016,21.3148828 C4.69166016,21.3148828 4.95925781,21.0472852 4.95925781,20.7172852 C4.95925781,20.3872852 4.69166016,20.1196875 4.36166016,20.1196875 L3.08472656,20.1196875 L3.08472656,15.4415039 L4.36166016,15.4415039 C4.69166016,15.4415039 4.95925781,15.1739062 4.95925781,14.8439062 C4.95925781,14.5139062 4.69166016,14.2463086 4.36166016,14.2463086 L3.08472656,14.2463086 L3.08472656,9.56818359 L4.36166016,9.56818359 C4.69166016,9.56818359 4.95925781,9.30058594 4.95925781,8.97058594 C4.95925781,8.64058594 4.69166016,8.37298828 4.36166016,8.37298828 L3.08472656,8.37298828 L3.08472656,3.69457031 L4.36166016,3.69457031 C4.69166016,3.69457031 4.95925781,3.42697266 4.95925781,3.09697266 C4.95925781,2.76697266 4.69166016,2.499375 4.36166016,2.499375 L3.08472656,2.499375 L3.08472656,1.19519531 L6.01341797,1.19519531 L6.01341797,28.8047461 L3.08472656,28.8047461 L3.08472656,27.1882617 L3.08472656,27.1882617 Z M24.5709375,28.8048047 L7.20867187,28.8048047 L7.20867187,1.19519531 L24.5709375,1.19519531 L24.5709375,28.8048047 L24.5709375,28.8048047 Z" id="Shape" fill="#202B39"></path>
                    <path d="M10.9988086,12.0672656 L20.7808594,12.0672656 C21.1108594,12.0672656 21.378457,11.799668 21.378457,11.469668 L21.378457,5.28380859 C21.378457,4.95380859 21.1108594,4.68621094 20.7808594,4.68621094 L10.9988086,4.68621094 C10.6688086,4.68621094 10.4012109,4.95380859 10.4012109,5.28380859 L10.4012109,11.469668 C10.4012109,11.799668 10.66875,12.0672656 10.9988086,12.0672656 L10.9988086,12.0672656 Z M11.5964648,5.88140625 L20.1832617,5.88140625 L20.1832617,10.8720703 L11.5964648,10.8720703 L11.5964648,5.88140625 L11.5964648,5.88140625 Z" id="Shape" fill="#202B39"></path>
                    <path d="M18.6703711,6.87316406 L18.2329687,6.87316406 C17.9029687,6.87316406 17.6353711,7.14076172 17.6353711,7.47076172 C17.6353711,7.80076172 17.9029687,8.06835937 18.2329687,8.06835937 L18.6703711,8.06835937 C19.0003711,8.06835937 19.2679687,7.80076172 19.2679687,7.47076172 C19.2679687,7.14076172 19.0003711,6.87316406 18.6703711,6.87316406 L18.6703711,6.87316406 Z" id="Shape" fill="#202B39"></path>
                    <path d="M16.2335156,6.87316406 L13.2342773,6.87316406 C12.9042773,6.87316406 12.6366797,7.14076172 12.6366797,7.47076172 C12.6366797,7.80076172 12.9042773,8.06835937 13.2342773,8.06835937 L16.2335156,8.06835937 C16.5635156,8.06835937 16.8311133,7.80076172 16.8311133,7.47076172 C16.8311133,7.14076172 16.5635156,6.87316406 16.2335156,6.87316406 L16.2335156,6.87316406 Z" id="Shape" fill="#202B39"></path>
                </g>
            </g>
        </g>
    </g>
</svg>