<?xml version="1.0" encoding="UTF-8" standalone="no"?>
<svg width="35px" height="35px" viewBox="0 0 35 35" version="1.1" xmlns="http://www.w3.org/2000/svg" xmlns:xlink="http://www.w3.org/1999/xlink">
    <!-- Generator: Sketch 41.2 (35397) - http://www.bohemiancoding.com/sketch -->
    <title>paint-tube</title>
    <desc>Created with Sketch.</desc>
    <defs>
        <linearGradient x1="100%" y1="0%" x2="1.11022302e-14%" y2="100%" id="linearGradient-1">
            <stop stop-color="#FF4881" offset="0%"></stop>
            <stop stop-color="#FF9B63" offset="100%"></stop>
        </linearGradient>
    </defs>
    <g id="Pre-Launch-Landing-Page" stroke="none" stroke-width="1" fill="none" fill-rule="evenodd">
        <g id="Desktop-HD" transform="translate(-192.000000, -167.000000)">
            <g id="school-1a-125-1455-+-Rectangle-Mask" transform="translate(-44.000000, 139.000000)">
                <g id="paint-tube" transform="translate(236.000000, 28.000000)">
                    <polygon id="Shape" fill="#E6E6E6" points="29.8500781 8.97763672 26.0223633 5.14999023 20.7800195 5.63253906 29.3674609 14.2199805"></polygon>
                    <rect id="Rectangle-path" fill="#ADB1B9" transform="translate(28.981813, 6.018556) rotate(45.000000) translate(-28.981813, -6.018556) " x="26.2752864" y="4.54050389" width="5.41305356" height="2.95610446"></rect>
                    <rect id="Rectangle-path" fill="#ADB1B9" transform="translate(30.707674, 4.292443) rotate(45.000000) translate(-30.707674, -4.292443) " x="26.5875918" y="3.32858515" width="8.24016512" height="1.92771589"></rect>
                    <polygon id="Shape" fill="#BAE1F2" points="29.3674609 14.2199805 20.7800195 5.63253906 16.7440137 9.13896484 25.8610352 18.2560547"></polygon>
                    <polygon id="Shape" fill="#E6E6E6" points="0.697197266 23.0800391 11.9199609 34.3028027 13.3563281 32.6494629 2.35053711 21.6436719"></polygon>
                    <polygon id="Shape" fill="#BAE1F2" points="6.7269043 17.8415918 2.35053711 21.6436719 13.3563281 32.6494629 17.1584766 28.2730957"></polygon>
                    <polygon id="Shape" fill="#F95265" points="25.8610352 18.2560547 16.7440137 9.13896484 6.7269043 17.8415918 17.1584766 28.2730957"></polygon>
                    <path d="M29.8937598,14.6772363 C29.8937598,14.6772363 29.8930762,14.6763477 29.8928027,14.6759375 C29.9866602,14.567793 30.0481152,14.4322363 30.0617187,14.2838965 L30.5211621,9.2925 L31.9400293,7.87363281 L32.4466406,8.38024414 C32.5828125,8.51634766 32.7612305,8.58443359 32.9396484,8.58443359 C33.1180664,8.58443359 33.2965527,8.51634766 33.4326562,8.38024414 L34.7957422,7.0171582 C35.0680176,6.74488281 35.0680176,6.30341797 34.7957422,6.03107422 L28.9689941,0.204189453 C28.6967187,-0.0680175781 28.2552539,-0.0680175781 27.9829102,0.204189453 L26.6198242,1.56727539 C26.3475488,1.83955078 26.3475488,2.28101563 26.6198242,2.55335938 L27.1264355,3.0599707 L25.7075684,4.47883789 L20.7161719,4.93828125 C20.5677637,4.95195313 20.4321387,5.01354492 20.3239258,5.10740234 C20.3237891,5.10726563 20.322832,5.10624023 20.322832,5.10624023 L0.239941406,22.5536719 C0.0939257812,22.6804785 0.00724609375,22.8622461 0.000478515625,23.055498 C-0.00635742188,23.24875 0.0674707031,23.4361914 0.204189453,23.5729785 L11.4269531,34.7957422 C11.5579297,34.9266504 11.7353906,34.9999316 11.9199609,34.9999316 C11.9280957,34.9999316 11.9362988,34.9997949 11.9444336,34.9995215 C12.1376855,34.9927539 12.3194531,34.9060059 12.4462598,34.7600586 L29.8937598,14.6772363 L29.8937598,14.6772363 Z M25.7605469,5.87425781 L29.1256738,9.23938477 L28.8093066,12.6759473 L22.3240527,6.19055664 L25.7605469,5.87425781 L25.7605469,5.87425781 Z M25.8252148,17.2341504 L17.7658496,9.17478516 L20.7465918,6.58512695 L28.414873,14.2534082 L25.8252148,17.2341504 L25.8252148,17.2341504 Z M17.1225879,27.2512598 L7.74880859,17.8773437 L16.7106543,10.0914844 L24.9085156,18.2893457 L17.1225879,27.2512598 L17.1225879,27.2512598 Z M11.8841406,33.2808984 L1.71910156,23.1158594 L2.31717773,22.5963281 L12.4038086,32.682959 L11.8841406,33.2808984 L11.8841406,33.2808984 Z M13.3205078,31.627627 L3.37237305,21.6795605 L6.69354492,18.794248 L16.2058887,28.3065918 L13.3205078,31.627627 L13.3205078,31.627627 Z M29.8500781,7.99162109 L27.0084473,5.14999023 L28.1124512,4.04598633 L30.954082,6.88761719 L29.8500781,7.99162109 L29.8500781,7.99162109 Z M28.098916,2.0602832 L28.4760547,1.68314453 L33.3168555,6.52394531 L32.9397168,6.90108398 L28.098916,2.0602832 L28.098916,2.0602832 Z" id="Shape" fill="#202B39"></path>
                    <path d="M16.7787402,23.8106641 L16.597041,23.6289648 C16.3247656,23.3566895 15.8833008,23.3566895 15.610957,23.6289648 C15.3386816,23.9012402 15.3386816,24.3427051 15.610957,24.6150488 L15.7926562,24.796748 C15.9288281,24.9329199 16.1072461,25.0009375 16.2856641,25.0009375 C16.464082,25.0009375 16.6425684,24.9329199 16.7786719,24.796748 C17.0510156,24.5244727 17.0510156,24.0829395 16.7787402,23.8106641 L16.7787402,23.8106641 Z" id="Shape" fill="#202B39"></path>
                    <path d="M10.4631543,17.4950098 C10.1908789,17.2227344 9.74941406,17.2227344 9.47707031,17.4950098 C9.20479492,17.7672852 9.20479492,18.20875 9.47707031,18.4810938 L14.2024121,23.2064355 C14.338584,23.3426074 14.517002,23.410625 14.6954199,23.410625 C14.8738379,23.410625 15.0523242,23.3426074 15.1884277,23.2064355 C15.4607031,22.9341602 15.4607031,22.4926953 15.1884277,22.2203516 L10.4631543,17.4950098 L10.4631543,17.4950098 Z" id="Shape" fill="#202B39"></path>
                </g>
            </g>
        </g>
    </g>
</svg>