<?xml version="1.0" encoding="UTF-8" standalone="no"?>
<svg width="35px" height="35px" viewBox="0 0 35 35" version="1.1" xmlns="http://www.w3.org/2000/svg" xmlns:xlink="http://www.w3.org/1999/xlink">
    <!-- Generator: Sketch 41.2 (35397) - http://www.bohemiancoding.com/sketch -->
    <title>paint-brush</title>
    <desc>Created with Sketch.</desc>
    <defs>
        <linearGradient x1="100%" y1="0%" x2="1.11022302e-14%" y2="100%" id="linearGradient-1">
            <stop stop-color="#FF4881" offset="0%"></stop>
            <stop stop-color="#FF9B63" offset="100%"></stop>
        </linearGradient>
    </defs>
    <g id="Pre-Launch-Landing-Page" stroke="none" stroke-width="1" fill="none" fill-rule="evenodd">
        <g id="Desktop-HD" transform="translate(-105.000000, -917.000000)">
            <g id="school-1a-125-1455-+-Rectangle-Mask" transform="translate(-44.000000, 139.000000)">
                <g id="paint-brush" transform="translate(149.000000, 778.000000)">
                    <path d="M6.27874023,25.1531055 C5.15087891,25.496543 3.98289063,26.0622168 3.05457031,26.9905371 C0.391630859,29.6534082 0.710322266,34.2896777 0.710322266,34.2896777 C0.710322266,34.2896777 5.3465918,34.6083691 8.00959961,31.9453613 C8.93785156,31.0171094 9.50352539,29.8491211 9.84703125,28.7211914 L6.27874023,25.1531055 L6.27874023,25.1531055 Z" id="Shape" fill="#BAE1F2"></path>
                    <polygon id="Shape" fill="#E6E6E6" points="11.3661816 17.9863086 6.27798828 25.1522852 6.27874023 25.1531055 9.84696289 28.7212598 9.84771484 28.7220117 17.0136914 23.6338184"></polygon>
                    <rect id="Rectangle-path" fill="#ADB1B9" transform="translate(15.175506, 19.824792) rotate(225.000000) translate(-15.175506, -19.824792) " x="11.182092" y="18.4308557" width="7.9868277" height="2.78787365"></rect>
                    <polygon id="Shape" fill="#F95265" points="34.3028027 3.52098633 31.4790137 0.697197266 13.3374609 16.0148926 18.9851074 21.6625391"></polygon>
                    <path d="M34.7958105,3.02797852 L31.9719531,0.204189453 C31.7156738,-0.0520214844 31.3059277,-0.0692480469 31.029209,0.164541016 L12.887793,15.4822363 C12.8810254,15.4879785 12.8750781,15.4943359 12.868584,15.5002832 C12.8606543,15.5075293 12.8523145,15.5142285 12.8445898,15.5219531 L10.8732422,17.4932324 C10.8732422,17.4932324 10.8722168,17.4947363 10.8705078,17.4974023 C10.8443945,17.5239258 10.8195117,17.5518848 10.7977051,17.5825781 L5.84349609,24.5599512 C4.51411133,24.9974512 3.4106543,25.6483008 2.56163086,26.4973926 C-0.292851563,29.3519434 0.0008203125,34.1352539 0.014765625,34.3375293 C0.0386914062,34.6848633 0.315205078,34.961377 0.662539062,34.9853027 C0.700068359,34.9879004 0.894482422,35 1.20476562,35 C2.57003906,35 6.17667969,34.7642969 8.50260742,32.4383691 C9.35163086,31.5893457 10.0025488,30.4858887 10.4400488,29.1565039 L17.4174219,24.2023633 C17.4481836,24.1805566 17.4761426,24.1557422 17.5025977,24.1295605 C17.5051953,24.1279199 17.5067676,24.1268262 17.5067676,24.1268262 L19.4780469,22.1554785 C19.4857715,22.1477539 19.4925391,22.1393457 19.4997852,22.131416 C19.5057324,22.1249219 19.5120898,22.1189746 19.5176953,22.1123437 L34.835459,3.97085937 C35.069248,3.69393555 35.0519531,3.28425781 34.7958105,3.02797852 L34.7958105,3.02797852 Z M17.0137598,22.6478711 L12.3520605,17.9861719 L13.3373926,17.0008398 L17.9989551,21.6624023 L17.0137598,22.6478711 L17.0137598,22.6478711 Z M9.92420898,27.8125586 L7.18737305,25.0757227 L11.4566895,19.062832 L15.9370996,23.5432422 L9.92420898,27.8125586 L9.92420898,27.8125586 Z M7.5165918,31.4524219 C5.67191406,33.2970996 2.69800781,33.5732031 1.39931641,33.600752 C1.42693359,32.3013086 1.70317383,29.3278125 3.54764648,27.4834082 C4.20116211,26.8298242 5.05462891,26.3148047 6.08883789,25.949082 L7.47311523,27.3333594 C7.30966797,28.004375 7.06439453,28.6099707 6.74166992,29.1359961 C6.54035156,29.4642578 6.64316406,29.8934863 6.97142578,30.0948047 C7.08510742,30.1645996 7.21095703,30.1978223 7.33537109,30.1978223 C7.56977539,30.1978223 7.79871094,30.0795605 7.93030273,29.8651172 C8.19546875,29.4329492 8.41640625,28.9602441 8.59359375,28.4537695 L9.05091797,28.9110937 C8.68519531,29.9454395 8.17010742,30.7989062 7.5165918,31.4524219 L7.5165918,31.4524219 Z M18.9416992,20.6331152 L14.3668164,16.0582324 L31.4390918,1.64329102 L33.3566406,3.56083984 L18.9416992,20.6331152 L18.9416992,20.6331152 Z" id="Shape" fill="#202B39"></path>
                    <path d="M22.1964258,10.6188086 L16.3611328,15.5458789 C16.0669141,15.7942969 16.0298633,16.2341211 16.2782129,16.5283398 C16.4160937,16.6917188 16.6129687,16.7758008 16.8112793,16.7758008 C16.9700781,16.7758008 17.129834,16.7218652 17.2606738,16.6113281 L23.0959668,11.6842578 C23.3901855,11.4358398 23.4272363,10.9960156 23.1788867,10.7017969 C22.9306055,10.4075781 22.4905762,10.370459 22.1964258,10.6188086 L22.1964258,10.6188086 Z" id="Shape" fill="#202B39"></path>
                    <path d="M24.2186328,8.91139648 L23.7563867,9.30172852 C23.462168,9.55014648 23.4251172,9.99003906 23.6734668,10.2841895 C23.811416,10.4475684 24.0082227,10.531582 24.2065332,10.531582 C24.365332,10.531582 24.5251563,10.4776465 24.6559961,10.3671094 L25.1182422,9.97677734 C25.4124609,9.72835938 25.4495117,9.2884668 25.2011621,8.99431641 C24.9526758,8.70009766 24.5127832,8.66304688 24.2186328,8.91139648 L24.2186328,8.91139648 Z" id="Shape" fill="#202B39"></path>
                    <path d="M4.15864258,27.8412695 C2.5181543,29.3377246 2.39838867,31.7916211 2.39415039,31.8952539 C2.3781543,32.2799805 2.67722656,32.6046875 3.06188477,32.6206836 C3.07172852,32.6210938 3.08150391,32.6212988 3.09121094,32.6212988 C3.46294922,32.6212988 3.77172852,32.327832 3.78731445,31.9529492 C3.78813477,31.9333301 3.90195312,29.9628027 5.09837891,28.8714453 C5.38282227,28.6119531 5.403125,28.1709668 5.14363281,27.8865234 C4.88400391,27.6020117 4.44308594,27.5817773 4.15864258,27.8412695 L4.15864258,27.8412695 Z" id="Shape" fill="#202B39"></path>
                </g>
            </g>
        </g>
    </g>
</svg>