<?xml version="1.0" encoding="UTF-8" standalone="no"?>
<svg width="35px" height="35px" viewBox="0 0 35 35" version="1.1" xmlns="http://www.w3.org/2000/svg" xmlns:xlink="http://www.w3.org/1999/xlink">
    <!-- Generator: Sketch 41.2 (35397) - http://www.bohemiancoding.com/sketch -->
    <title>pencil-1</title>
    <desc>Created with Sketch.</desc>
    <defs>
        <linearGradient x1="100%" y1="0%" x2="1.11022302e-14%" y2="100%" id="linearGradient-1">
            <stop stop-color="#FF4881" offset="0%"></stop>
            <stop stop-color="#FF9B63" offset="100%"></stop>
        </linearGradient>
    </defs>
    <g id="Pre-Launch-Landing-Page" stroke="none" stroke-width="1" fill="none" fill-rule="evenodd">
        <g id="Desktop-HD" transform="translate(-50.000000, -606.000000)">
            <g id="school-1a-125-1455-+-Rectangle-Mask" transform="translate(-44.000000, 139.000000)">
                <g id="pencil-1" transform="translate(94.000000, 467.000000)">
                    <polygon id="Shape" fill="#E6E6E6" points="26.1805469 3.15519531 31.844668 8.81938477 33.0861426 4.71727539 30.2826563 1.91385742"></polygon>
                    <polygon id="Shape" fill="#EF5263" points="30.2826562 1.91385742 33.0861426 4.71727539 34.3027344 0.697197266"></polygon>
                    <polygon id="Shape" fill="#E6E6E6" points="8.81938477 31.8447363 3.15526367 26.1804785 1.91385742 30.2825879 4.71734375 33.0860742"></polygon>
                    <polygon id="Shape" fill="#BAE1F2" points="4.71734375 33.0860742 1.91385742 30.2825879 0.697197266 34.3027344"></polygon>
                    <rect id="Rectangle-path" fill="#BAE1F2" transform="translate(11.743718, 23.256532) rotate(45.000000) translate(-11.743718, -23.256532) " x="7.73868271" y="15.1160683" width="8.01006967" height="16.2809278"></rect>
                    <rect id="Rectangle-path" fill="#EF5263" transform="translate(23.256040, 11.743735) rotate(135.000000) translate(-23.256040, -11.743735) " x="15.1155756" y="7.73870031" width="16.2809278" height="8.01006967"></rect>
                    <path d="M0.0298730469,34.1007324 C-0.0445703125,34.3467578 0.022421875,34.6139062 0.204189453,34.7957422 C0.336943359,34.9284277 0.515019531,34.9999316 0.697265625,34.9999316 C0.764667969,34.9999316 0.832685547,34.9900879 0.899199219,34.9699902 L9.02138672,32.5119922 C9.13322266,32.4780859 9.23207031,32.4168359 9.31198242,32.3368555 C9.31205078,32.3369238 9.31239258,32.3376074 9.31239258,32.3376074 L32.3377441,9.31232422 C32.4218945,9.22817383 32.4799316,9.12775391 32.5120605,9.02131836 L32.5120605,9.02131836 L32.5122656,9.02063477 C32.5127441,9.01899414 32.513291,9.01728516 32.5137695,9.01564453 L34.9700586,0.899130859 C35.044502,0.653105469 34.9775098,0.385957031 34.7957422,0.204121094 C34.614043,0.022421875 34.3469629,-0.0444335938 34.1007324,0.0298046875 L25.9837402,2.48629883 C25.9825098,2.48664062 25.9811426,2.48705078 25.9799121,2.48746094 L25.9786133,2.48787109 L25.9786133,2.48793945 C25.8721094,2.52006836 25.7716895,2.57803711 25.6875391,2.6621875 L2.66225586,25.6874707 L2.66287109,25.6880176 C2.58295898,25.7679297 2.52170898,25.866709 2.48787109,25.9785449 L0.0298730469,34.1007324 L0.0298730469,34.1007324 Z M32.7560352,3.40108398 L31.5988477,2.24389648 L33.2582031,1.74172852 L32.7560352,3.40108398 L32.7560352,3.40108398 Z M20.3320605,19.3459766 L15.6539551,14.6678711 L26.1805469,4.14121094 L30.858584,8.81931641 L20.3320605,19.3459766 L20.3320605,19.3459766 Z M31.5146289,7.50319336 L27.4967383,3.48537109 L30.0849609,2.70204102 L32.297959,4.91503906 L31.5146289,7.50319336 L31.5146289,7.50319336 Z M2.24396484,31.5987793 L3.40115234,32.7559668 L1.74179687,33.2581348 L2.24396484,31.5987793 L2.24396484,31.5987793 Z M4.91503906,32.2978223 L2.70217773,30.0848926 L3.48543945,27.4966699 L7.50339844,31.5146289 L4.91503906,32.2978223 L4.91503906,32.2978223 Z M4.1412793,26.1804785 L14.6678711,15.6538867 L19.3459766,20.3319922 L8.81938477,30.858584 L4.1412793,26.1804785 L4.1412793,26.1804785 Z" id="Shape" fill="#202B39"></path>
                    <path d="M11.7430469,25.8016992 C11.8792188,25.9378027 12.0576367,26.0058887 12.2360547,26.0058887 C12.4144727,26.0058887 12.592959,25.9378027 12.7290625,25.8016992 L17.644375,20.8863867 C17.9166504,20.6141113 17.9166504,20.1726465 17.644375,19.9003027 C17.3720996,19.6280957 16.9306348,19.6280957 16.658291,19.9003027 L11.7429785,24.8156152 C11.4707715,25.087959 11.4707715,25.5294922 11.7430469,25.8016992 L11.7430469,25.8016992 Z" id="Shape" fill="#202B39"></path>
                    <path d="M10.2265625,26.332168 L9.84306641,26.7156641 C9.57079102,26.9879395 9.57079102,27.4294043 9.84306641,27.701748 C9.97923828,27.8378516 10.1576562,27.9059375 10.3360742,27.9059375 C10.5144922,27.9059375 10.6929785,27.8378516 10.829082,27.701748 L11.2125781,27.318252 C11.4848535,27.0459766 11.4848535,26.6045117 11.2125781,26.332168 C10.9403027,26.0598926 10.4988379,26.0598926 10.2265625,26.332168 L10.2265625,26.332168 Z" id="Shape" fill="#202B39"></path>
                </g>
            </g>
        </g>
    </g>
</svg>