<?xml version="1.0" encoding="UTF-8" standalone="no"?>
<svg width="31px" height="30px" viewBox="0 0 31 30" version="1.1" xmlns="http://www.w3.org/2000/svg" xmlns:xlink="http://www.w3.org/1999/xlink">
    <!-- Generator: Sketch 41.2 (35397) - http://www.bohemiancoding.com/sketch -->
    <title>pencil</title>
    <desc>Created with Sketch.</desc>
    <defs>
        <linearGradient x1="100%" y1="0%" x2="1.11022302e-14%" y2="100%" id="linearGradient-1">
            <stop stop-color="#FF4881" offset="0%"></stop>
            <stop stop-color="#FF9B63" offset="100%"></stop>
        </linearGradient>
    </defs>
    <g id="Pre-Launch-Landing-Page" stroke="none" stroke-width="1" fill="none" fill-rule="evenodd">
        <g id="Desktop-HD" transform="translate(-493.000000, -151.000000)">
            <g id="school-1a-125-1455-+-Rectangle-Mask" transform="translate(-44.000000, 139.000000)">
                <g id="pencil" transform="translate(537.250000, 12.000000)">
                    <polygon id="Shape" fill="#E6E6E6" points="8.83810547 26.9085937 3.09140625 21.1619531 1.83199219 25.3238086 4.67625 28.168125"></polygon>
                    <polygon id="Shape" fill="#ADB1B9" points="4.67625 28.168125 1.83199219 25.3238086 0.597597656 29.4024023"></polygon>
                    <rect id="Rectangle-path" fill="#BAE1F2" transform="translate(13.852936, 16.146970) rotate(45.000000) translate(-13.852936, -16.146970) " x="9.78955729" y="4.99191131" width="8.126758" height="22.3101181"></rect>
                    <rect id="Rectangle-path" fill="#E6E6E6" transform="translate(22.743782, 7.255557) rotate(135.000000) translate(-22.743782, -7.255557) " x="21.325387" y="3.19217814" width="2.8367892" height="8.126758"></rect>
                    <path d="M28.7886328,6.95806641 C29.6070117,6.1396875 29.6070117,4.81277344 28.7886328,3.99439453 L26.0056641,1.21142578 C25.1872852,0.392988281 23.8603711,0.392988281 23.0419922,1.21142578 L20.8734375,3.37998047 L26.6200781,9.12662109 L28.7886328,6.95806641 L28.7886328,6.95806641 Z" id="Shape" fill="#F95265"></path>
                    <path d="M2.66882812,20.7394336 C2.66882812,20.7394336 2.66859375,20.7400781 2.668125,20.7413672 C2.60027344,20.8096289 2.54824219,20.8937695 2.51941406,20.9889844 L0.0256054687,29.229375 C-0.038203125,29.4402539 0.01921875,29.6692383 0.175019531,29.8250977 C0.28875,29.9387109 0.441503906,30 0.59765625,30 C0.655429687,30 0.713730469,29.9915625 0.770742187,29.9743359 L9.01119141,27.4805273 C9.10675781,27.451582 9.19125,27.3993164 9.25962891,27.3310547 C9.25980469,27.3310547 9.26068359,27.3311133 9.26068359,27.3311133 L29.2112109,7.38058594 L29.2112109,7.38058594 C29.7199219,6.871875 30.0000586,6.19552734 30.0000586,5.47617188 C30.0000586,4.75675781 29.7199219,4.08046875 29.2112109,3.57169922 L26.4282422,0.788789063 C25.9195898,0.280195312 25.2431836,0 24.5237695,0 C23.8043555,0 23.1280664,0.280136719 22.6193555,0.788847656 L2.66882812,20.7394336 L2.66882812,20.7394336 Z M20.8734375,4.22513672 L25.7749219,9.12662109 L24.6141797,10.2873633 L19.7126953,5.38587891 L20.8734375,4.22513672 L20.8734375,4.22513672 Z M8.83810547,26.0634375 L3.93662109,21.1619531 L18.8675391,6.23103516 L23.7690234,11.1325195 L8.83810547,26.0634375 L8.83810547,26.0634375 Z M3.37441406,22.2900586 L7.70994141,26.6255859 L4.84570312,27.4924219 L2.50763672,25.1542969 L3.37441406,22.2900586 L3.37441406,22.2900586 Z M2.11488281,26.4519727 L3.54808594,27.8851758 L1.49296875,28.5070898 L2.11488281,26.4519727 L2.11488281,26.4519727 Z M28.3660547,6.53548828 L28.3660547,6.53548828 L26.6200781,8.28146484 L21.7185937,3.37998047 L23.4645703,1.63400391 C23.7474609,1.35105469 24.1236914,1.19525391 24.5237695,1.19525391 C24.9239062,1.19525391 25.3001367,1.35105469 25.5830273,1.63400391 L28.3659961,4.41697266 C28.6489453,4.69992187 28.8047461,5.07609375 28.8047461,5.47623047 C28.8047461,5.87636719 28.6490039,6.25253906 28.3660547,6.53548828 L28.3660547,6.53548828 Z" id="Shape" fill="#202B39"></path>
                    <path d="M17.9923242,15.0555469 C17.7589453,14.822168 17.3805469,14.822168 17.1471094,15.0555469 L16.9080469,15.2946094 C16.674668,15.5279883 16.674668,15.9063867 16.9080469,16.1398242 C17.0247656,16.256543 17.1776953,16.3148438 17.330625,16.3148438 C17.4835547,16.3148438 17.636543,16.256543 17.7532031,16.1398242 L17.9922656,15.9007617 C18.2257031,15.6673242 18.2257031,15.2889258 17.9923242,15.0555469 L17.9923242,15.0555469 Z" id="Shape" fill="#202B39"></path>
                    <path d="M15.1750195,17.0276367 L8.42203125,23.780625 C8.18865234,24.0140039 8.18865234,24.3924023 8.42203125,24.6258398 C8.53875,24.7425586 8.69167969,24.8008594 8.84460937,24.8008594 C8.99753906,24.8008594 9.15052734,24.7425586 9.2671875,24.6258398 L16.0201758,17.8728516 C16.2535547,17.6394727 16.2535547,17.2610742 16.0201758,17.0276367 C15.7867969,16.7942578 15.4083984,16.7942578 15.1750195,17.0276367 L15.1750195,17.0276367 Z" id="Shape" fill="#202B39"></path>
                </g>
            </g>
        </g>
    </g>
</svg>