<?xml version="1.0" encoding="UTF-8" standalone="no"?>
<svg width="36px" height="25px" viewBox="0 0 36 25" version="1.1" xmlns="http://www.w3.org/2000/svg" xmlns:xlink="http://www.w3.org/1999/xlink">
    <!-- Generator: Sketch 41.2 (35397) - http://www.bohemiancoding.com/sketch -->
    <title>protractor</title>
    <desc>Created with Sketch.</desc>
    <defs>
        <linearGradient x1="100%" y1="0%" x2="1.11022302e-14%" y2="100%" id="linearGradient-1">
            <stop stop-color="#FF4881" offset="0%"></stop>
            <stop stop-color="#FF9B63" offset="100%"></stop>
        </linearGradient>
    </defs>
    <g id="Pre-Launch-Landing-Page" stroke="none" stroke-width="1" fill="none" fill-rule="evenodd">
        <g id="Desktop-HD" transform="translate(-72.000000, -443.000000)">
            <g id="school-1a-125-1455-+-Rectangle-Mask" transform="translate(-44.000000, 139.000000)">
                <g id="protractor" transform="translate(116.000000, 304.000000)">
                    <path d="M17.7777778,0.721666667 L17.7777778,0.721666667 C8.35055556,0.721666667 0.708263889,8.36388889 0.708263889,17.7911806 L0.708263889,24.2783333 L34.8472917,24.2783333 L34.8472917,17.7911806 C34.8472917,8.36395833 27.205,0.721666667 17.7777778,0.721666667 L17.7777778,0.721666667 Z M20.5043056,17.8720833 C20.5043056,16.36625 19.2836111,15.1455556 17.7777778,15.1455556 C16.2719444,15.1455556 15.05125,16.36625 15.05125,17.8720833 L7.07826389,17.8720833 C7.07826389,11.9629167 11.8686111,7.17256944 17.7777778,7.17256944 L17.7777778,7.17256944 C23.6869444,7.17256944 28.4772917,11.9629167 28.4772917,17.8720833 L20.5043056,17.8720833 L20.5043056,17.8720833 Z" id="Shape" fill="#BAE1F2"></path>
                    <path d="M29.1855556,17.8721528 C29.1855556,11.5818056 24.0680556,6.464375 17.7777778,6.464375 C11.4875,6.464375 6.37,11.5818056 6.37,17.8721528 C6.37,18.2632639 6.68715278,18.5804167 7.07826389,18.5804167 L15.05125,18.5804167 C15.4423611,18.5804167 15.7595139,18.2632639 15.7595139,17.8721528 C15.7595139,16.7593056 16.6649306,15.8538889 17.7777778,15.8538889 C18.890625,15.8538889 19.7960417,16.7593056 19.7960417,17.8721528 C19.7960417,18.2632639 20.1131944,18.5804167 20.5043056,18.5804167 L28.4772917,18.5804167 C28.8684722,18.5804167 29.1855556,18.2632639 29.1855556,17.8721528 L29.1855556,17.8721528 Z M21.1390972,17.1638889 C20.8118056,15.6086111 19.4288889,14.4373611 17.7777778,14.4373611 C16.1266667,14.4373611 14.74375,15.6085417 14.4164583,17.1638889 L7.81131944,17.1638889 C8.17583333,11.9838194 12.5066667,7.88090278 17.7777778,7.88090278 C23.0488889,7.88090278 27.3797917,11.9838889 27.7442361,17.1638889 L21.1390972,17.1638889 L21.1390972,17.1638889 Z" id="Shape" fill="#202B39"></path>
                    <path d="M30.3485417,5.22048611 C26.9907639,1.86256944 22.5264583,0.0134027778 17.7777778,0.0134027778 C13.0290972,0.0134027778 8.56479167,1.86256944 5.20701389,5.22041667 C1.84916667,8.57819444 0,13.0425694 0,17.7911806 L0,24.2783333 C0,24.6694444 0.317152778,24.9865972 0.708263889,24.9865972 L34.8472917,24.9865972 C35.2384028,24.9865972 35.5555556,24.6694444 35.5555556,24.2783333 L35.5555556,17.7911806 C35.5555556,13.0425694 33.7063889,8.57819444 30.3485417,5.22048611 L30.3485417,5.22048611 Z M1.41652778,23.57 L1.41652778,22.4497222 L26.4030556,22.4497222 C26.7941667,22.4497222 27.1113194,22.1325694 27.1113194,21.7414583 C27.1113194,21.3503472 26.7941667,21.0331944 26.4030556,21.0331944 L1.41652778,21.0331944 L1.41652778,18.5357639 L2.77402778,18.5357639 C3.16513889,18.5357639 3.48229167,18.2186111 3.48229167,17.8275 C3.48229167,17.4363889 3.16513889,17.1192361 2.77402778,17.1192361 L1.43145833,17.1192361 C1.50097222,15.4083333 1.83368056,13.7642361 2.39145833,12.2268056 L3.61729167,12.7345833 C3.70597222,12.7713194 3.79777778,12.78875 3.88805556,12.78875 C4.16597222,12.78875 4.42965278,12.6240972 4.54263889,12.3513194 C4.69236111,11.9898611 4.52076389,11.575625 4.159375,11.4259722 L2.93256944,10.9177778 C3.64013889,9.39576389 4.57423611,7.99965278 5.6925,6.77402778 L6.61638889,7.69791667 C6.75472222,7.83618056 6.93597222,7.90534722 7.11722222,7.90534722 C7.29847222,7.90534722 7.47979167,7.83618056 7.61805556,7.69791667 C7.89465278,7.42131944 7.89465278,6.97284722 7.61805556,6.69618056 L6.69173611,5.77 C7.91027778,4.64541667 9.299375,3.70347222 10.815625,2.9875 L11.3146528,4.19215278 C11.4276389,4.46493056 11.6913194,4.62958333 11.9692361,4.62958333 C12.0595139,4.62958333 12.1513889,4.61215278 12.24,4.57541667 C12.6014583,4.42576389 12.7729861,4.01138889 12.6232639,3.65006944 L12.1213889,2.43840278 C13.6526389,1.8725 15.2909028,1.52965278 16.9968056,1.44916667 L16.9968056,2.75125 C16.9968056,3.14236111 17.3139583,3.45951389 17.7050694,3.45951389 C18.0961806,3.45951389 18.4133333,3.14236111 18.4133333,2.75125 L18.4133333,1.44361111 C20.1206944,1.50916667 21.7617361,1.83722222 23.2972222,2.38916667 L22.7979861,3.59458333 C22.6483333,3.95604167 22.8199306,4.37027778 23.1813194,4.52 C23.27,4.55666667 23.3618056,4.57409722 23.4520833,4.57409722 C23.73,4.57409722 23.9936806,4.40944444 24.1067361,4.13666667 L24.6081944,2.92604167 C26.1311806,3.62868056 27.5288889,4.55791667 28.7570139,5.67145833 L27.8347917,6.59361111 C27.5581944,6.87020833 27.5581944,7.31868056 27.8347917,7.59534722 C27.973125,7.73361111 28.154375,7.80277778 28.335625,7.80277778 C28.516875,7.80277778 28.698125,7.73361111 28.8364583,7.59534722 L29.7640278,6.66784722 C30.8934028,7.88395833 31.8405556,9.27118056 32.5613889,10.7863194 L31.3404861,11.2920139 C30.9790278,11.4416667 30.8075,11.8560417 30.9572222,12.2173611 C31.0702083,12.4901389 31.3338889,12.6547917 31.6118056,12.6547917 C31.7020833,12.6547917 31.7938889,12.6373611 31.8825694,12.600625 L33.1136111,12.0906944 C33.6853472,13.6238194 34.0338889,15.2647917 34.1184028,16.9741667 L32.78125,16.9741667 C32.3901389,16.9741667 32.0729861,17.2913194 32.0729861,17.6824306 C32.0729861,18.0735417 32.3901389,18.3906944 32.78125,18.3906944 L34.1390278,18.3906944 L34.1390278,23.57 L1.41652778,23.57 L1.41652778,23.57 L1.41652778,23.57 Z" id="Shape" fill="#202B39"></path>
                    <path d="M29.5197917,21.0331944 L28.9399306,21.0331944 C28.5488194,21.0331944 28.2316667,21.3503472 28.2316667,21.7414583 C28.2316667,22.1325694 28.5488194,22.4497222 28.9399306,22.4497222 L29.5197917,22.4497222 C29.9109028,22.4497222 30.2280556,22.1325694 30.2280556,21.7414583 C30.228125,21.3503472 29.9109722,21.0331944 29.5197917,21.0331944 L29.5197917,21.0331944 Z" id="Shape" fill="#202B39"></path>
                </g>
            </g>
        </g>
    </g>
</svg>