<?xml version="1.0" encoding="UTF-8" standalone="no"?>
<svg width="23px" height="35px" viewBox="0 0 23 35" version="1.1" xmlns="http://www.w3.org/2000/svg" xmlns:xlink="http://www.w3.org/1999/xlink">
    <!-- Generator: Sketch 41.2 (35397) - http://www.bohemiancoding.com/sketch -->
    <title>push-pin</title>
    <desc>Created with Sketch.</desc>
    <defs>
        <linearGradient x1="100%" y1="0%" x2="1.11022302e-14%" y2="100%" id="linearGradient-1">
            <stop stop-color="#FF4881" offset="0%"></stop>
            <stop stop-color="#FF9B63" offset="100%"></stop>
        </linearGradient>
    </defs>
    <g id="Pre-Launch-Landing-Page" stroke="none" stroke-width="1" fill="none" fill-rule="evenodd">
        <g id="Desktop-HD" transform="translate(-638.000000, -420.000000)">
            <g id="school-1a-125-1455-+-Rectangle-Mask" transform="translate(-44.000000, 139.000000)">
                <g id="push-pin" transform="translate(682.000000, 281.000000)">
                    <path d="M15.8347656,11.7187109 L15.8391406,11.7654004 L6.85624023,11.7654004 L6.86061523,11.7187109 C3.25691406,13.4075977 0.760703125,17.0668066 0.760703125,21.309668 L21.9346777,21.309668 C21.9346777,17.0668066 19.4383984,13.4075977 15.8347656,11.7187109 L15.8347656,11.7187109 Z" id="Shape" fill="#EF5263"></path>
                    <polygon id="Shape" fill="#EF5263" points="15.8347656 11.7187109 15.0371484 3.26368164 7.65830078 3.26368164 6.86068359 11.7187109 6.85624023 11.7654004 15.8391406 11.7654004"></polygon>
                    <polygon id="Shape" fill="#EF5263" points="21.0524316 0.697197266 1.64301758 0.697197266 3.37599609 3.26368164 19.3194531 3.26368164"></polygon>
                    <polygon id="Shape" fill="#BAE1F2" points="12.7111523 34.3028027 9.98422852 31.3352539 9.98422852 21.309668 12.7111523 21.309668"></polygon>
                    <path d="M20.8209668,15.1769434 C19.7408203,13.5120508 18.249834,12.1662598 16.4921777,11.264873 L15.8031152,3.96094727 L19.3193848,3.96094727 C19.5509863,3.96094727 19.7675488,3.84589844 19.8971582,3.65387695 L21.6301367,1.08732422 C21.7744434,0.873632812 21.7890039,0.597734375 21.6680762,0.369960937 C21.5470801,0.142392578 21.3102832,0 21.0524316,0 L1.64301758,0 C1.38516602,0 1.14836914,0.142392578 1.02730469,0.370097656 C0.906308594,0.597802734 0.9209375,0.873701172 1.06524414,1.08746094 L2.79822266,3.65401367 C2.92783203,3.8459668 3.14439453,3.96108398 3.37599609,3.96108398 L6.89226563,3.96108398 L6.20327148,11.2650098 C4.44561523,12.1663965 2.95456055,13.5121875 1.87441406,15.1770801 C0.689746094,17.0032324 0.0635058594,19.123877 0.0635058594,21.3098047 C0.0635058594,21.694873 0.375703125,22.007002 0.760703125,22.007002 L9.28703125,22.007002 L9.28703125,31.3352539 C9.28703125,31.5099805 9.35265625,31.6783496 9.47091797,31.807002 L12.1977734,34.7745508 C12.3324414,34.9211133 12.5198145,35 12.7112891,35 C12.7962598,35 12.8820508,34.9844824 12.9642871,34.9523535 C13.2321191,34.8479687 13.4083496,34.5900488 13.4083496,34.3027344 L13.4083496,22.0069336 L21.9346777,22.0069336 C22.3196777,22.0069336 22.631875,21.6948047 22.631875,21.3097363 C22.6319434,19.1237402 22.0057031,17.0030957 20.8209668,15.1769434 L20.8209668,15.1769434 Z M3.74650391,2.56655273 L2.95503906,1.39439453 L19.7404102,1.39439453 L18.9489453,2.56655273 L3.74650391,2.56655273 L3.74650391,2.56655273 Z M14.4025684,3.96101562 L15.0730371,11.0682715 L7.62241211,11.0682715 L8.29288086,3.96101562 C8.29288086,3.96101562 14.4025684,3.96101562 14.4025684,3.96101562 L14.4025684,3.96101562 Z M12.0139551,32.5136328 L10.6814941,31.0635938 L10.6814941,22.0069336 L12.0139551,22.0069336 L12.0139551,32.5136328 L12.0139551,32.5136328 Z M1.4827832,20.6124707 C1.73003906,17.1511621 3.80324219,14.0266602 6.92432617,12.4625293 L15.7711914,12.4625293 C18.8922754,14.0265918 20.9654785,17.1511621 21.2127344,20.6124707 L1.4827832,20.6124707 L1.4827832,20.6124707 Z" id="Shape" fill="#202B39"></path>
                    <path d="M13.432959,18.2063574 L3.64813477,18.2063574 C3.26313477,18.2063574 2.9509375,18.5184863 2.9509375,18.9035547 C2.9509375,19.288623 3.26313477,19.600752 3.64813477,19.600752 L13.4330957,19.600752 C13.8180957,19.600752 14.130293,19.288623 14.130293,18.9035547 C14.130293,18.5184863 13.8180273,18.2063574 13.432959,18.2063574 L13.432959,18.2063574 Z" id="Shape" fill="#202B39"></path>
                    <path d="M16.4005762,18.2063574 L16.0796973,18.2063574 C15.6946973,18.2063574 15.3825,18.5184863 15.3825,18.9035547 C15.3825,19.288623 15.6946973,19.600752 16.0796973,19.600752 L16.4005762,19.600752 C16.7855762,19.600752 17.0977734,19.288623 17.0977734,18.9035547 C17.0977734,18.5184863 16.7855762,18.2063574 16.4005762,18.2063574 L16.4005762,18.2063574 Z" id="Shape" fill="#202B39"></path>
                </g>
            </g>
        </g>
    </g>
</svg>