<?xml version="1.0" encoding="UTF-8" standalone="no"?>
<svg width="35px" height="35px" viewBox="0 0 35 35" version="1.1" xmlns="http://www.w3.org/2000/svg" xmlns:xlink="http://www.w3.org/1999/xlink">
    <!-- Generator: Sketch 41.2 (35397) - http://www.bohemiancoding.com/sketch -->
    <title>ruler</title>
    <desc>Created with Sketch.</desc>
    <defs>
        <linearGradient x1="100%" y1="0%" x2="1.11022302e-14%" y2="100%" id="linearGradient-1">
            <stop stop-color="#FF4881" offset="0%"></stop>
            <stop stop-color="#FF9B63" offset="100%"></stop>
        </linearGradient>
    </defs>
    <g id="Pre-Launch-Landing-Page" stroke="none" stroke-width="1" fill="none" fill-rule="evenodd">
        <g id="Desktop-HD" transform="translate(-574.000000, -783.000000)">
            <g id="school-1a-125-1455-+-Rectangle-Mask" transform="translate(-44.000000, 139.000000)">
                <g id="ruler" transform="translate(618.000000, 644.000000)">
                    <rect id="Rectangle-path" fill="#BAE1F2" transform="translate(17.499600, 17.500233) rotate(135.000000) translate(-17.499600, -17.500233) " x="-1.61862478" y="12.856215" width="38.2364497" height="9.28803593"></rect>
                    <path d="M34.7958105,6.77195313 L28.2281152,0.204189453 C27.9557715,-0.0680859375 27.5144434,-0.0680859375 27.2420312,0.204189453 L0.204189453,27.2420996 C-0.0680859375,27.514375 -0.0680859375,27.9558398 0.204189453,28.2281152 L6.77188477,34.7958789 C6.90798828,34.9320508 7.08647461,35.0000684 7.26489258,35.0000684 C7.44331055,35.0000684 7.62179687,34.9320508 7.75790039,34.7958789 L34.7958105,7.75796875 C34.9265137,7.62726563 35,7.44994141 35,7.26496094 C35,7.07998047 34.926582,6.90265625 34.7958105,6.77195313 L34.7958105,6.77195313 Z M7.26489258,33.3167871 L1.68314453,27.7350391 L4.55287109,24.8653125 L5.59384766,25.9063574 C5.73001953,26.0425293 5.9084375,26.1105469 6.08685547,26.1105469 C6.26527344,26.1105469 6.44375977,26.0424609 6.57986328,25.9063574 C6.85213867,25.634082 6.85220703,25.1926172 6.57986328,24.9203418 L5.53881836,23.8792969 L8.40847656,21.0096387 L10.3604102,22.9615723 C10.496582,23.0977441 10.675,23.1657617 10.853418,23.1657617 C11.0318359,23.1657617 11.2103223,23.0977441 11.3464258,22.9615723 C11.6187012,22.6892969 11.6187012,22.247832 11.3464258,21.9754883 L9.39449219,20.0235547 L12.2641504,17.1538965 L13.3051953,18.1949414 C13.4413672,18.3311133 13.6197852,18.3991309 13.7982031,18.3991309 C13.9766211,18.3991309 14.1551074,18.3311133 14.2912109,18.1949414 C14.5634863,17.922666 14.5634863,17.4812012 14.2912109,17.2088574 L13.250166,16.1678125 L16.1198242,13.2981543 L18.6949902,15.8733203 C18.8311621,16.0094922 19.0095801,16.0775098 19.187998,16.0775098 C19.366416,16.0775098 19.544834,16.0094922 19.6810059,15.8733203 C19.9532812,15.6010449 19.9532812,15.1595801 19.6810059,14.8872363 L17.1058398,12.3120703 L19.9755664,9.44234375 L21.016543,10.4833887 C21.1527148,10.6195605 21.3311328,10.6875781 21.5095508,10.6875781 C21.6879687,10.6875781 21.8663867,10.6194922 22.0025586,10.4833887 C22.274834,10.2111133 22.274834,9.76964844 22.0025586,9.49737305 L20.9615137,8.45632813 L23.8312402,5.58660156 L26.4063379,8.16176758 C26.5425098,8.29793945 26.7209277,8.36595703 26.8993457,8.36595703 C27.0777637,8.36595703 27.2561816,8.29787109 27.3923535,8.16176758 C27.6646289,7.88949219 27.6646289,7.44802734 27.3923535,7.17575195 L24.8171875,4.60058594 L27.7351758,1.68300781 L33.3169238,7.26475586 L7.26489258,33.3167871 L7.26489258,33.3167871 Z" id="Shape" fill="#202B39"></path>
                    <path d="M12.8806152,23.5096777 C12.6083398,23.2374023 12.166875,23.2374023 11.8945313,23.5096777 C11.6222559,23.7819531 11.6222559,24.223418 11.8945313,24.4957617 L12.1341992,24.7354297 C12.2703711,24.8716016 12.4487891,24.9396191 12.627207,24.9396191 C12.805625,24.9396191 12.9841113,24.8716016 13.1202148,24.7354297 C13.3924902,24.4631543 13.3924902,24.0216895 13.1202148,23.7493457 L12.8806152,23.5096777 L12.8806152,23.5096777 Z" id="Shape" fill="#202B39"></path>
                </g>
            </g>
        </g>
    </g>
</svg>