<?xml version="1.0" encoding="UTF-8" standalone="no"?>
<svg width="33px" height="35px" viewBox="0 0 33 35" version="1.1" xmlns="http://www.w3.org/2000/svg" xmlns:xlink="http://www.w3.org/1999/xlink">
    <!-- Generator: Sketch 41.2 (35397) - http://www.bohemiancoding.com/sketch -->
    <title>scissors</title>
    <desc>Created with Sketch.</desc>
    <defs>
        <linearGradient x1="100%" y1="0%" x2="1.11022302e-14%" y2="100%" id="linearGradient-1">
            <stop stop-color="#FF4881" offset="0%"></stop>
            <stop stop-color="#FF9B63" offset="100%"></stop>
        </linearGradient>
    </defs>
    <g id="Pre-Launch-Landing-Page" stroke="none" stroke-width="1" fill="none" fill-rule="evenodd">
        <g id="Desktop-HD" transform="translate(-512.000000, -368.000000)">
            <g id="school-1a-125-1455-+-Rectangle-Mask" transform="translate(-44.000000, 139.000000)">
                <g id="scissors" transform="translate(556.000000, 229.000000)">
                    <path d="M21.3814522,20.4392495 L16.9573977,23.1874659 L7.44121832,7.86824561 C5.92339181,5.42486355 6.67374269,2.21373294 9.11705653,0.695906433 L9.11705653,0.695906433 L21.3814522,20.4392495 L21.3814522,20.4392495 Z" id="Shape" fill="#BAE1F2"></path>
                    <path d="M21.3681481,20.4475049 L16.9573294,23.1874659 L22.2979337,31.7848441 C23.8111891,34.2209259 27.0126998,34.9688889 29.4486452,33.4557018 L29.4486452,33.4557018 C31.8847271,31.9424464 32.6326901,28.7409357 31.1195029,26.3049903 L28.5188596,22.118499 C27.0056725,19.6824172 23.8041618,18.9343177 21.3681481,20.4475049 L21.3681481,20.4475049 Z M28.5883821,27.4743177 C29.2952047,28.612193 28.9458187,30.1075731 27.8079435,30.8143275 L27.8079435,30.8143275 C26.6700682,31.5211501 25.1746881,31.1717641 24.4678655,30.0338889 L22.2284113,26.4287524 C21.5215887,25.2908772 21.8709747,23.7954971 23.0088499,23.0887427 L23.0088499,23.0887427 C24.1467251,22.3819201 25.6421053,22.731306 26.3488596,23.8691813 L28.5883821,27.4743177 L28.5883821,27.4743177 Z" id="Shape" fill="#E8655A"></path>
                    <path d="M11.2307018,20.4392495 L15.6547563,23.1874659 L25.1709357,7.86824561 C26.688694,5.42486355 25.9384113,2.21373294 23.4950292,0.695906433 L23.4950292,0.695906433 L11.2307018,20.4392495 L11.2307018,20.4392495 Z" id="Shape" fill="#BAE1F2"></path>
                    <path d="M4.09322612,22.1183626 L1.49258285,26.3048538 C-0.0206725146,28.7409357 0.727426901,31.9423782 3.16344055,33.4555653 L3.16344055,33.4555653 C5.59952242,34.9688207 8.80096491,34.2207212 10.314152,31.7847076 L15.6547563,23.1873294 L11.2439376,20.4473684 C8.8079922,18.9343177 5.60641326,19.6824172 4.09322612,22.1183626 L4.09322612,22.1183626 Z M6.26322612,23.8692495 C6.97004873,22.7313743 8.46542885,22.3819883 9.60330409,23.0888109 L9.60330409,23.0888109 C10.7411793,23.7956335 11.0905653,25.2910136 10.3837427,26.4288207 L8.1442885,30.0339571 C7.43746589,31.1718324 5.94208577,31.5212183 4.80421053,30.8143957 L4.80421053,30.8143957 C3.66633528,30.1075731 3.31694932,28.612193 4.02377193,27.474386 L6.26322612,23.8692495 L6.26322612,23.8692495 Z" id="Shape" fill="#E8655A"></path>
                    <path d="M13.7406043,10.945039 L13.4874854,10.5376608 C13.2848538,10.2112671 12.8557797,10.1109747 12.5291813,10.3138109 C12.2027193,10.5166472 12.1024951,10.945653 12.3053314,11.272115 L12.5584503,11.6794932 C12.6902632,11.8916082 12.9175244,12.0082066 13.1502437,12.0082066 C13.275575,12.0082066 13.4024756,11.9742982 13.5168226,11.9033431 C13.8432164,11.7005068 13.9433723,11.2714327 13.7406043,10.945039 L13.7406043,10.945039 Z" id="Shape" fill="#202B39"></path>
                    <path d="M31.710614,25.9376608 L29.1099708,21.7511696 C27.5238499,19.197807 24.2887037,18.2815302 21.6288402,19.5187427 L20.1909064,17.2038986 L25.7620468,8.2354386 C27.4799123,5.47002924 26.6276316,1.82272904 23.8622222,0.104795322 C23.7055068,0.00743664717 23.5165205,-0.0236744639 23.3366764,0.0182846004 C23.1569006,0.0603118908 23.001345,0.171929825 22.9039181,0.32871345 L16.3060429,10.9500877 L9.70816764,0.32871345 C9.61080897,0.171929825 9.45511696,0.0603118908 9.27540936,0.0182846004 C9.09570175,-0.0237426901 8.90657895,0.00743664717 8.74986355,0.104795322 C5.98452242,1.82266082 5.13224172,5.47002924 6.85003899,8.2354386 L12.4212476,17.2039669 L10.9833138,19.5188109 C8.32345029,18.2815302 5.08823587,19.197807 3.50218324,21.7512378 L0.901539961,25.937729 C-0.811754386,28.6958382 0.0382066277,32.3335185 2.79631579,34.0468129 C3.76116959,34.6461793 4.83368421,34.9318421 5.89391813,34.9318421 C7.86415205,34.9318421 9.79160819,33.9452242 10.9054678,32.152037 L16.2460039,23.5547271 L16.3061793,23.4577778 L16.3663548,23.5547271 L21.7068908,32.152037 C22.8208869,33.9453606 24.7480019,34.9318421 26.7184405,34.9318421 C27.7784016,34.9318421 28.8511891,34.6461111 29.8159747,34.0468129 C32.5739474,32.3334503 33.4239084,28.69577 31.710614,25.9376608 L31.710614,25.9376608 Z M20.4230799,20.2153314 L17.7948733,21.8479825 L17.1813158,22.2290936 L17.1253021,22.1388986 L19.3717154,18.5226413 L20.4230799,20.2153314 L20.4230799,20.2153314 Z M8.03232943,7.50105263 C7.29487329,6.3138499 7.17766082,4.91412281 7.59070175,3.68236842 L11.046423,9.24545809 C11.1782359,9.45764133 11.4054971,9.57423977 11.6382164,9.57423977 C11.7635478,9.57423977 11.8903801,9.54033138 12.0047271,9.46937622 C12.3311891,9.26653996 12.4315497,8.83753411 12.2286452,8.51107212 L8.35817739,2.28038986 C8.52608187,2.07264133 8.71404483,1.87806043 8.92138402,1.6998538 L15.4867836,12.2689669 L13.2403704,15.8852242 L8.03232943,7.50105263 L8.03232943,7.50105263 Z M23.6907018,1.6998538 C23.8980409,1.87812865 24.0860721,2.07264133 24.2539084,2.28038986 L21.6461696,6.47834308 C21.4433333,6.80480507 21.5436257,7.23387914 21.8700877,7.43664717 C21.9844347,7.50767057 22.1112671,7.54151072 22.2365984,7.54151072 C22.4693177,7.54151072 22.6965789,7.42491228 22.8283918,7.21272904 L25.0214522,3.68230019 C25.4345614,4.91405458 25.3172807,6.31378168 24.5798246,7.50098441 L15.43077,22.2290936 L12.1890058,20.2153314 L23.6907018,1.6998538 L23.6907018,1.6998538 Z M9.72310916,31.4175828 C8.87239766,32.7870175 7.40069201,33.5405068 5.89603314,33.5403704 C5.08659844,33.5403704 4.26733918,33.3221832 3.53063353,32.8645224 C1.42449318,31.5561501 0.77545809,28.7783236 2.08376218,26.672115 L4.68440546,22.4856238 C5.99277778,20.3794152 8.77060429,19.7303801 10.8768129,21.0387524 L14.6964522,23.4114522 L9.72310916,31.4175828 L9.72310916,31.4175828 Z M29.0815205,32.8645224 C26.9751754,34.1728947 24.1972807,33.523655 22.8890448,31.4176511 L17.91577,23.4114522 L21.7354094,21.0387524 C23.8416179,19.7303801 26.6195127,20.3795517 27.9278168,22.4856238 L30.52846,26.672115 C31.8366277,28.7782554 31.1875926,31.5561501 29.0815205,32.8645224 L29.0815205,32.8645224 Z" id="Shape" fill="#202B39"></path>
                    <path d="M26.940039,23.5019883 C26.500117,22.7938012 25.810692,22.2992982 24.9988694,22.1095614 C24.1870468,21.9198246 23.3499123,22.0576413 22.6416569,22.4975634 C21.1796394,23.4057895 20.7291423,25.3340643 21.6373002,26.7959454 L23.8767544,30.4010819 C24.4672515,31.3516764 25.4888012,31.8746296 26.5332749,31.8745614 C27.095117,31.8745614 27.6637817,31.7231676 28.1751365,31.4054386 C29.637154,30.4972125 30.0876511,28.5689376 29.1794932,27.1070565 L26.940039,23.5019883 L26.940039,23.5019883 Z M27.4407505,30.2232164 C26.6306335,30.726384 25.5623489,30.4768811 25.0589084,29.6666277 L22.8194542,26.0614912 C22.3163548,25.2513743 22.5658577,24.1830214 23.3759747,23.6797856 C23.6534503,23.5074464 23.9666082,23.4187524 24.2852924,23.4187524 C24.4173099,23.4187524 24.5503509,23.4339669 24.6820955,23.4647368 C25.1319103,23.5698733 25.5139084,23.8438694 25.7576803,24.236306 L27.9972027,27.8414425 C28.5004386,28.6516277 28.2508674,29.7200487 27.4407505,30.2232164 L27.4407505,30.2232164 Z" id="Shape" fill="#202B39"></path>
                    <path d="M9.97042885,22.4976316 C9.26230994,22.0577778 8.42517544,21.9198246 7.61321637,22.1096296 C6.80139376,22.2992982 6.11203704,22.7938012 5.67211501,23.5019883 L3.43259259,27.1071248 C2.52436647,28.5690058 2.975,30.4972807 4.43694932,31.4055068 C4.94844055,31.7231676 5.51690058,31.8746296 6.07881092,31.8746296 C7.12321637,31.8746296 8.14483431,31.3516082 8.73533138,30.4011501 L10.9747856,26.7960136 C11.8830117,25.3340643 11.4323782,23.4058577 9.97042885,22.4976316 L9.97042885,22.4976316 Z M9.79256335,26.0615595 L7.55310916,29.6666959 C7.04980507,30.4769493 5.98138402,30.726384 5.17126706,30.2232846 C4.3611501,29.720117 4.11157895,28.6516959 4.61474659,27.8415789 L6.85426901,24.2364425 L6.85426901,24.2364425 C7.09804094,23.8440058 7.48003899,23.570078 7.9298538,23.4649415 C8.06173489,23.4341715 8.19463938,23.4189571 8.32665692,23.4189571 C8.64534113,23.4189571 8.95849903,23.5075828 9.23597466,23.6799903 C10.0460916,24.1831579 10.295731,25.2515789 9.79256335,26.0615595 L9.79256335,26.0615595 Z" id="Shape" fill="#202B39"></path>
                    <path d="M16.3943957,18.2030019 C16.7786452,18.2030019 17.0903021,17.8914815 17.0903021,17.5070955 L17.0903021,16.8852144 C17.0903021,16.5008967 16.7786452,16.189308 16.3943957,16.189308 C16.0101462,16.189308 15.6984893,16.5008285 15.6984893,16.8852144 L15.6984893,17.5070955 C15.6984893,17.8914133 16.0101462,18.2030019 16.3943957,18.2030019 L16.3943957,18.2030019 Z" id="Shape" fill="#202B39"></path>
                </g>
            </g>
        </g>
    </g>
</svg>