<?xml version="1.0" encoding="UTF-8" standalone="no"?>
<svg width="21px" height="30px" viewBox="0 0 21 30" version="1.1" xmlns="http://www.w3.org/2000/svg" xmlns:xlink="http://www.w3.org/1999/xlink">
    <!-- Generator: Sketch 41.2 (35397) - http://www.bohemiancoding.com/sketch -->
    <title>sharpener</title>
    <desc>Created with Sketch.</desc>
    <defs>
        <linearGradient x1="100%" y1="0%" x2="1.11022302e-14%" y2="100%" id="linearGradient-1">
            <stop stop-color="#FF4881" offset="0%"></stop>
            <stop stop-color="#FF9B63" offset="100%"></stop>
        </linearGradient>
    </defs>
    <g id="Pre-Launch-Landing-Page" stroke="none" stroke-width="1" fill="none" fill-rule="evenodd">
        <g id="Desktop-HD" transform="translate(-617.000000, -239.000000)">
            <g id="school-1a-125-1455-+-Rectangle-Mask" transform="translate(-44.000000, 139.000000)">
                <g id="sharpener" transform="translate(661.000000, 100.000000)">
                    <rect id="Rectangle-path" fill="#EF5263" x="0.613769531" y="0.597597656" width="18.9287109" height="28.8048047"></rect>
                    <path d="M3.63392578,0.597597656 L3.63392578,16.843125 C3.63392578,19.0381055 4.73162109,20.9763867 6.40769531,22.14 L6.40769531,0.597597656 L3.63392578,0.597597656 L3.63392578,0.597597656 Z" id="Shape" fill="#EFF7FE"></path>
                    <path d="M6.40769531,0.597597656 L6.40769531,22.14 C7.44925781,22.8631641 8.71412109,23.2873242 10.078125,23.2873242 L10.078125,23.2873242 C13.637168,23.2873242 16.5223242,20.4021094 16.5223242,16.843125 L16.5223242,0.597597656 L6.40769531,0.597597656 L6.40769531,0.597597656 Z" id="Shape" fill="#BAE1F2"></path>
                    <ellipse id="Oval" fill="#ADB1B9" cx="10.3374609" cy="11.7035742" rx="1.53773438" ry="1.53773438"></ellipse>
                    <path d="M0.613710937,0 C0.283710937,0 0.0161132812,0.267597656 0.0161132812,0.597597656 L0.0161132812,29.4024023 C0.0161132812,29.7324023 0.283710938,30 0.613710937,30 L19.5425391,30 C19.8725391,30 20.1401367,29.7324023 20.1401367,29.4024023 L20.1401367,0.597597656 C20.1401367,0.267597656 19.8725391,0 19.5425391,0 L0.613710937,0 L0.613710937,0 Z M7.00523438,1.19519531 L15.9247266,1.19519531 L15.9247266,16.843125 C15.9247266,20.0669531 13.3019531,22.6897266 10.078125,22.6897266 C8.98347656,22.6897266 7.92744141,22.3891406 7.00523438,21.8176758 L7.00523438,1.19519531 L7.00523438,1.19519531 Z M5.80998047,1.19519531 L5.80998047,20.8379297 C4.80632813,19.764668 4.23152344,18.3400781 4.23152344,16.843125 L4.23152344,1.19519531 L5.80998047,1.19519531 L5.80998047,1.19519531 Z M18.9449414,28.8048047 L1.21130859,28.8048047 L1.21130859,27.8486133 L11.5123828,27.8486133 C11.8423828,27.8486133 12.1099805,27.5810156 12.1099805,27.2510156 C12.1099805,26.9210156 11.8423828,26.653418 11.5123828,26.653418 L1.21130859,26.653418 L1.21130859,1.19519531 L3.03626953,1.19519531 L3.03626953,16.843125 C3.03626953,19.1498437 4.16917969,21.3134766 6.06673828,22.630957 C7.24839844,23.4513281 8.63548828,23.8849219 10.0780664,23.8849219 C13.960957,23.8849219 17.1198633,20.7260156 17.1198633,16.843125 L17.1198633,1.19519531 L18.9448242,1.19519531 L18.9449414,28.8048047 L18.9449414,28.8048047 L18.9449414,28.8048047 Z" id="Shape" fill="#202B39"></path>
                    <path d="M12.4726172,11.7032812 C12.4726172,10.5258984 11.5147852,9.56794922 10.3373437,9.56794922 C9.15990234,9.56794922 8.20201172,10.5258398 8.20201172,11.7032812 C8.20201172,12.8807227 9.15990234,13.8386133 10.3373437,13.8386133 C11.5147852,13.8386133 12.4726172,12.8807227 12.4726172,11.7032812 L12.4726172,11.7032812 Z M9.39720703,11.7032812 C9.39720703,11.1848437 9.81896484,10.7632031 10.3372852,10.7632031 C10.8556641,10.7632031 11.2773047,11.1849609 11.2773047,11.7032812 C11.2773047,12.2216016 10.8555469,12.6433594 10.3372852,12.6433594 C9.81896484,12.6433594 9.39720703,12.2217187 9.39720703,11.7032812 L9.39720703,11.7032812 Z" id="Shape" fill="#202B39"></path>
                    <path d="M13.8430664,26.6533594 L13.5442383,26.6533594 C13.2142383,26.6533594 12.9466406,26.920957 12.9466406,27.250957 C12.9466406,27.580957 13.2142383,27.8485547 13.5442383,27.8485547 L13.8430664,27.8485547 C14.1730664,27.8485547 14.4406641,27.580957 14.4406641,27.250957 C14.4406641,26.920957 14.1730664,26.6533594 13.8430664,26.6533594 L13.8430664,26.6533594 Z" id="Shape" fill="#202B39"></path>
                </g>
            </g>
        </g>
    </g>
</svg>