<?xml version="1.0" encoding="UTF-8" standalone="no"?>
<svg width="30px" height="30px" viewBox="0 0 30 30" version="1.1" xmlns="http://www.w3.org/2000/svg" xmlns:xlink="http://www.w3.org/1999/xlink">
    <!-- Generator: Sketch 41.2 (35397) - http://www.bohemiancoding.com/sketch -->
    <title>stapler-remover</title>
    <desc>Created with Sketch.</desc>
    <defs>
        <linearGradient x1="100%" y1="0%" x2="1.11022302e-14%" y2="100%" id="linearGradient-1">
            <stop stop-color="#FF4881" offset="0%"></stop>
            <stop stop-color="#FF9B63" offset="100%"></stop>
        </linearGradient>
    </defs>
    <g id="Pre-Launch-Landing-Page" stroke="none" stroke-width="1" fill="none" fill-rule="evenodd">
        <g id="Desktop-HD" transform="translate(-55.000000, -763.000000)">
            <g id="school-1a-125-1455-+-Rectangle-Mask" transform="translate(-44.000000, 139.000000)">
                <g id="stapler-remover" transform="translate(99.000000, 624.000000)">
                    <rect id="Rectangle-path" fill="#F95265" transform="translate(13.622483, 23.214664) rotate(201.641815) translate(-13.622483, -23.214664) " x="0.315247301" y="21.8381027" width="26.6144705" height="2.75312208"></rect>
                    <path d="M28.5754687,21.6108984 L25.2598828,22.3359375 L13.4308008,17.6425781 L10.8642773,13.9913086 L6.91171875,12.4230469 C5.32552734,11.7936914 3.52957031,12.5694141 2.90021484,14.1554883 L2.90021484,14.1554883 C2.27085937,15.7416797 3.04658203,17.5376367 4.63265625,18.1669922 L26.4994922,26.8429687 L28.5754687,21.6108984 L28.5754687,21.6108984 Z" id="Shape" fill="#BAE1F2"></path>
                    <rect id="Rectangle-path" fill="#F95265" transform="translate(13.366612, 7.136874) rotate(156.639653) translate(-13.366612, -7.136874) " x="0.0599858292" y="5.7603754" width="26.6132532" height="2.75299818"></rect>
                    <path d="M28.3610742,8.29277344 L25.025332,7.66746094 L13.3421484,12.7132031 L10.8861914,16.4397656 L6.98238281,18.1257422 C5.41582031,18.8022656 3.59736328,18.0808008 2.92083984,16.5142383 L2.92083984,16.5142383 C2.24431641,14.9476758 2.96578125,13.1292187 4.53234375,12.4526953 L26.1292383,3.12521484 L28.3610742,8.29277344 L28.3610742,8.29277344 Z" id="Shape" fill="#BAE1F2"></path>
                    <ellipse id="Oval" fill="#E6E6E6" cx="5.75525391" cy="15.2556445" rx="0.901757812" ry="0.901757812"></ellipse>
                    <path d="M29.1309375,21.8312109 C29.2124414,21.6258984 29.1739453,21.3923437 29.0309766,21.2239453 C28.8878906,21.0556641 28.6637109,20.9799609 28.4478516,21.0270117 L25.310625,21.7130859 L13.8171094,17.1529102 L12.4311914,15.1812305 L13.7428125,13.1910352 L25.0945312,8.2884375 L28.250918,8.88011719 C28.4678906,8.92078125 28.6899023,8.83845703 28.827832,8.66583984 C28.9657617,8.49316406 28.997168,8.25861328 28.9095703,8.05582031 L25.58625,0.360703125 C25.5234375,0.215214844 25.4053711,0.100546875 25.2580664,0.0421875 C25.1107031,-0.0162890625 24.9462305,-0.0138867188 24.8007422,0.048984375 L0.367148437,10.6013672 C0.221660156,10.6642383 0.107050781,10.7822461 0.0486328125,10.9296094 C-0.00978515625,11.0769141 -0.0073828125,11.2414453 0.0554296875,11.386875 L1.14714844,13.9144922 C1.24464844,14.1402539 1.46478516,14.2753125 1.69605469,14.2753125 C1.77509766,14.2753125 1.85548828,14.2594922 1.93271484,14.2262109 L2.27689453,14.0775586 C1.9996875,14.8730273 1.99212891,15.7644141 2.31287109,16.6035937 L1.98117187,16.4719922 C1.83380859,16.413457 1.66933594,16.415918 1.52384766,16.4787891 C1.37835937,16.5416602 1.26375,16.659668 1.20533203,16.8070312 L0.189960937,19.3662305 C0.068203125,19.6729687 0.218261719,20.0203125 0.525058594,20.1420703 L25.2638672,29.9575195 C25.3361719,29.9862305 25.4107617,29.9998242 25.4840625,29.9998242 C25.7218359,29.9998242 25.9467187,29.8568555 26.039707,29.6224805 L29.1309375,21.8312109 L29.1309375,21.8312109 Z M2.00742188,12.8920312 L1.38966797,11.4616406 L24.7259766,1.38322266 L25.3437305,2.81355469 L2.00742188,12.8920312 L2.00742188,12.8920312 Z M25.8175781,3.91083984 L27.3669727,7.49841797 L25.1352539,7.08005859 C25.0182422,7.05814453 24.8974805,7.0715625 24.7882031,7.11878906 L13.1050781,12.1645312 C12.9981445,12.2106445 12.9070898,12.2871094 12.8430469,12.3843164 L10.4852344,15.9618164 L6.7453125,17.5769531 C5.48378906,18.121875 4.01414062,17.5386328 3.46927734,16.277168 C2.92470703,15.0161719 3.50712891,13.5472852 4.76753906,13.0018945 L25.8175781,3.91083984 L25.8175781,3.91083984 Z M25.7237109,27.178125 L25.1491406,28.6263281 L1.52126953,19.2515625 L2.09583984,17.8033594 L25.7237109,27.178125 L25.7237109,27.178125 Z M7.36886719,18.609668 L11.1230859,16.9883203 C11.2300195,16.942207 11.3210742,16.8657422 11.3851172,16.7685352 L11.7242578,16.2539648 L12.9418945,17.9862305 C13.0088672,18.0815039 13.1021484,18.1550391 13.2103711,18.1980469 L25.0394531,22.8914062 C25.1500781,22.935293 25.27125,22.9450781 25.3875,22.9197656 L27.605625,22.434668 L26.1643945,26.0670703 L7.36886719,18.609668 L7.36886719,18.609668 Z" id="Shape" fill="#202B39"></path>
                    <path d="M24.8487305,6.09580078 C24.9277734,6.09580078 25.0081641,6.07998047 25.0853906,6.04669922 L25.5004688,5.86740234 C25.803457,5.73650391 25.9429688,5.38482422 25.8121289,5.08177734 C25.6812305,4.77873047 25.3294922,4.63927734 25.0265039,4.77005859 L24.6114258,4.94935547 C24.3084375,5.08025391 24.1689258,5.43193359 24.2997656,5.73498047 C24.3973828,5.96074219 24.6174609,6.09580078 24.8487305,6.09580078 L24.8487305,6.09580078 Z" id="Shape" fill="#202B39"></path>
                    <path d="M16.9805273,9.49394531 C17.0595703,9.49394531 17.1399609,9.478125 17.2171875,9.44484375 L23.2529883,6.83806641 C23.5559766,6.70716797 23.6954883,6.35548828 23.564707,6.05244141 C23.4338086,5.74945312 23.0820703,5.61 22.779082,5.74072266 L16.7432812,8.3475 C16.440293,8.47839844 16.3007812,8.83007812 16.4315625,9.133125 C16.5290625,9.35888672 16.7492578,9.49394531 16.9805273,9.49394531 L16.9805273,9.49394531 Z" id="Shape" fill="#202B39"></path>
                    <path d="M5.20212891,16.6489453 C5.38294922,16.7207227 5.56951172,16.754707 5.75326172,16.754707 C6.35009766,16.754707 6.91558594,16.3958203 7.14873047,15.8082422 C7.45365234,15.0399023 7.07648438,14.1666211 6.30802734,13.8616406 C5.5396875,13.5566602 4.66628906,13.9338867 4.36142578,14.7022852 C4.21371094,15.0745313 4.21980469,15.4820508 4.37859375,15.8497266 C4.53738281,16.2174609 4.82982422,16.5012891 5.20212891,16.6489453 L5.20212891,16.6489453 Z M5.47236328,15.1430859 C5.51970703,15.0239063 5.634375,14.9511328 5.75542969,14.9511328 C5.79263672,14.9511328 5.83048828,14.9579883 5.86716797,14.9725195 C6.02308594,15.0343945 6.09960938,15.211582 6.03779297,15.3674414 C5.97591797,15.5232422 5.79890625,15.5998242 5.64287109,15.5380078 C5.54097656,15.4975781 5.49451172,15.4190625 5.47582031,15.3758789 C5.4571875,15.3327539 5.43193359,15.2450391 5.47236328,15.1430859 L5.47236328,15.1430859 Z" id="Shape" fill="#202B39"></path>
                </g>
            </g>
        </g>
    </g>
</svg>