<?xml version="1.0" standalone="no"?>
<!DOCTYPE svg PUBLIC "-//W3C//DTD SVG 20010904//EN"
 "http://www.w3.org/TR/2001/REC-SVG-20010904/DTD/svg10.dtd">
<svg version="1.0" xmlns="http://www.w3.org/2000/svg"
 width="260.000000pt" height="260.000000pt" viewBox="0 0 260.000000 260.000000"
 preserveAspectRatio="xMidYMid meet">
<metadata>
Created by potrace 1.11, written by Peter Selinger 2001-2013
</metadata>
<g transform="translate(0.000000,260.000000) scale(0.100000,-0.100000)"
fill="#000000" stroke="none">
<path d="M975 2166 c-103 -25 -234 -98 -322 -179 -46 -42 -47 -42 -58 28 -10
60 -34 104 -66 121 -70 36 -371 -22 -405 -78 -4 -6 -8 -100 -10 -207 -1 -112
-11 -273 -22 -376 -62 -557 -96 -934 -87 -961 7 -19 25 -37 55 -52 42 -22 55
-23 190 -20 164 4 202 16 224 71 8 18 37 268 65 556 l52 525 30 37 c76 97 151
138 247 139 71 0 126 -20 144 -54 28 -51 26 -96 -23 -575 -27 -267 -52 -518
-55 -556 l-7 -71 36 -31 c45 -39 88 -46 244 -41 126 4 169 17 197 61 11 15 30
180 66 557 l51 535 35 41 c76 93 150 134 244 134 101 0 144 -29 164 -112 3
-15 -3 -114 -14 -220 -11 -106 -30 -285 -41 -398 -32 -299 -14 -410 80 -513
24 -26 66 -56 104 -73 57 -27 71 -29 182 -29 118 0 122 1 190 35 44 22 78 47
91 67 25 38 48 171 42 248 -3 56 3 53 -105 39 -47 -6 -54 -4 -77 19 -35 35
-34 68 10 479 42 387 47 537 22 618 -35 114 -112 191 -223 226 -78 25 -247 30
-325 10 -119 -30 -255 -104 -347 -189 l-41 -38 -12 35 c-28 86 -139 170 -258
195 -68 14 -203 13 -267 -3z"/>
</g>
</svg>
