<svg width="200" height="32" viewBox="0 0 200 32" xmlns="http://www.w3.org/2000/svg"><title>logo</title><path d="M32.958 27.566c.042.056.063.168.063.336 0 .588-.084 1.3-.252 2.14-.084.615-.461 1.084-1.133 1.406a4.799 4.799 0 0 1-2.098.482c-1.538 0-2.692-.392-3.461-1.175-.77-.783-1.154-2.014-1.154-3.692 0-.448.21-2.615.63-6.504l.419-4.28c0-1.678-.867-2.517-2.601-2.517-.84 0-1.672.329-2.497.986-.825.658-1.517 1.602-2.077 2.832l-1.3 12.965c-.084.784-.854 1.175-2.308 1.175h-.84c-.699 0-1.223-.112-1.573-.335-.35-.224-.524-.49-.524-.798.14-1.454.384-3.797.734-7.028.35-3.23.594-5.657.734-7.28 0-1.678-.867-2.517-2.601-2.517-.84 0-1.671.329-2.497.986-.825.658-1.517 1.602-2.077 2.832l-1.3 12.965c-.084.784-.853 1.175-2.308 1.175h-.84c-.698 0-1.223-.112-1.573-.335-.35-.224-.524-.49-.524-.798l.755-7.384c.616-5.707.923-9.035.923-9.986l-.042-2.014c0-.42.399-.741 1.196-.965.797-.224 1.713-.336 2.748-.336.448 0 .77.308.965.923.196.616.294 1.329.294 2.14.783-1.035 1.783-1.888 3-2.56 1.217-.67 2.44-1.006 3.671-1.006 3.05 0 4.84 1.23 5.371 3.692.755-1.091 1.762-1.98 3.021-2.664 1.259-.686 2.546-1.028 3.86-1.028 3.693 0 5.539 1.79 5.539 5.37-.056.672-.14 1.567-.252 2.686a223.91 223.91 0 0 0-.294 3.146c-.363 3.273-.545 5.147-.545 5.623 0 .56.112.95.335 1.175.224.223.56.335 1.007.335.224 0 .455-.042.693-.126.238-.084.398-.125.482-.125.112 0 .19.027.231.083zM45.72 1.175l-.335 3.105c-.084.783-.84 1.175-2.266 1.175h-.923c-.727 0-1.273-.105-1.637-.315-.363-.21-.545-.483-.545-.818l.336-3.105c.084-.783.853-1.175 2.307-1.175h.965c1.399 0 2.098.378 2.098 1.133zm-1.09 9.608c-.168 1.539-.476 4.42-.924 8.644-.447 4.223-.671 6.49-.671 6.797 0 .56.112.95.336 1.175.223.223.56.335 1.007.335.223 0 .454-.042.692-.126.238-.084.399-.125.482-.125.112 0 .19.027.231.083.042.056.063.168.063.336 0 .588-.07 1.3-.21 2.14-.112.615-.503 1.084-1.174 1.406a4.799 4.799 0 0 1-2.098.482c-3.077 0-4.616-1.608-4.616-4.825 0-.588.231-3.063.693-7.427.461-4.363.776-7.328.944-8.895.084-.783.867-1.175 2.35-1.175h.796c1.4 0 2.098.392 2.098 1.175zM58.796 1.05c-.28 2.573-.783 7.35-1.51 14.329-.728 6.979-1.091 10.594-1.091 10.846 0 .56.119.95.356 1.175.238.223.58.335 1.028.335.224 0 .455-.042.693-.126.237-.084.398-.125.482-.125.112 0 .19.027.231.083.042.056.063.168.063.336 0 .42-.084 1.133-.252 2.14-.084.615-.468 1.084-1.154 1.406a4.934 4.934 0 0 1-2.119.482c-1.51 0-2.65-.392-3.42-1.175-.768-.783-1.153-2.014-1.153-3.692 0-.587.308-3.853.923-9.797a1345.77 1345.77 0 0 1 1.595-14.749l.125-1.384c.056-.392.245-.678.567-.86C54.483.09 54.979 0 55.65 0h1.342c1.203 0 1.804.35 1.804 1.049zm14 .126l-.335 3.105c-.084.783-.84 1.175-2.266 1.175h-.923c-.728 0-1.273-.105-1.637-.315-.363-.21-.545-.483-.545-.818l.336-3.105C67.51.434 68.28.042 69.734.042h.965c1.399 0 2.098.378 2.098 1.133zm-1.09 9.608c-.169 1.539-.476 4.42-.924 8.644-.447 4.223-.671 6.49-.671 6.797 0 .56.112.95.336 1.175.223.223.559.335 1.007.335.223 0 .454-.042.692-.126.238-.084.398-.125.482-.125.112 0 .19.027.231.083.042.056.063.168.063.336 0 .588-.07 1.3-.21 2.14-.112.615-.503 1.084-1.175 1.406a4.799 4.799 0 0 1-2.097.482c-3.077 0-4.616-1.608-4.616-4.825 0-.588.23-3.063.692-7.427.462-4.363.777-7.328.945-8.895.083-.783.867-1.175 2.35-1.175h.796c1.399 0 2.098.392 2.098 1.175zm18.195-.818c1.23.378 1.846.958 1.846 1.741 0 .42-.238.986-.713 1.7-.476.713-.881 1.07-1.217 1.07-.14 0-.391-.07-.755-.21-1.035-.448-2-.672-2.895-.672-.923 0-1.63.196-2.119.588-.49.391-.734.923-.734 1.594 0 .588.216 1.063.65 1.427.434.363 1.224.839 2.37 1.426 1.651.84 2.896 1.707 3.735 2.602.84.895 1.259 2.126 1.259 3.692 0 2.126-.77 3.825-2.308 5.098-1.538 1.273-3.566 1.91-6.084 1.91-1.482 0-2.874-.218-4.175-.651-1.3-.434-1.95-1.056-1.95-1.867 0-1.147.111-1.965.335-2.455.224-.49.447-.734.671-.734.112 0 .35.112.713.335.644.336 1.273.616 1.889.84.615.223 1.328.335 2.14.335 1.062 0 1.895-.224 2.496-.671.601-.448.902-1.035.902-1.762a2.01 2.01 0 0 0-.44-1.301 3.628 3.628 0 0 0-1.028-.881 56.02 56.02 0 0 0-1.889-1.007c-1.035-.56-1.874-1.077-2.517-1.553a5.607 5.607 0 0 1-1.574-1.804c-.405-.727-.608-1.622-.608-2.685 0-2.042.762-3.664 2.287-4.867 1.524-1.203 3.447-1.804 5.769-1.804 1.399 0 2.713.188 3.944.566zm15.343-4.427l-.42 4.154h2.853c.28 0 .462.063.546.19.084.125.126.342.126.65 0 .727-.19 1.475-.567 2.244-.377.77-.93 1.154-1.657 1.154h-1.762c-.14 1.23-.357 3.203-.65 5.916a254.771 254.771 0 0 0-.61 6.126c0 1.175.518 1.762 1.553 1.762.448 0 .819-.049 1.112-.147.294-.097.483-.146.567-.146.223 0 .335.153.335.461 0 .476-.084 1.189-.251 2.14-.112.643-.504 1.119-1.175 1.427a5.288 5.288 0 0 1-2.224.461c-1.566 0-2.818-.406-3.755-1.217-.937-.81-1.406-2.14-1.406-3.986 0-.447.182-2.384.546-5.81.363-3.428.615-5.756.755-6.987h-1.3c-.337 0-.581-.112-.735-.336-.154-.223-.23-.573-.23-1.049 0-1.902.46-2.853 1.384-2.853h1.3l.462-4.154c.084-.783.853-1.174 2.308-1.174h.797c1.398 0 2.098.391 2.098 1.174zm28.014 22.364c0 .42-.084 1.133-.252 2.14-.112.615-.504 1.084-1.175 1.406a4.799 4.799 0 0 1-2.098.482c-2.63 0-4.126-1.189-4.49-3.566-.67 1.119-1.53 2-2.58 2.643a6.348 6.348 0 0 1-3.377.965c-1.958 0-3.595-.762-4.91-2.287-1.314-1.524-1.971-3.797-1.971-6.818 0-2.63.405-4.965 1.216-7.007.812-2.042 1.944-3.63 3.399-4.762 1.455-1.133 3.133-1.7 5.035-1.7 1.09 0 2.077.231 2.958.693.881.461 1.615.986 2.203 1.573.196-.587.356-1.007.482-1.258.126-.252.336-.441.63-.567.293-.126.734-.189 1.321-.189h.42c1.287 0 1.93.322 1.93.965l-.294 2.895c-.867 8.112-1.3 12.35-1.3 12.714 0 .587.111.986.335 1.196.224.21.56.314 1.007.314.224 0 .455-.042.693-.126.237-.084.398-.125.482-.125.224 0 .336.14.336.42zm-6.797-12.923c-1.063-.895-2.182-1.343-3.357-1.343-1.818 0-3.168.79-4.05 2.371-.88 1.58-1.32 3.755-1.32 6.524 0 3.385 1.104 5.077 3.314 5.077.811 0 1.608-.342 2.392-1.028.783-.685 1.44-1.713 1.972-3.083l.42-4.154.209-2.266c.056-.448.196-1.147.42-2.098zm31.35 12.587c.041.056.062.168.062.336 0 .588-.084 1.3-.252 2.14-.084.615-.461 1.084-1.132 1.406a4.799 4.799 0 0 1-2.098.482c-2.714 0-4.224-1.23-4.532-3.692a10.003 10.003 0 0 1-3.147 2.685c-1.23.671-2.49 1.007-3.776 1.007-1.902 0-3.3-.454-4.196-1.364-.895-.909-1.342-2.244-1.342-4.007 0-.475.216-2.839.65-7.09.434-4.252.734-7.147.902-8.686.084-.783.853-1.175 2.308-1.175h.839c.7 0 1.224.105 1.573.315.35.21.525.497.525.86a670.242 670.242 0 0 0-.86 8.056c-.406 3.944-.609 6.028-.609 6.252 0 1.65.867 2.475 2.602 2.475.895 0 1.776-.342 2.643-1.028.867-.685 1.566-1.685 2.098-3 .252-2.685.517-5.265.797-7.74.28-2.476.462-4.148.546-5.015.084-.783.853-1.175 2.307-1.175h.797c1.4 0 2.098.392 2.098 1.175-.167 1.539-.468 4.42-.902 8.644-.433 4.223-.65 6.49-.65 6.797 0 .56.112.95.336 1.175.223.223.559.335 1.007.335.223 0 .454-.042.692-.126.238-.084.399-.125.482-.125.112 0 .19.027.231.083zm-3-26.181c0 .195-.099.398-.295.608-.195.21-.74.776-1.636 1.7-.447.419-1.37 1.328-2.77 2.727-.614.615-1.58.923-2.894.923-.42 0-.714-.035-.881-.105-.168-.07-.252-.189-.252-.357 0-.14.105-.378.315-.713.21-.336.51-.783.902-1.343.196-.28.447-.65.755-1.112.308-.461.685-1.042 1.133-1.741.503-.727 1.622-1.09 3.356-1.09 1.511 0 2.266.167 2.266.503zm16.265 4.153l-.42 4.154h2.853c.28 0 .462.063.546.19.084.125.126.342.126.65 0 .727-.189 1.475-.567 2.244-.377.77-.93 1.154-1.657 1.154h-1.762c-.14 1.23-.357 3.203-.65 5.916a254.771 254.771 0 0 0-.609 6.126c0 1.175.518 1.762 1.553 1.762.447 0 .818-.049 1.111-.147.294-.097.483-.146.567-.146.224 0 .335.153.335.461 0 .476-.083 1.189-.251 2.14-.112.643-.504 1.119-1.175 1.427-.671.307-1.413.461-2.224.461-1.566 0-2.818-.406-3.755-1.217-.937-.81-1.406-2.14-1.406-3.986 0-.447.182-2.384.546-5.81.363-3.428.615-5.756.755-6.987h-1.3c-.336 0-.581-.112-.735-.336-.154-.223-.23-.573-.23-1.049 0-1.902.46-2.853 1.384-2.853h1.3l.462-4.154c.084-.783.853-1.174 2.308-1.174h.797c1.399 0 2.098.391 2.098 1.174zm15.594-4.363l-.335 3.105c-.084.783-.84 1.175-2.266 1.175h-.923c-.727 0-1.273-.105-1.637-.315-.363-.21-.545-.483-.545-.818l.336-3.105c.084-.783.853-1.175 2.307-1.175h.965c1.399 0 2.098.378 2.098 1.133zm-1.09 9.608c-.168 1.539-.476 4.42-.924 8.644-.447 4.223-.671 6.49-.671 6.797 0 .56.112.95.336 1.175.223.223.56.335 1.007.335.223 0 .454-.042.692-.126.238-.084.399-.125.482-.125.112 0 .19.027.231.083.042.056.063.168.063.336 0 .588-.07 1.3-.21 2.14-.111.615-.503 1.084-1.174 1.406a4.799 4.799 0 0 1-2.098.482c-3.077 0-4.616-1.608-4.616-4.825 0-.588.231-3.063.693-7.427.461-4.363.776-7.328.944-8.895.084-.783.867-1.175 2.35-1.175h.797c1.398 0 2.097.392 2.097 1.175zm14.167-9.734c-.28 2.573-.783 7.35-1.51 14.329-.728 6.979-1.091 10.594-1.091 10.846 0 .56.119.95.356 1.175.238.223.58.335 1.028.335.224 0 .455-.042.693-.126.238-.084.398-.125.482-.125.112 0 .19.027.231.083.042.056.063.168.063.336 0 .42-.084 1.133-.252 2.14-.084.615-.468 1.084-1.154 1.406a4.934 4.934 0 0 1-2.118.482c-1.511 0-2.65-.392-3.42-1.175s-1.154-2.014-1.154-3.692c0-.587.308-3.853.923-9.797a1340.72 1340.72 0 0 1 1.595-14.749l.125-1.384c.056-.392.245-.678.567-.86.322-.182.818-.273 1.49-.273h1.342c1.203 0 1.804.35 1.804 1.049z" fill="#FFF" fill-rule="evenodd"/></svg>