<svg width="240" height="39" viewBox="0 0 240 39" xmlns="http://www.w3.org/2000/svg"><title>Logo</title><defs><linearGradient x1="100%" y1="0%" x2="0%" y2="100%" id="a"><stop stop-color="#FF4881" offset="0%"/><stop stop-color="#FF9B63" offset="100%"/></linearGradient></defs><path d="M44.55 33.08c.05.067.075.201.075.403 0 .704-.1 1.56-.302 2.567-.1.739-.554 1.301-1.36 1.687a5.758 5.758 0 0 1-2.517.58c-1.846 0-3.23-.47-4.154-1.41-.923-.94-1.384-2.417-1.384-4.431 0-.538.251-3.139.755-7.805l.503-5.135c0-2.014-1.04-3.021-3.121-3.021-1.007 0-2.006.394-2.996 1.183-.99.789-1.821 1.922-2.492 3.399l-1.561 15.558c-.1.94-1.024 1.41-2.77 1.41H22.22c-.84 0-1.469-.135-1.889-.403-.42-.269-.629-.588-.629-.957.168-1.746.462-4.557.881-8.434.42-3.877.714-6.788.881-8.735 0-2.014-1.04-3.021-3.121-3.021-1.007 0-2.006.394-2.996 1.183-.99.789-1.821 1.922-2.492 3.399l-1.561 15.558c-.101.94-1.024 1.41-2.77 1.41H7.517c-.839 0-1.468-.135-1.888-.403-.42-.269-.629-.588-.629-.957l.906-8.862c.739-6.847 1.108-10.842 1.108-11.983l-.05-2.417c0-.503.478-.89 1.435-1.158.956-.268 2.056-.402 3.298-.402.537 0 .923.369 1.158 1.107.235.739.352 1.595.352 2.568.94-1.242 2.14-2.266 3.6-3.071 1.46-.806 2.929-1.209 4.406-1.209 3.658 0 5.807 1.477 6.444 4.431.907-1.309 2.115-2.375 3.626-3.197 1.51-.822 3.054-1.234 4.632-1.234 4.43 0 6.646 2.149 6.646 6.445-.067.806-.168 1.88-.302 3.222a268.69 268.69 0 0 0-.353 3.777c-.436 3.927-.654 6.176-.654 6.747 0 .67.134 1.14.403 1.41.268.268.67.402 1.208.402.268 0 .545-.05.83-.15.286-.102.479-.152.58-.152.134 0 .226.034.277.1zM59.864 1.41l-.402 3.726c-.101.94-1.007 1.41-2.72 1.41h-1.107c-.873 0-1.527-.126-1.964-.378-.436-.252-.654-.58-.654-.982l.403-3.726c.1-.94 1.023-1.41 2.769-1.41h1.158c1.678 0 2.517.453 2.517 1.36zm-1.309 11.53c-.201 1.846-.57 5.303-1.107 10.372-.538 5.068-.806 7.787-.806 8.157 0 .67.134 1.14.403 1.41.268.268.671.402 1.208.402.269 0 .546-.05.83-.15.286-.102.48-.152.58-.152.134 0 .227.034.277.1.05.068.075.202.075.404 0 .704-.084 1.56-.251 2.567-.135.739-.605 1.301-1.41 1.687a5.758 5.758 0 0 1-2.518.58c-3.692 0-5.538-1.931-5.538-5.791 0-.705.277-3.676.83-8.912.555-5.236.932-8.794 1.134-10.674.1-.94 1.04-1.41 2.82-1.41h.956c1.678 0 2.517.47 2.517 1.41zM75.557 1.259c-.336 3.088-.94 8.82-1.813 17.194-.873 8.375-1.309 12.713-1.309 13.016 0 .67.143 1.14.428 1.41.285.268.696.402 1.234.402.268 0 .545-.05.83-.15.286-.102.479-.152.58-.152.134 0 .226.034.276.1.05.068.076.202.076.404 0 .503-.101 1.359-.302 2.567-.101.739-.563 1.301-1.385 1.687a5.92 5.92 0 0 1-2.543.58c-1.812 0-3.18-.47-4.103-1.41-.923-.94-1.385-2.417-1.385-4.431 0-.705.37-4.624 1.108-11.757.738-7.133 1.376-13.032 1.913-17.698l.151-1.662c.067-.47.294-.814.68-1.032C70.379.11 70.975 0 71.78 0h1.612c1.443 0 2.165.42 2.165 1.259zm16.8.15l-.403 3.727c-.1.94-1.007 1.41-2.719 1.41h-1.108c-.872 0-1.527-.126-1.963-.378-.437-.252-.655-.58-.655-.982l.403-3.726c.1-.94 1.024-1.41 2.77-1.41h1.157c1.678 0 2.518.453 2.518 1.36zm-1.31 11.53c-.2 1.847-.57 5.304-1.107 10.373-.537 5.068-.806 7.787-.806 8.157 0 .67.135 1.14.403 1.41.269.268.671.402 1.208.402.269 0 .546-.05.831-.15.286-.102.479-.152.58-.152.134 0 .226.034.276.1.05.068.076.202.076.404 0 .704-.084 1.56-.252 2.567-.134.739-.604 1.301-1.41 1.687a5.758 5.758 0 0 1-2.517.58c-3.693 0-5.539-1.931-5.539-5.791 0-.705.277-3.676.831-8.912.554-5.236.931-8.794 1.133-10.674.1-.94 1.04-1.41 2.82-1.41h.956c1.678 0 2.518.47 2.518 1.41zm21.836-.981c1.476.453 2.215 1.15 2.215 2.09 0 .503-.285 1.183-.856 2.039-.57.856-1.057 1.284-1.46 1.284-.168 0-.47-.084-.906-.252-1.242-.537-2.4-.806-3.475-.806-1.107 0-1.955.235-2.542.705-.588.47-.881 1.108-.881 1.913 0 .705.26 1.276.78 1.712.52.437 1.469 1.007 2.845 1.712 1.98 1.007 3.474 2.048 4.48 3.122 1.008 1.074 1.511 2.551 1.511 4.43 0 2.552-.923 4.59-2.769 6.118-1.846 1.527-4.28 2.291-7.3 2.291-1.78 0-3.45-.26-5.01-.78-1.561-.52-2.342-1.267-2.342-2.24 0-1.377.135-2.359.403-2.946.269-.588.537-.881.806-.881.134 0 .42.134.856.402.772.403 1.527.739 2.265 1.007.739.269 1.595.403 2.568.403 1.276 0 2.274-.268 2.996-.805.722-.538 1.083-1.242 1.083-2.115 0-.604-.177-1.125-.529-1.561a4.353 4.353 0 0 0-1.234-1.057 67.224 67.224 0 0 0-2.265-1.209c-1.242-.671-2.25-1.292-3.021-1.863a6.728 6.728 0 0 1-1.888-2.165c-.487-.872-.73-1.947-.73-3.222 0-2.45.914-4.397 2.744-5.84 1.829-1.444 4.137-2.166 6.923-2.166 1.678 0 3.256.227 4.733.68zm18.41-5.312l-.503 4.985h3.424c.336 0 .554.075.655.226.1.151.15.412.15.78 0 .873-.226 1.771-.68 2.694-.452.924-1.115 1.385-1.988 1.385h-2.115c-.167 1.477-.428 3.843-.78 7.1-.353 3.255-.596 5.706-.73 7.35 0 1.41.62 2.115 1.863 2.115.537 0 .982-.059 1.334-.176.353-.118.58-.176.68-.176.268 0 .403.184.403.554 0 .57-.101 1.426-.303 2.567-.134.772-.604 1.343-1.41 1.712-.805.37-1.694.554-2.668.554-1.88 0-3.382-.487-4.506-1.46-1.125-.973-1.687-2.568-1.687-4.783 0-.537.218-2.862.655-6.974.436-4.112.738-6.906.906-8.383h-1.56c-.404 0-.697-.134-.882-.403-.185-.268-.277-.688-.277-1.258 0-2.283.554-3.424 1.662-3.424h1.56l.554-4.985c.101-.94 1.024-1.41 2.77-1.41h.956c1.679 0 2.518.47 2.518 1.41zm33.617 26.837c0 .503-.1 1.359-.302 2.567-.134.739-.604 1.301-1.41 1.687a5.758 5.758 0 0 1-2.517.58c-3.155 0-4.95-1.427-5.387-4.28-.806 1.342-1.838 2.4-3.097 3.171a7.617 7.617 0 0 1-4.053 1.158c-2.35 0-4.313-.914-5.89-2.744-1.578-1.829-2.367-4.556-2.367-8.181 0-3.156.486-5.958 1.46-8.409.973-2.45 2.333-4.355 4.078-5.715 1.746-1.359 3.76-2.039 6.042-2.039 1.31 0 2.492.277 3.55.831 1.057.554 1.938 1.183 2.643 1.888.235-.705.428-1.208.58-1.51.15-.302.402-.529.754-.68.353-.151.882-.227 1.586-.227h.504c1.544 0 2.316.386 2.316 1.158l-.352 3.475c-1.041 9.734-1.561 14.82-1.561 15.256 0 .704.134 1.183.403 1.434.268.252.67.378 1.208.378.268 0 .545-.05.83-.15.286-.102.479-.152.58-.152.268 0 .402.168.402.504zm-8.156-15.508c-1.276-1.074-2.618-1.611-4.028-1.611-2.182 0-3.802.948-4.859 2.844-1.057 1.897-1.586 4.507-1.586 7.83 0 4.061 1.326 6.092 3.978 6.092.973 0 1.93-.411 2.87-1.233.94-.823 1.728-2.056 2.366-3.701L156 23.21l.251-2.719c.067-.537.235-1.376.504-2.517zm37.62 15.105c.05.067.075.201.075.403 0 .704-.1 1.56-.302 2.567-.1.739-.554 1.301-1.36 1.687a5.758 5.758 0 0 1-2.517.58c-3.256 0-5.069-1.478-5.438-4.432a12.004 12.004 0 0 1-3.776 3.223c-1.477.805-2.987 1.208-4.532 1.208-2.282 0-3.96-.545-5.034-1.636-1.075-1.091-1.612-2.694-1.612-4.809 0-.57.26-3.407.78-8.509.521-5.102.882-8.576 1.083-10.422.101-.94 1.024-1.41 2.77-1.41h1.006c.84 0 1.469.126 1.889.378.42.251.629.595.629 1.032-.201 1.712-.545 4.934-1.032 9.667s-.73 7.234-.73 7.502c0 1.98 1.04 2.97 3.121 2.97 1.075 0 2.132-.41 3.172-1.233 1.041-.822 1.88-2.022 2.518-3.6.302-3.222.62-6.319.957-9.29.335-2.97.553-4.976.654-6.016.1-.94 1.024-1.41 2.77-1.41h.956c1.678 0 2.517.47 2.517 1.41-.2 1.846-.562 5.303-1.082 10.372-.52 5.068-.78 7.787-.78 8.157 0 .67.134 1.14.402 1.41.269.268.672.402 1.209.402.268 0 .545-.05.83-.15.286-.102.479-.152.58-.152.134 0 .226.034.276.1zm-3.6-31.418c0 .235-.118.478-.353.73-.235.251-.89.931-1.964 2.039-.537.503-1.644 1.594-3.323 3.272-.738.739-1.896 1.108-3.474 1.108-.503 0-.856-.042-1.057-.126-.202-.084-.302-.226-.302-.428 0-.167.126-.453.377-.856.252-.402.613-.94 1.083-1.61.235-.336.537-.781.906-1.335.37-.554.823-1.25 1.36-2.09.604-.872 1.946-1.309 4.028-1.309 1.812 0 2.718.202 2.718.605zm19.518 4.984l-.503 4.985h3.424c.335 0 .553.075.654.226.1.151.151.412.151.78 0 .873-.226 1.771-.68 2.694-.453.924-1.116 1.385-1.988 1.385h-2.115a1507.01 1507.01 0 0 0-.78 7.1c-.353 3.255-.596 5.706-.73 7.35 0 1.41.62 2.115 1.862 2.115.537 0 .982-.059 1.335-.176.352-.118.579-.176.68-.176.268 0 .402.184.402.554 0 .57-.1 1.426-.302 2.567-.134.772-.604 1.343-1.41 1.712-.805.37-1.695.554-2.668.554-1.88 0-3.382-.487-4.507-1.46-1.124-.973-1.686-2.568-1.686-4.783 0-.537.218-2.862.654-6.974.437-4.112.739-6.906.907-8.383h-1.561c-.403 0-.697-.134-.881-.403-.185-.268-.277-.688-.277-1.258 0-2.283.554-3.424 1.661-3.424h1.561l.554-4.985c.1-.94 1.024-1.41 2.77-1.41h.956c1.678 0 2.517.47 2.517 1.41zm18.714-5.236l-.403 3.726c-.1.94-1.007 1.41-2.72 1.41h-1.107c-.873 0-1.527-.126-1.963-.378-.437-.252-.655-.58-.655-.982l.403-3.726c.1-.94 1.024-1.41 2.77-1.41h1.157c1.678 0 2.518.453 2.518 1.36zm-1.31 11.53c-.2 1.846-.57 5.303-1.107 10.372-.537 5.068-.806 7.787-.806 8.157 0 .67.134 1.14.403 1.41.269.268.671.402 1.208.402.269 0 .546-.05.831-.15.285-.102.478-.152.58-.152.133 0 .226.034.276.1.05.068.076.202.076.404 0 .704-.084 1.56-.252 2.567-.134.739-.604 1.301-1.41 1.687a5.758 5.758 0 0 1-2.517.58c-3.693 0-5.539-1.931-5.539-5.791 0-.705.277-3.676.83-8.912.555-5.236.932-8.794 1.134-10.674.1-.94 1.04-1.41 2.82-1.41h.956c1.678 0 2.518.47 2.518 1.41zm17.002-11.681c-.336 3.088-.94 8.82-1.813 17.194-.872 8.375-1.309 12.713-1.309 13.016 0 .67.143 1.14.428 1.41.286.268.697.402 1.234.402.268 0 .545-.05.83-.15.286-.102.479-.152.58-.152.134 0 .226.034.276.1.05.068.076.202.076.404 0 .503-.1 1.359-.302 2.567-.1.739-.562 1.301-1.385 1.687a5.92 5.92 0 0 1-2.542.58c-1.813 0-3.18-.47-4.104-1.41-.923-.94-1.384-2.417-1.384-4.431 0-.705.369-4.624 1.107-11.757.739-7.133 1.376-13.032 1.913-17.698l.152-1.662c.067-.47.293-.814.68-1.032.385-.218.981-.327 1.787-.327h1.61c1.444 0 2.166.42 2.166 1.259z" transform="translate(-5)" fill="url(#a)" fill-rule="evenodd"/></svg>