<?xml version="1.0" encoding="UTF-8" standalone="no"?>
<svg width="200px" height="32px" viewBox="0 0 200 32" version="1.1" xmlns="http://www.w3.org/2000/svg" xmlns:xlink="http://www.w3.org/1999/xlink">
    <!-- Generator: Sketch 41.2 (35397) - http://www.bohemiancoding.com/sketch -->
    <title>logo</title>
    <desc>Created with Sketch.</desc>
    <defs></defs>
    <g id="Pre-Launch-Landing-Page" stroke="none" stroke-width="1" fill="none" fill-rule="evenodd">
        <g id="Desktop-HD" transform="translate(-240.000000, -30.000000)" fill="#FFFFFF">
            <g id="Logo" transform="translate(240.000000, 30.000000)">
                <path d="M32.958042,27.5664336 C33.0000002,27.6223779 33.020979,27.7342649 33.020979,27.9020979 C33.020979,28.4895134 32.9370638,29.202793 32.7692308,30.041958 C32.6853143,30.6573457 32.3076957,31.1258725 31.6363636,31.4475524 C30.9650316,31.7692324 30.2657379,31.9300699 29.5384615,31.9300699 C27.9999923,31.9300699 26.8461577,31.5384655 26.0769231,30.7552448 C25.3076885,29.9720241 24.9230769,28.7412671 24.9230769,27.0629371 C24.9230769,26.6153824 25.132865,24.4475719 25.5524476,20.5594406 L25.972028,16.2797203 C25.972028,14.6013902 25.1049038,13.7622378 23.3706294,13.7622378 C22.5314643,13.7622378 21.6993048,14.0909058 20.8741259,14.7482517 C20.0489469,15.4055977 19.3566462,16.3496442 18.7972028,17.5804196 L17.4965035,30.5454545 C17.412587,31.3286752 16.6433639,31.7202797 15.1888112,31.7202797 L14.3496503,31.7202797 C13.6503462,31.7202797 13.1258759,31.6083927 12.7762238,31.3846154 C12.4265717,31.160838 12.2517483,30.8951064 12.2517483,30.5874126 C12.3916091,29.1328599 12.6363619,26.7902259 12.986014,23.5594406 C13.3356661,20.3286552 13.5804189,17.902106 13.7202797,16.2797203 C13.7202797,14.6013902 12.8531555,13.7622378 11.1188811,13.7622378 C10.2797161,13.7622378 9.44755657,14.0909058 8.62237762,14.7482517 C7.79719867,15.4055977 7.1048979,16.3496442 6.54545455,17.5804196 L5.24475524,30.5454545 C5.16083874,31.3286752 4.39161566,31.7202797 2.93706294,31.7202797 L2.0979021,31.7202797 C1.3985979,31.7202797 0.874127622,31.6083927 0.524475524,31.3846154 C0.174823427,31.160838 0,30.8951064 0,30.5874126 L0.755244755,23.2027972 C1.37063245,17.496475 1.67832168,14.1678369 1.67832168,13.2167832 L1.63636364,11.2027972 C1.63636364,10.7832147 2.03496105,10.4615396 2.83216783,10.2377622 C3.62937462,10.0139849 4.54544937,9.9020979 5.58041958,9.9020979 C6.02797427,9.9020979 6.34964937,10.2097871 6.54545455,10.8251748 C6.74125972,11.4405625 6.83916084,12.1538421 6.83916084,12.965035 C7.62238154,11.9300648 8.62237154,11.0769264 9.83916084,10.4055944 C11.0559501,9.73426238 12.2797141,9.3986014 13.5104895,9.3986014 C16.5594558,9.3986014 18.3496477,10.6293583 18.8811189,13.0909091 C19.6363674,11.9999945 20.6433503,11.1118915 21.9020979,10.4265734 C23.1608455,9.74125531 24.4475459,9.3986014 25.7622378,9.3986014 C29.4545639,9.3986014 31.3006993,11.1887933 31.3006993,14.7692308 C31.244755,15.4405628 31.1608397,16.3356587 31.048951,17.4545455 C30.9370624,18.5734322 30.8391613,19.6223727 30.7552448,20.6013986 C30.3916066,23.8741422 30.2097902,25.7482494 30.2097902,26.2237762 C30.2097902,26.7832196 30.3216772,27.1748241 30.5454545,27.3986014 C30.7692319,27.6223787 31.1048929,27.7342657 31.5524476,27.7342657 C31.7762249,27.7342657 32.0069918,27.6923081 32.2447552,27.6083916 C32.4825187,27.5244751 32.6433562,27.4825175 32.7272727,27.4825175 C32.8391614,27.4825175 32.9160837,27.5104892 32.958042,27.5664336 Z M45.7202797,1.17482517 L45.3846154,4.27972028 C45.3006989,5.06294098 44.5454617,5.45454545 43.1188811,5.45454545 L42.1958042,5.45454545 C41.4685278,5.45454545 40.9230787,5.3496514 40.5594406,5.13986014 C40.1958024,4.93006888 40.013986,4.65734434 40.013986,4.32167832 L40.3496503,1.21678322 C40.4335669,0.433562517 41.2027899,0.041958042 42.6573427,0.041958042 L43.6223776,0.041958042 C45.020986,0.041958042 45.7202797,0.419576643 45.7202797,1.17482517 Z M44.6293706,10.7832168 C44.4615376,12.321686 44.1538484,15.2027761 43.7062937,19.4265734 C43.258739,23.6503708 43.034965,25.9160824 43.034965,26.2237762 C43.034965,26.7832196 43.146852,27.1748241 43.3706294,27.3986014 C43.5944067,27.6223787 43.9300677,27.7342657 44.3776224,27.7342657 C44.6013997,27.7342657 44.8321666,27.6923081 45.0699301,27.6083916 C45.3076935,27.5244751 45.468531,27.4825175 45.5524476,27.4825175 C45.6643362,27.4825175 45.7412585,27.5104892 45.7832168,27.5664336 C45.825175,27.6223779 45.8461538,27.7342649 45.8461538,27.9020979 C45.8461538,28.4895134 45.7762245,29.202793 45.6363636,30.041958 C45.524475,30.6573457 45.1328705,31.1258725 44.4615385,31.4475524 C43.7902064,31.7692324 43.0909127,31.9300699 42.3636364,31.9300699 C39.2866979,31.9300699 37.7482517,30.3216944 37.7482517,27.1048951 C37.7482517,26.5174796 37.9790187,24.0419799 38.4405594,19.6783217 C38.9021002,15.3146635 39.2167824,12.3496582 39.3846154,10.7832168 C39.4685319,9.99999608 40.2517408,9.60839161 41.7342657,9.60839161 L42.5314685,9.60839161 C43.9300769,9.60839161 44.6293706,9.99999608 44.6293706,10.7832168 Z M58.7972028,1.04895105 C58.5174811,3.62239049 58.0139897,8.3985665 57.2867133,15.3776224 C56.5594369,22.3566783 56.1958042,25.9720267 56.1958042,26.2237762 C56.1958042,26.7832196 56.3146841,27.1748241 56.5524476,27.3986014 C56.790211,27.6223787 57.1328649,27.7342657 57.5804196,27.7342657 C57.8041969,27.7342657 58.0349638,27.6923081 58.2727273,27.6083916 C58.5104907,27.5244751 58.6713283,27.4825175 58.7552448,27.4825175 C58.8671334,27.4825175 58.9440557,27.5104892 58.986014,27.5664336 C59.0279722,27.6223779 59.048951,27.7342649 59.048951,27.9020979 C59.048951,28.3216804 58.9650358,29.03496 58.7972028,30.041958 C58.7132863,30.6573457 58.3286748,31.1258725 57.6433566,31.4475524 C56.9580385,31.7692324 56.2517519,31.9300699 55.5244755,31.9300699 C54.0139785,31.9300699 52.8741297,31.5384655 52.1048951,30.7552448 C51.3356605,29.9720241 50.951049,28.7412671 50.951049,27.0629371 C50.951049,26.4755215 51.2587382,23.2098199 51.8741259,17.2657343 C52.4895136,11.3216486 53.0209768,6.40561385 53.4685315,2.51748252 L53.5944056,1.13286713 C53.6503499,0.741256783 53.8391592,0.454546364 54.1608392,0.272727273 C54.4825191,0.0909081818 54.9790176,0 55.6503497,0 L56.993007,0 C58.1958102,0 58.7972028,0.349646853 58.7972028,1.04895105 Z M72.7972028,1.17482517 L72.4615385,4.27972028 C72.377622,5.06294098 71.6223848,5.45454545 70.1958042,5.45454545 L69.2727273,5.45454545 C68.5454509,5.45454545 68.0000018,5.3496514 67.6363636,5.13986014 C67.2727255,4.93006888 67.0909091,4.65734434 67.0909091,4.32167832 L67.4265734,1.21678322 C67.5104899,0.433562517 68.279713,0.041958042 69.7342657,0.041958042 L70.6993007,0.041958042 C72.0979091,0.041958042 72.7972028,0.419576643 72.7972028,1.17482517 Z M71.7062937,10.7832168 C71.5384607,12.321686 71.2307715,15.2027761 70.7832168,19.4265734 C70.3356621,23.6503708 70.1118881,25.9160824 70.1118881,26.2237762 C70.1118881,26.7832196 70.2237751,27.1748241 70.4475524,27.3986014 C70.6713298,27.6223787 71.0069908,27.7342657 71.4545455,27.7342657 C71.6783228,27.7342657 71.9090897,27.6923081 72.1468531,27.6083916 C72.3846166,27.5244751 72.5454541,27.4825175 72.6293706,27.4825175 C72.7412593,27.4825175 72.8181816,27.5104892 72.8601399,27.5664336 C72.9020981,27.6223779 72.9230769,27.7342649 72.9230769,27.9020979 C72.9230769,28.4895134 72.8531476,29.202793 72.7132867,30.041958 C72.601398,30.6573457 72.2097936,31.1258725 71.5384615,31.4475524 C70.8671295,31.7692324 70.1678358,31.9300699 69.4405594,31.9300699 C66.363621,31.9300699 64.8251748,30.3216944 64.8251748,27.1048951 C64.8251748,26.5174796 65.0559417,24.0419799 65.5174825,19.6783217 C65.9790233,15.3146635 66.2937055,12.3496582 66.4615385,10.7832168 C66.545455,9.99999608 67.3286639,9.60839161 68.8111888,9.60839161 L69.6083916,9.60839161 C71.007,9.60839161 71.7062937,9.99999608 71.7062937,10.7832168 Z M89.9020979,9.96503497 C91.1328733,10.3426592 91.7482517,10.923073 91.7482517,11.7062937 C91.7482517,12.1258762 91.5104919,12.6923041 91.034965,13.4055944 C90.5594382,14.1188847 90.1538478,14.4755245 89.8181818,14.4755245 C89.678321,14.4755245 89.4265752,14.4055951 89.0629371,14.2657343 C88.0279669,13.8181796 87.0629415,13.5944056 86.1678322,13.5944056 C85.2447506,13.5944056 84.538464,13.7902078 84.048951,14.1818182 C83.5594381,14.5734285 83.3146853,15.1048917 83.3146853,15.7762238 C83.3146853,16.3636393 83.5314664,16.839159 83.965035,17.2027972 C84.3986036,17.5664354 85.1888055,18.0419551 86.3356643,18.6293706 C87.9860222,19.4685357 89.230765,20.3356599 90.0699301,21.2307692 C90.9090951,22.1258786 91.3286713,23.3566355 91.3286713,24.9230769 C91.3286713,27.0489617 90.5594483,28.7482454 89.020979,30.020979 C87.4825098,31.2937127 85.454558,31.9300699 82.9370629,31.9300699 C81.454538,31.9300699 80.0629436,31.7132889 78.7622378,31.2797203 C77.461532,30.8461517 76.8111888,30.2237803 76.8111888,29.4125874 C76.8111888,28.2657285 76.9230758,27.4475549 77.1468531,26.958042 C77.3706305,26.468529 77.5944045,26.2237762 77.8181818,26.2237762 C77.9300705,26.2237762 78.1678303,26.3356632 78.5314685,26.5594406 C79.1748284,26.8951066 79.8041927,27.1748241 80.4195804,27.3986014 C81.0349681,27.6223787 81.7482477,27.7342657 82.5594406,27.7342657 C83.6223829,27.7342657 84.4545424,27.5104917 85.0559441,27.0629371 C85.6573457,26.6153824 85.958042,26.0279757 85.958042,25.3006993 C85.958042,24.7972003 85.8111903,24.3636382 85.5174825,24 C85.2237748,23.6363618 84.8811208,23.3426585 84.4895105,23.1188811 C84.0979001,22.8951038 83.4685358,22.5594428 82.6013986,22.1118881 C81.5664284,21.5524448 80.7272759,21.0349674 80.0839161,20.5594406 C79.4405562,20.0839137 78.9160859,19.4825211 78.5104895,18.7552448 C78.1048931,18.0279684 77.9020979,17.1328724 77.9020979,16.0699301 C77.9020979,14.0279618 78.664328,12.4056004 80.1888112,11.2027972 C81.7132943,9.99999399 83.636352,9.3986014 85.958042,9.3986014 C87.3566503,9.3986014 88.6713225,9.5874107 89.9020979,9.96503497 Z M105.244755,5.53846154 L104.825175,9.69230769 L107.678322,9.69230769 C107.958043,9.69230769 108.13986,9.75524413 108.223776,9.88111888 C108.307693,10.0069936 108.34965,10.2237747 108.34965,10.5314685 C108.34965,11.2587449 108.160841,12.0069892 107.783217,12.7762238 C107.405593,13.5454584 106.85315,13.9300699 106.125874,13.9300699 L104.363636,13.9300699 C104.223776,15.1608453 104.006994,17.1328536 103.713287,19.8461538 C103.419579,22.5594541 103.216784,24.6013917 103.104895,25.972028 C103.104895,27.146859 103.622372,27.7342657 104.657343,27.7342657 C105.104897,27.7342657 105.475523,27.6853152 105.769231,27.5874126 C106.062939,27.48951 106.251748,27.4405594 106.335664,27.4405594 C106.559442,27.4405594 106.671329,27.5944041 106.671329,27.9020979 C106.671329,28.3776248 106.587413,29.0909043 106.41958,30.041958 C106.307692,30.6853179 105.916087,31.1608376 105.244755,31.4685315 C104.573423,31.7762253 103.832172,31.9300699 103.020979,31.9300699 C101.454538,31.9300699 100.202802,31.5244796 99.2657343,30.7132867 C98.3286666,29.9020938 97.8601399,28.5734358 97.8601399,26.7272727 C97.8601399,26.279718 98.0419562,24.3426745 98.4055944,20.9160839 C98.7692326,17.4894934 99.0209783,15.1608453 99.1608392,13.9300699 L97.8601399,13.9300699 C97.5244738,13.9300699 97.279721,13.8181829 97.1258741,13.5944056 C96.9720272,13.3706283 96.8951049,13.0209814 96.8951049,12.5454545 C96.8951049,10.6433471 97.3566387,9.69230769 98.2797203,9.69230769 L99.5804196,9.69230769 L100.041958,5.53846154 C100.125875,4.75524084 100.895098,4.36363636 102.34965,4.36363636 L103.146853,4.36363636 C104.545462,4.36363636 105.244755,4.75524084 105.244755,5.53846154 Z M133.258741,27.9020979 C133.258741,28.3216804 133.174826,29.03496 133.006993,30.041958 C132.895104,30.6573457 132.5035,31.1258725 131.832168,31.4475524 C131.160836,31.7692324 130.461542,31.9300699 129.734266,31.9300699 C127.104882,31.9300699 125.608393,30.7412706 125.244755,28.3636364 C124.573423,29.4825231 123.713292,30.3636331 122.664336,31.006993 C121.615379,31.6503529 120.489517,31.972028 119.286713,31.972028 C117.328662,31.972028 115.692314,31.2097978 114.377622,29.6853147 C113.06293,28.1608315 112.405594,25.888127 112.405594,22.8671329 C112.405594,20.2377491 112.811185,17.9021081 113.622378,15.8601399 C114.43357,13.8181716 115.566426,12.2307749 117.020979,11.0979021 C118.475532,9.9650293 120.153837,9.3986014 122.055944,9.3986014 C123.146859,9.3986014 124.132863,9.62936832 125.013986,10.0909091 C125.895109,10.5524499 126.629368,11.0769201 127.216783,11.6643357 C127.412588,11.0769201 127.573426,10.6573439 127.699301,10.4055944 C127.825175,10.1538449 128.034964,9.96503559 128.328671,9.83916084 C128.622379,9.71328608 129.062934,9.65034965 129.65035,9.65034965 L130.06993,9.65034965 C131.35665,9.65034965 132,9.97202476 132,10.6153846 L131.706294,13.5104895 C130.839157,21.6224182 130.405594,25.860138 130.405594,26.2237762 C130.405594,26.8111917 130.517481,27.2097892 130.741259,27.4195804 C130.965036,27.6293717 131.300697,27.7342657 131.748252,27.7342657 C131.972029,27.7342657 132.202796,27.6923081 132.440559,27.6083916 C132.678323,27.5244751 132.83916,27.4825175 132.923077,27.4825175 C133.146854,27.4825175 133.258741,27.6223762 133.258741,27.9020979 Z M126.461538,14.979021 C125.398596,14.0839116 124.279726,13.6363636 123.104895,13.6363636 C121.286704,13.6363636 119.937067,14.4265655 119.055944,16.006993 C118.174821,17.5874205 117.734266,19.7622239 117.734266,22.5314685 C117.734266,25.9161008 118.83915,27.6083916 121.048951,27.6083916 C121.860144,27.6083916 122.657339,27.2657377 123.440559,26.5804196 C124.22378,25.8951015 124.881116,24.8671397 125.412587,23.4965035 L125.832168,19.3426573 L126.041958,17.0769231 C126.097902,16.6293684 126.237761,15.9300747 126.461538,14.979021 Z M157.811189,27.5664336 C157.853147,27.6223779 157.874126,27.7342649 157.874126,27.9020979 C157.874126,28.4895134 157.790211,29.202793 157.622378,30.041958 C157.538461,30.6573457 157.160843,31.1258725 156.48951,31.4475524 C155.818178,31.7692324 155.118885,31.9300699 154.391608,31.9300699 C151.678308,31.9300699 150.167834,30.699313 149.86014,28.2377622 C148.993003,29.356649 147.944062,30.2517449 146.713287,30.9230769 C145.482511,31.594409 144.223783,31.9300699 142.937063,31.9300699 C141.034956,31.9300699 139.636368,31.475529 138.741259,30.5664336 C137.846149,29.6573381 137.398601,28.3216871 137.398601,26.5594406 C137.398601,26.0839137 137.615382,23.720301 138.048951,19.4685315 C138.48252,15.216762 138.783216,12.321686 138.951049,10.7832168 C139.034965,9.99999608 139.804189,9.60839161 141.258741,9.60839161 L142.097902,9.60839161 C142.797206,9.60839161 143.321677,9.71328566 143.671329,9.92307692 C144.020981,10.1328682 144.195804,10.4195786 144.195804,10.7832168 C144.027971,12.2097973 143.741261,14.8950852 143.335664,18.8391608 C142.930068,22.7832365 142.727273,24.8671317 142.727273,25.0909091 C142.727273,26.741267 143.594397,27.5664336 145.328671,27.5664336 C146.223781,27.5664336 147.104891,27.2237797 147.972028,26.5384615 C148.839165,25.8531434 149.538459,24.8531534 150.06993,23.5384615 C150.32168,20.8531334 150.587411,18.2727397 150.867133,15.7972028 C151.146855,13.3216659 151.328671,11.650354 151.412587,10.7832168 C151.496504,9.99999608 152.265727,9.60839161 153.72028,9.60839161 L154.517483,9.60839161 C155.916091,9.60839161 156.615385,9.99999608 156.615385,10.7832168 C156.447552,12.321686 156.146855,15.2027761 155.713287,19.4265734 C155.279718,23.6503708 155.062937,25.9160824 155.062937,26.2237762 C155.062937,26.7832196 155.174824,27.1748241 155.398601,27.3986014 C155.622379,27.6223787 155.95804,27.7342657 156.405594,27.7342657 C156.629372,27.7342657 156.860139,27.6923081 157.097902,27.6083916 C157.335666,27.5244751 157.496503,27.4825175 157.58042,27.4825175 C157.692308,27.4825175 157.769231,27.5104892 157.811189,27.5664336 Z M154.811189,1.38461538 C154.811189,1.58042056 154.713288,1.78321573 154.517483,1.99300699 C154.321677,2.20279825 153.776228,2.76922615 152.881119,3.69230769 C152.433564,4.11189021 151.510497,5.02097203 150.111888,6.41958042 C149.4965,7.03496811 148.531475,7.34265734 147.216783,7.34265734 C146.797201,7.34265734 146.503497,7.30769266 146.335664,7.23776224 C146.167831,7.16783182 146.083916,7.04895189 146.083916,6.88111888 C146.083916,6.74125804 146.18881,6.50349818 146.398601,6.16783217 C146.608393,5.83216615 146.909089,5.38461818 147.300699,4.82517483 C147.496504,4.54545315 147.74825,4.17482748 148.055944,3.71328671 C148.363638,3.25174594 148.741257,2.67133217 149.188811,1.97202797 C149.69231,1.24475161 150.81118,0.881118881 152.545455,0.881118881 C154.055952,0.881118881 154.811189,1.04894937 154.811189,1.38461538 Z M171.076923,5.53846154 L170.657343,9.69230769 L173.51049,9.69230769 C173.790211,9.69230769 173.972028,9.75524413 174.055944,9.88111888 C174.139861,10.0069936 174.181818,10.2237747 174.181818,10.5314685 C174.181818,11.2587449 173.993009,12.0069892 173.615385,12.7762238 C173.23776,13.5454584 172.685318,13.9300699 171.958042,13.9300699 L170.195804,13.9300699 C170.055943,15.1608453 169.839162,17.1328536 169.545455,19.8461538 C169.251747,22.5594541 169.048952,24.6013917 168.937063,25.972028 C168.937063,27.146859 169.45454,27.7342657 170.48951,27.7342657 C170.937065,27.7342657 171.307691,27.6853152 171.601399,27.5874126 C171.895106,27.48951 172.083916,27.4405594 172.167832,27.4405594 C172.39161,27.4405594 172.503497,27.5944041 172.503497,27.9020979 C172.503497,28.3776248 172.419581,29.0909043 172.251748,30.041958 C172.13986,30.6853179 171.748255,31.1608376 171.076923,31.4685315 C170.405591,31.7762253 169.66434,31.9300699 168.853147,31.9300699 C167.286705,31.9300699 166.03497,31.5244796 165.097902,30.7132867 C164.160834,29.9020938 163.692308,28.5734358 163.692308,26.7272727 C163.692308,26.279718 163.874124,24.3426745 164.237762,20.9160839 C164.6014,17.4894934 164.853146,15.1608453 164.993007,13.9300699 L163.692308,13.9300699 C163.356642,13.9300699 163.111889,13.8181829 162.958042,13.5944056 C162.804195,13.3706283 162.727273,13.0209814 162.727273,12.5454545 C162.727273,10.6433471 163.188807,9.69230769 164.111888,9.69230769 L165.412587,9.69230769 L165.874126,5.53846154 C165.958042,4.75524084 166.727265,4.36363636 168.181818,4.36363636 L168.979021,4.36363636 C170.377629,4.36363636 171.076923,4.75524084 171.076923,5.53846154 Z M186.671329,1.17482517 L186.335664,4.27972028 C186.251748,5.06294098 185.496511,5.45454545 184.06993,5.45454545 L183.146853,5.45454545 C182.419577,5.45454545 181.874128,5.3496514 181.51049,5.13986014 C181.146851,4.93006888 180.965035,4.65734434 180.965035,4.32167832 L181.300699,1.21678322 C181.384616,0.433562517 182.153839,0.041958042 183.608392,0.041958042 L184.573427,0.041958042 C185.972035,0.041958042 186.671329,0.419576643 186.671329,1.17482517 Z M185.58042,10.7832168 C185.412587,12.321686 185.104897,15.2027761 184.657343,19.4265734 C184.209788,23.6503708 183.986014,25.9160824 183.986014,26.2237762 C183.986014,26.7832196 184.097901,27.1748241 184.321678,27.3986014 C184.545456,27.6223787 184.881117,27.7342657 185.328671,27.7342657 C185.552449,27.7342657 185.783216,27.6923081 186.020979,27.6083916 C186.258742,27.5244751 186.41958,27.4825175 186.503497,27.4825175 C186.615385,27.4825175 186.692307,27.5104892 186.734266,27.5664336 C186.776224,27.6223779 186.797203,27.7342649 186.797203,27.9020979 C186.797203,28.4895134 186.727273,29.202793 186.587413,30.041958 C186.475524,30.6573457 186.083919,31.1258725 185.412587,31.4475524 C184.741255,31.7692324 184.041962,31.9300699 183.314685,31.9300699 C180.237747,31.9300699 178.699301,30.3216944 178.699301,27.1048951 C178.699301,26.5174796 178.930068,24.0419799 179.391608,19.6783217 C179.853149,15.3146635 180.167831,12.3496582 180.335664,10.7832168 C180.419581,9.99999608 181.20279,9.60839161 182.685315,9.60839161 L183.482517,9.60839161 C184.881126,9.60839161 185.58042,9.99999608 185.58042,10.7832168 Z M199.748252,1.04895105 C199.46853,3.62239049 198.965039,8.3985665 198.237762,15.3776224 C197.510486,22.3566783 197.146853,25.9720267 197.146853,26.2237762 C197.146853,26.7832196 197.265733,27.1748241 197.503497,27.3986014 C197.74126,27.6223787 198.083914,27.7342657 198.531469,27.7342657 C198.755246,27.7342657 198.986013,27.6923081 199.223776,27.6083916 C199.46154,27.5244751 199.622377,27.4825175 199.706294,27.4825175 C199.818182,27.4825175 199.895105,27.5104892 199.937063,27.5664336 C199.979021,27.6223779 200,27.7342649 200,27.9020979 C200,28.3216804 199.916085,29.03496 199.748252,30.041958 C199.664335,30.6573457 199.279724,31.1258725 198.594406,31.4475524 C197.909087,31.7692324 197.202801,31.9300699 196.475524,31.9300699 C194.965027,31.9300699 193.825179,31.5384655 193.055944,30.7552448 C192.286709,29.9720241 191.902098,28.7412671 191.902098,27.0629371 C191.902098,26.4755215 192.209787,23.2098199 192.825175,17.2657343 C193.440563,11.3216486 193.972026,6.40561385 194.41958,2.51748252 L194.545455,1.13286713 C194.601399,0.741256783 194.790208,0.454546364 195.111888,0.272727273 C195.433568,0.0909081818 195.930067,0 196.601399,0 L197.944056,0 C199.146859,0 199.748252,0.349646853 199.748252,1.04895105 Z" id="logo"></path>
            </g>
        </g>
    </g>
</svg>