<?xml version="1.0" encoding="UTF-8" standalone="no"?>
<svg width="220px" height="40px" viewBox="0 0 220 40" version="1.1" xmlns="http://www.w3.org/2000/svg" xmlns:xlink="http://www.w3.org/1999/xlink">
    <!-- Generator: Sketch 41.1 (35376) - http://www.bohemiancoding.com/sketch -->
    <title>Logo</title>
    <desc>Created with Sketch.</desc>
    <defs>
        <linearGradient x1="100%" y1="0%" x2="1.11022302e-14%" y2="100%" id="linearGradient-1">
            <stop stop-color="#FF4881" offset="0%"></stop>
            <stop stop-color="#FF9B63" offset="100%"></stop>
        </linearGradient>
    </defs>
    <g id="Pre-Launch-Landing-Page" stroke="none" stroke-width="1" fill="none" fill-rule="evenodd">
        <g id="Desktop-HD" transform="translate(-235.000000, -30.000000)" fill="url(#linearGradient-1)">
            <g id="Logo" transform="translate(235.000000, 30.000000)">
                <path d="M39.2036923,29.1101538 C39.2480002,29.1692311 39.2701538,29.2873837 39.2701538,29.4646154 C39.2701538,30.0849262 39.1815393,30.8381494 39.0043077,31.7243077 C38.9156919,32.3741571 38.5169266,32.8689214 37.808,33.2086154 C37.0990734,33.5483094 36.3606192,33.7181538 35.5926154,33.7181538 C33.9679919,33.7181538 32.7495425,33.3046195 31.9372308,32.4775385 C31.124919,31.6504574 30.7187692,30.3507781 30.7187692,28.5784615 C30.7187692,28.1058438 30.9403055,25.8166359 31.3833846,21.7107692 L31.8264615,17.1913846 C31.8264615,15.4190681 30.9107784,14.5329231 29.0793846,14.5329231 C28.1932263,14.5329231 27.3144659,14.8799965 26.4430769,15.5741538 C25.571688,16.2683112 24.8406183,17.2652243 24.2498462,18.5649231 L22.8763077,32.256 C22.7876919,33.0830811 21.9753923,33.4966154 20.4393846,33.4966154 L19.5532308,33.4966154 C18.8147655,33.4966154 18.2609249,33.3784627 17.8916923,33.1421538 C17.5224597,32.905845 17.3378462,32.6252324 17.3378462,32.3003077 C17.4855392,30.7643 17.7439982,28.2904786 18.1132308,24.8787692 C18.4824634,21.4670599 18.7409223,18.904624 18.8886154,17.1913846 C18.8886154,15.4190681 17.9729322,14.5329231 16.1415385,14.5329231 C15.2553802,14.5329231 14.3766197,14.8799965 13.5052308,15.5741538 C12.6338418,16.2683112 11.9027722,17.2652243 11.312,18.5649231 L9.93846154,32.256 C9.84984571,33.0830811 9.03754614,33.4966154 7.50153846,33.4966154 L6.61538462,33.4966154 C5.87691938,33.4966154 5.32307877,33.3784627 4.95384615,33.1421538 C4.58461354,32.905845 4.4,32.6252324 4.4,32.3003077 L5.19753846,24.5021538 C5.84738786,18.4762776 6.17230769,14.9612358 6.17230769,13.9569231 L6.128,11.8301538 C6.128,11.3870747 6.54891887,11.0473858 7.39076923,10.8110769 C8.23261959,10.574768 9.19999454,10.4566154 10.2929231,10.4566154 C10.7655408,10.4566154 11.1052297,10.7815352 11.312,11.4313846 C11.5187703,12.081234 11.6221538,12.8344573 11.6221538,13.6910769 C12.4492349,12.5981484 13.5052243,11.6972343 14.7901538,10.9883077 C16.0750833,10.2793811 17.3673781,9.92492308 18.6670769,9.92492308 C21.8867853,9.92492308 23.777228,11.2246024 24.3384615,13.824 C25.136004,12.6719942 26.199378,11.7341575 27.5286154,11.0104615 C28.8578528,10.2867656 30.2166084,9.92492308 31.6049231,9.92492308 C35.5040195,9.92492308 37.4535385,11.8153657 37.4535385,15.5963077 C37.3944612,16.3052343 37.3058467,17.2504556 37.1876923,18.432 C37.0695379,19.6135444 36.9661543,20.7212256 36.8775385,21.7550769 C36.4935365,25.2110942 36.3015385,27.1901513 36.3015385,27.6923077 C36.3015385,28.2830799 36.4196911,28.6966142 36.656,28.9329231 C36.8923089,29.169232 37.2467669,29.2873846 37.7193846,29.2873846 C37.9556935,29.2873846 38.1993834,29.2430774 38.4504615,29.1544615 C38.7015397,29.0658457 38.8713842,29.0215385 38.96,29.0215385 C39.0781544,29.0215385 39.1593844,29.0510766 39.2036923,29.1101538 Z M52.6806154,1.24061538 L52.3261538,4.51938462 C52.237538,5.34646567 51.4400075,5.76 49.9335385,5.76 L48.9587692,5.76 C48.1907654,5.76 47.6147712,5.64923188 47.2307692,5.42769231 C46.8467673,5.20615274 46.6547692,4.91815562 46.6547692,4.56369231 L47.0092308,1.28492308 C47.0978466,0.457842018 47.9101462,0.0443076923 49.4461538,0.0443076923 L50.4652308,0.0443076923 C51.9421612,0.0443076923 52.6806154,0.443072935 52.6806154,1.24061538 Z M51.5286154,11.3870769 C51.3513837,13.0117004 51.0264639,16.0541315 50.5538462,20.5144615 C50.0812284,24.9747915 49.8449231,27.367383 49.8449231,27.6923077 C49.8449231,28.2830799 49.9630757,28.6966142 50.1993846,28.9329231 C50.4356935,29.169232 50.7901515,29.2873846 51.2627692,29.2873846 C51.4990781,29.2873846 51.742768,29.2430774 51.9938462,29.1544615 C52.2449243,29.0658457 52.4147688,29.0215385 52.5033846,29.0215385 C52.6215391,29.0215385 52.702769,29.0510766 52.7470769,29.1101538 C52.7913848,29.1692311 52.8135385,29.2873837 52.8135385,29.4646154 C52.8135385,30.0849262 52.739693,30.8381494 52.592,31.7243077 C52.4738456,32.3741571 52.0603112,32.8689214 51.3513846,33.2086154 C50.642458,33.5483094 49.9040038,33.7181538 49.136,33.7181538 C45.886753,33.7181538 44.2621538,32.0197093 44.2621538,28.6227692 C44.2621538,28.0024584 44.5058437,25.3883307 44.9932308,20.7803077 C45.4806178,16.1722847 45.8129222,13.041239 45.9901538,11.3870769 C46.0787697,10.5599959 46.9058383,10.1464615 48.4713846,10.1464615 L49.3132308,10.1464615 C50.7901612,10.1464615 51.5286154,10.5599959 51.5286154,11.3870769 Z M66.4898462,1.10769231 C66.1944601,3.82524436 65.6627731,8.86888623 64.8947692,16.2387692 C64.1267654,23.6086522 63.7427692,27.4264602 63.7427692,27.6923077 C63.7427692,28.2830799 63.8683064,28.6966142 64.1193846,28.9329231 C64.3704628,29.169232 64.7323053,29.2873846 65.2049231,29.2873846 C65.441232,29.2873846 65.6849218,29.2430774 65.936,29.1544615 C66.1870782,29.0658457 66.3569226,29.0215385 66.4455385,29.0215385 C66.5636929,29.0215385 66.6449229,29.0510766 66.6892308,29.1101538 C66.7335387,29.1692311 66.7556923,29.2873837 66.7556923,29.4646154 C66.7556923,29.9076945 66.6670778,30.6609178 66.4898462,31.7243077 C66.4012303,32.3741571 65.9950805,32.8689214 65.2713846,33.2086154 C64.5476887,33.5483094 63.80185,33.7181538 63.0338462,33.7181538 C61.4387613,33.7181538 60.235081,33.3046195 59.4227692,32.4775385 C58.6104575,31.6504574 58.2043077,30.3507781 58.2043077,28.5784615 C58.2043077,27.9581507 58.5292275,24.5095698 59.1790769,18.2326154 C59.8289263,11.9556609 60.3901515,6.76432822 60.8627692,2.65846154 L60.9956923,1.19630769 C61.0547695,0.782767163 61.2541521,0.48000096 61.5938462,0.288 C61.9335402,0.09599904 62.4578426,0 63.1667692,0 L64.5846154,0 C65.8547756,0 66.4898462,0.369227077 66.4898462,1.10769231 Z M81.2738462,1.24061538 L80.9193846,4.51938462 C80.8307688,5.34646567 80.0332383,5.76 78.5267692,5.76 L77.552,5.76 C76.7839962,5.76 76.2080019,5.64923188 75.824,5.42769231 C75.4399981,5.20615274 75.248,4.91815562 75.248,4.56369231 L75.6024615,1.28492308 C75.6910774,0.457842018 76.5033769,0.0443076923 78.0393846,0.0443076923 L79.0584615,0.0443076923 C80.535392,0.0443076923 81.2738462,0.443072935 81.2738462,1.24061538 Z M80.1218462,11.3870769 C79.9446145,13.0117004 79.6196947,16.0541315 79.1470769,20.5144615 C78.6744592,24.9747915 78.4381538,27.367383 78.4381538,27.6923077 C78.4381538,28.2830799 78.5563065,28.6966142 78.7926154,28.9329231 C79.0289243,29.169232 79.3833823,29.2873846 79.856,29.2873846 C80.0923089,29.2873846 80.3359987,29.2430774 80.5870769,29.1544615 C80.8381551,29.0658457 81.0079996,29.0215385 81.0966154,29.0215385 C81.2147698,29.0215385 81.2959998,29.0510766 81.3403077,29.1101538 C81.3846156,29.1692311 81.4067692,29.2873837 81.4067692,29.4646154 C81.4067692,30.0849262 81.3329238,30.8381494 81.1852308,31.7243077 C81.0670763,32.3741571 80.653542,32.8689214 79.9446154,33.2086154 C79.2356888,33.5483094 78.4972346,33.7181538 77.7292308,33.7181538 C74.4799838,33.7181538 72.8553846,32.0197093 72.8553846,28.6227692 C72.8553846,28.0024584 73.0990745,25.3883307 73.5864615,20.7803077 C74.0738486,16.1722847 74.406153,13.041239 74.5833846,11.3870769 C74.6720004,10.5599959 75.4990691,10.1464615 77.0646154,10.1464615 L77.9064615,10.1464615 C79.383392,10.1464615 80.1218462,10.5599959 80.1218462,11.3870769 Z M99.3366154,10.5230769 C100.636314,10.9218481 101.286154,11.5347651 101.286154,12.3618462 C101.286154,12.8049253 101.035079,13.4030732 100.532923,14.1563077 C100.030767,14.9095422 99.6024633,15.2861538 99.248,15.2861538 C99.100307,15.2861538 98.8344635,15.2123084 98.4504615,15.0646154 C97.357533,14.5919976 96.3384663,14.3556923 95.3932308,14.3556923 C94.4184567,14.3556923 93.672618,14.5624595 93.1556923,14.976 C92.6387666,15.3895405 92.3803077,15.9507657 92.3803077,16.6596923 C92.3803077,17.2800031 92.6092285,17.7821519 93.0670769,18.1661538 C93.5249254,18.5501558 94.3593786,19.0523046 95.5704615,19.6726154 C97.3132395,20.5587737 98.6276879,21.4744568 99.5138462,22.4196923 C100.400004,23.3649278 100.843077,24.6646071 100.843077,26.3187692 C100.843077,28.5637035 100.030777,30.3581471 98.4061538,31.7021538 C96.7815303,33.0461606 94.6400133,33.7181538 91.9815385,33.7181538 C90.4159922,33.7181538 88.9464684,33.4892331 87.5729231,33.0313846 C86.1993777,32.5735362 85.5126154,31.916312 85.5126154,31.0596923 C85.5126154,29.8486093 85.630768,28.984618 85.8670769,28.4676923 C86.1033858,27.9507666 86.3396911,27.6923077 86.576,27.6923077 C86.6941544,27.6923077 86.9452288,27.8104604 87.3292308,28.0467692 C88.0086188,28.4012325 88.6732275,28.6966142 89.3230769,28.9329231 C89.9729263,29.169232 90.7261496,29.2873846 91.5827692,29.2873846 C92.7052364,29.2873846 93.5839968,29.0510793 94.2190769,28.5784615 C94.854157,28.1058438 95.1716923,27.4855423 95.1716923,26.7175385 C95.1716923,26.1858435 95.0166169,25.7280019 94.7064615,25.344 C94.3963061,24.9599981 94.0344636,24.6498473 93.6209231,24.4135385 C93.2073825,24.1772296 92.5427738,23.8227716 91.6270769,23.3501538 C90.5341484,22.7593817 89.6480034,22.2129256 88.9686154,21.7107692 C88.2892274,21.2086129 87.7353868,20.5735423 87.3070769,19.8055385 C86.8787671,19.0375346 86.6646154,18.0923133 86.6646154,16.9698462 C86.6646154,14.8135277 87.4695304,13.100314 89.0793846,11.8301538 C90.6892388,10.5599936 92.7199877,9.92492308 95.1716923,9.92492308 C96.6486228,9.92492308 98.0369166,10.1243057 99.3366154,10.5230769 Z M115.538462,5.84861538 L115.095385,10.2350769 L118.108308,10.2350769 C118.403694,10.2350769 118.595692,10.3015378 118.684308,10.4344615 C118.772924,10.5673853 118.817231,10.7963061 118.817231,11.1212308 C118.817231,11.8892346 118.617848,12.6793806 118.219077,13.4916923 C117.820306,14.3040041 117.236927,14.7101538 116.468923,14.7101538 L114.608,14.7101538 C114.460307,16.0098527 114.231386,18.0922934 113.921231,20.9575385 C113.611075,23.8227836 113.396924,25.9790697 113.278769,27.4264615 C113.278769,28.6670831 113.825225,29.2873846 114.918154,29.2873846 C115.390772,29.2873846 115.782152,29.2356928 116.092308,29.1323077 C116.402463,29.0289226 116.601846,28.9772308 116.690462,28.9772308 C116.92677,28.9772308 117.044923,29.1396907 117.044923,29.4646154 C117.044923,29.9667717 116.956309,30.719995 116.779077,31.7243077 C116.660922,32.4036957 116.247388,32.9058445 115.538462,33.2307692 C114.829535,33.5556939 114.046774,33.7181538 113.190154,33.7181538 C111.535992,33.7181538 110.214159,33.2898504 109.224615,32.4332308 C108.235072,31.5766111 107.740308,30.1735482 107.740308,28.224 C107.740308,27.7513823 107.932306,25.7058642 108.316308,22.0873846 C108.70031,18.468905 108.966153,16.0098527 109.113846,14.7101538 L107.740308,14.7101538 C107.385844,14.7101538 107.127385,14.5920012 106.964923,14.3556923 C106.802461,14.1193834 106.721231,13.7501564 106.721231,13.248 C106.721231,11.2393746 107.208611,10.2350769 108.183385,10.2350769 L109.556923,10.2350769 L110.044308,5.84861538 C110.132924,5.02153433 110.945223,4.608 112.481231,4.608 L113.323077,4.608 C114.800007,4.608 115.538462,5.02153433 115.538462,5.84861538 Z M145.121231,29.4646154 C145.121231,29.9076945 145.032616,30.6609178 144.855385,31.7243077 C144.73723,32.3741571 144.323696,32.8689214 143.614769,33.2086154 C142.905843,33.5483094 142.167388,33.7181538 141.399385,33.7181538 C138.622755,33.7181538 137.042463,32.4627818 136.658462,29.952 C135.949535,31.1335444 135.041236,32.0639966 133.933538,32.7433846 C132.825841,33.4227726 131.636929,33.7624615 130.366769,33.7624615 C128.299067,33.7624615 126.571084,32.9575465 125.182769,31.3476923 C123.794455,29.7378381 123.100308,27.3378621 123.100308,24.1476923 C123.100308,21.371063 123.528611,18.9046262 124.385231,16.7483077 C125.24185,14.5919892 126.438146,12.9156983 127.974154,11.7193846 C129.510162,10.5230709 131.282451,9.92492308 133.291077,9.92492308 C134.443083,9.92492308 135.484303,10.1686129 136.414769,10.656 C137.345235,11.1433871 138.120612,11.6972277 138.740923,12.3175385 C138.947693,11.6972277 139.117538,11.2541552 139.250462,10.9883077 C139.383385,10.7224602 139.604922,10.5230776 139.915077,10.3901538 C140.225232,10.2572301 140.690458,10.1907692 141.310769,10.1907692 L141.753846,10.1907692 C143.112622,10.1907692 143.792,10.5304581 143.792,11.2098462 L143.481846,14.2670769 C142.566149,22.8332736 142.108308,27.3083058 142.108308,27.6923077 C142.108308,28.3126185 142.22646,28.7335374 142.462769,28.9550769 C142.699078,29.1766165 143.053536,29.2873846 143.526154,29.2873846 C143.762463,29.2873846 144.006153,29.2430774 144.257231,29.1544615 C144.508309,29.0658457 144.678153,29.0215385 144.766769,29.0215385 C145.003078,29.0215385 145.121231,29.1692293 145.121231,29.4646154 Z M137.943385,15.8178462 C136.820917,14.8726107 135.639391,14.4 134.398769,14.4 C132.47876,14.4 131.053543,15.2344532 130.123077,16.9033846 C129.192611,18.572316 128.727385,20.8689085 128.727385,23.7932308 C128.727385,27.3674025 129.894142,29.1544615 132.227692,29.1544615 C133.084312,29.1544615 133.92615,28.792619 134.753231,28.0689231 C135.580312,27.3452272 136.274459,26.2596995 136.835692,24.8123077 L137.278769,20.4258462 L137.500308,18.0332308 C137.559385,17.560613 137.707076,16.8221589 137.943385,15.8178462 Z M171.048615,29.1101538 C171.092923,29.1692311 171.115077,29.2873837 171.115077,29.4646154 C171.115077,30.0849262 171.026462,30.8381494 170.849231,31.7243077 C170.760615,32.3741571 170.36185,32.8689214 169.652923,33.2086154 C168.943996,33.5483094 168.205542,33.7181538 167.437538,33.7181538 C164.572293,33.7181538 162.977232,32.4184745 162.652308,29.8190769 C161.736611,31.0006213 160.62893,31.9458426 159.329231,32.6547692 C158.029532,33.3636959 156.700314,33.7181538 155.341538,33.7181538 C153.332913,33.7181538 151.856005,33.2381586 150.910769,32.2781538 C149.965534,31.318149 149.492923,29.9077016 149.492923,28.0467692 C149.492923,27.5446129 149.721844,25.0486378 150.179692,20.5587692 C150.637541,16.0689006 150.955076,13.0117004 151.132308,11.3870769 C151.220924,10.5599959 152.033223,10.1464615 153.569231,10.1464615 L154.455385,10.1464615 C155.19385,10.1464615 155.74769,10.2572297 156.116923,10.4787692 C156.486156,10.7003088 156.670769,11.003075 156.670769,11.3870769 C156.493538,12.893546 156.190771,15.7292099 155.762462,19.8941538 C155.334152,24.0590977 155.12,26.2596911 155.12,26.496 C155.12,28.2387779 156.035683,29.1101538 157.867077,29.1101538 C158.812312,29.1101538 159.742765,28.7483113 160.658462,28.0246154 C161.574158,27.3009195 162.312613,26.24493 162.873846,24.8566154 C163.139694,22.0209089 163.420306,19.2960131 163.715692,16.6818462 C164.011078,14.0676792 164.203076,12.3027738 164.291692,11.3870769 C164.380308,10.5599959 165.192608,10.1464615 166.728615,10.1464615 L167.570462,10.1464615 C169.047392,10.1464615 169.785846,10.5599959 169.785846,11.3870769 C169.608614,13.0117004 169.291079,16.0541315 168.833231,20.5144615 C168.375382,24.9747915 168.146462,27.367383 168.146462,27.6923077 C168.146462,28.2830799 168.264614,28.6966142 168.500923,28.9329231 C168.737232,29.169232 169.09169,29.2873846 169.564308,29.2873846 C169.800617,29.2873846 170.044306,29.2430774 170.295385,29.1544615 C170.546463,29.0658457 170.716307,29.0215385 170.804923,29.0215385 C170.923078,29.0215385 171.004307,29.0510766 171.048615,29.1101538 Z M167.880615,1.46215385 C167.880615,1.66892411 167.777232,1.88307582 167.570462,2.10461538 C167.363691,2.32615495 166.787697,2.92430282 165.842462,3.89907692 C165.369844,4.34215606 164.395084,5.30214646 162.918154,6.77907692 C162.268304,7.42892633 161.249238,7.75384615 159.860923,7.75384615 C159.417844,7.75384615 159.107693,7.71692345 158.930462,7.64307692 C158.75323,7.5692304 158.664615,7.44369319 158.664615,7.26646154 C158.664615,7.11876849 158.775384,6.86769408 158.996923,6.51323077 C159.218463,6.15876746 159.535998,5.6861568 159.949538,5.09538462 C160.156309,4.79999852 160.422152,4.40861782 160.747077,3.92123077 C161.072002,3.43384372 161.470767,2.82092677 161.943385,2.08246154 C162.47508,1.3144577 163.656606,0.930461538 165.488,0.930461538 C167.083085,0.930461538 167.880615,1.10769054 167.880615,1.46215385 Z M185.057231,5.84861538 L184.614154,10.2350769 L187.627077,10.2350769 C187.922463,10.2350769 188.114461,10.3015378 188.203077,10.4344615 C188.291693,10.5673853 188.336,10.7963061 188.336,11.1212308 C188.336,11.8892346 188.136617,12.6793806 187.737846,13.4916923 C187.339075,14.3040041 186.755696,14.7101538 185.987692,14.7101538 L184.126769,14.7101538 C183.979076,16.0098527 183.750155,18.0922934 183.44,20.9575385 C183.129845,23.8227836 182.915693,25.9790697 182.797538,27.4264615 C182.797538,28.6670831 183.343995,29.2873846 184.436923,29.2873846 C184.909541,29.2873846 185.300922,29.2356928 185.611077,29.1323077 C185.921232,29.0289226 186.120615,28.9772308 186.209231,28.9772308 C186.44554,28.9772308 186.563692,29.1396907 186.563692,29.4646154 C186.563692,29.9667717 186.475078,30.719995 186.297846,31.7243077 C186.179692,32.4036957 185.766157,32.9058445 185.057231,33.2307692 C184.348304,33.5556939 183.565543,33.7181538 182.708923,33.7181538 C181.054761,33.7181538 179.732928,33.2898504 178.743385,32.4332308 C177.753841,31.5766111 177.259077,30.1735482 177.259077,28.224 C177.259077,27.7513823 177.451075,25.7058642 177.835077,22.0873846 C178.219079,18.468905 178.484922,16.0098527 178.632615,14.7101538 L177.259077,14.7101538 C176.904614,14.7101538 176.646155,14.5920012 176.483692,14.3556923 C176.32123,14.1193834 176.24,13.7501564 176.24,13.248 C176.24,11.2393746 176.72738,10.2350769 177.702154,10.2350769 L179.075692,10.2350769 L179.563077,5.84861538 C179.651693,5.02153433 180.463992,4.608 182,4.608 L182.841846,4.608 C184.318777,4.608 185.057231,5.02153433 185.057231,5.84861538 Z M201.524923,1.24061538 L201.170462,4.51938462 C201.081846,5.34646567 200.284315,5.76 198.777846,5.76 L197.803077,5.76 C197.035073,5.76 196.459079,5.64923188 196.075077,5.42769231 C195.691075,5.20615274 195.499077,4.91815562 195.499077,4.56369231 L195.853538,1.28492308 C195.942154,0.457842018 196.754454,0.0443076923 198.290462,0.0443076923 L199.309538,0.0443076923 C200.786469,0.0443076923 201.524923,0.443072935 201.524923,1.24061538 Z M200.372923,11.3870769 C200.195691,13.0117004 199.870772,16.0541315 199.398154,20.5144615 C198.925536,24.9747915 198.689231,27.367383 198.689231,27.6923077 C198.689231,28.2830799 198.807383,28.6966142 199.043692,28.9329231 C199.280001,29.169232 199.634459,29.2873846 200.107077,29.2873846 C200.343386,29.2873846 200.587076,29.2430774 200.838154,29.1544615 C201.089232,29.0658457 201.259076,29.0215385 201.347692,29.0215385 C201.465847,29.0215385 201.547077,29.0510766 201.591385,29.1101538 C201.635693,29.1692311 201.657846,29.2873837 201.657846,29.4646154 C201.657846,30.0849262 201.584001,30.8381494 201.436308,31.7243077 C201.318153,32.3741571 200.904619,32.8689214 200.195692,33.2086154 C199.486766,33.5483094 198.748312,33.7181538 197.980308,33.7181538 C194.731061,33.7181538 193.106462,32.0197093 193.106462,28.6227692 C193.106462,28.0024584 193.350151,25.3883307 193.837538,20.7803077 C194.324926,16.1722847 194.65723,13.041239 194.834462,11.3870769 C194.923077,10.5599959 195.750146,10.1464615 197.315692,10.1464615 L198.157538,10.1464615 C199.634469,10.1464615 200.372923,10.5599959 200.372923,11.3870769 Z M215.334154,1.10769231 C215.038768,3.82524436 214.507081,8.86888623 213.739077,16.2387692 C212.971073,23.6086522 212.587077,27.4264602 212.587077,27.6923077 C212.587077,28.2830799 212.712614,28.6966142 212.963692,28.9329231 C213.21477,29.169232 213.576613,29.2873846 214.049231,29.2873846 C214.28554,29.2873846 214.52923,29.2430774 214.780308,29.1544615 C215.031386,29.0658457 215.20123,29.0215385 215.289846,29.0215385 C215.408001,29.0215385 215.489231,29.0510766 215.533538,29.1101538 C215.577846,29.1692311 215.6,29.2873837 215.6,29.4646154 C215.6,29.9076945 215.511386,30.6609178 215.334154,31.7243077 C215.245538,32.3741571 214.839388,32.8689214 214.115692,33.2086154 C213.391996,33.5483094 212.646158,33.7181538 211.878154,33.7181538 C210.283069,33.7181538 209.079389,33.3046195 208.267077,32.4775385 C207.454765,31.6504574 207.048615,30.3507781 207.048615,28.5784615 C207.048615,27.9581507 207.373535,24.5095698 208.023385,18.2326154 C208.673234,11.9556609 209.234459,6.76432822 209.707077,2.65846154 L209.84,1.19630769 C209.899077,0.782767163 210.09846,0.48000096 210.438154,0.288 C210.777848,0.09599904 211.30215,0 212.011077,0 L213.428923,0 C214.699083,0 215.334154,0.369227077 215.334154,1.10769231 Z" id="logo"></path>
                <polygon id="border" points="0 39.84 220 39.84 220 37.84 0 37.84"></polygon>
            </g>
        </g>
    </g>
</svg>