<svg width="28" height="30" viewBox="0 0 28 30" xmlns="http://www.w3.org/2000/svg"><title>calculator</title><g fill="none" fill-rule="evenodd"><path fill="#E6E6E6" d="M.609.598h26.79v28.805H.609z"/><path fill="#BAE1F2" d="M3.66 4.002h20.597v5.433H3.66z"/><path fill="#ADB1B9" d="M3.635 12.381h5.433v5.433H3.635zm8.281 0h5.433v5.433h-5.433zM3.635 20.63h5.433v5.433H3.635zm8.281 0h5.433v5.433h-5.433z"/><path fill="#F95265" d="M20.23 17.619h4.19v8.445h-4.19z"/><path fill="#ADB1B9" d="M20.23 12.316h4.19v2.422h-4.19z"/><path d="M27.4 30H.608a.598.598 0 0 1-.598-.598V.598A.6.6 0 0 1 .61 0H27.4c.33 0 .598.268.598.598v28.804c0 .33-.268.598-.598.598zM1.205 28.805H26.8V1.195H1.206v27.61z" fill="#202B39"/><path d="M24.257 10.033H3.66a.598.598 0 0 1-.598-.598V4.002c0-.33.268-.598.598-.598h20.597c.33 0 .597.268.597.598v5.433c0 .33-.267.598-.597.598zm-20-1.195H23.66V4.599H4.257v4.239zm4.812 9.575H3.635a.598.598 0 0 1-.597-.598v-5.434c0-.33.267-.597.597-.597H9.07c.33 0 .597.267.597.597v5.434c0 .33-.267.598-.597.598zm-4.836-1.196H8.47V12.98H4.233v4.238zm13.117 1.196h-5.433a.598.598 0 0 1-.598-.598v-5.434c0-.33.267-.597.598-.597h5.433c.33 0 .598.267.598.597v5.434c0 .33-.268.598-.598.598zm-4.836-1.196h4.239V12.98h-4.239v4.238zm-3.445 9.444H3.635a.598.598 0 0 1-.597-.597V20.63c0-.33.267-.598.597-.598H9.07c.33 0 .597.268.597.598v5.434c0 .33-.267.597-.597.597zm-4.836-1.195H8.47v-4.238H4.233v4.238zm13.117 1.195h-5.433a.598.598 0 0 1-.598-.597V20.63c0-.33.267-.598.598-.598h5.433c.33 0 .598.268.598.598v5.434c0 .33-.268.597-.598.597zm-4.836-1.195h4.239v-4.238h-4.239v4.238zm11.906 1.195h-4.19a.598.598 0 0 1-.597-.597v-8.445c0-.33.268-.598.598-.598h4.19c.33 0 .597.268.597.598v8.445c0 .33-.268.597-.598.597zm-3.592-1.195h2.995v-7.25h-2.995v7.25zm3.592-10.13h-4.19a.598.598 0 0 1-.597-.598v-2.422c0-.33.268-.598.598-.598h4.19c.33 0 .597.268.597.598v2.422c0 .33-.268.598-.598.598zm-3.592-1.195h2.995v-1.227h-2.995v1.227z" fill="#202B39"/><path d="M17.907 7.414H6.647a.598.598 0 1 1 0-1.195h11.26a.598.598 0 0 1 0 1.195zm2.946 0h-.72a.598.598 0 0 1 0-1.195h.72a.598.598 0 0 1 0 1.195z" fill="#202B39"/></g></svg>