<svg width="32" height="30" viewBox="0 0 32 30" xmlns="http://www.w3.org/2000/svg"><title>clip-1</title><g fill="none" fill-rule="evenodd"><path d="M23.435 13.812L11.686 25.56c-2.515 2.516-6.611 2.578-9.142.077a6.455 6.455 0 0 1-.026-9.145L15.674 3.335c3.52-3.52 9.249-3.59 12.778-.08 3.53 3.51 3.535 9.236.018 12.753L15.625 28.853c-.64.64-1.702.655-2.33.004a1.614 1.614 0 0 1 .022-2.26l12.82-12.82c2.248-2.248 2.318-5.91.091-8.18a5.784 5.784 0 0 0-8.21-.041l-13.18 13.18c-1.247 1.247-1.305 3.278-.082 4.548a3.224 3.224 0 0 0 4.598.044L21.153 11.53a1.614 1.614 0 0 1 2.282 2.282z" fill="#BAE1F2"/><path d="M14.446 29.971h-.022a2.209 2.209 0 0 1-1.584-.676 2.257 2.257 0 0 1 .03-3.145l12.82-12.82c2.015-2.015 2.055-5.286.088-7.291a5.108 5.108 0 0 0-3.649-1.54h-.025a5.107 5.107 0 0 0-3.638 1.504l-13.18 13.18c-1.011 1.011-1.044 2.654-.073 3.662a2.567 2.567 0 0 0 1.84.793 2.564 2.564 0 0 0 1.855-.757l11.799-11.798a2.248 2.248 0 0 1 3.176 0c.424.424.658.988.658 1.588 0 .6-.234 1.164-.658 1.588L12.134 26.007C9.36 28.78 4.86 28.815 2.1 26.087A7.03 7.03 0 0 1 0 21.072a7.03 7.03 0 0 1 2.07-5.027L15.228 2.888c3.781-3.78 9.914-3.817 13.67-.08a9.57 9.57 0 0 1 2.839 6.82 9.57 9.57 0 0 1-2.819 6.827L16.072 29.3a2.312 2.312 0 0 1-1.626.671zm7.656-26.737h.032c1.726.009 3.34.69 4.546 1.92 2.45 2.498 2.407 6.567-.097 9.07l-12.819 12.82a.986.986 0 0 0-.013 1.374c.177.184.42.286.685.289a1.04 1.04 0 0 0 .742-.3L28.023 15.56a8.315 8.315 0 0 0 2.448-5.932 8.315 8.315 0 0 0-2.465-5.925c-3.264-3.245-8.595-3.21-11.884.079L2.965 16.94a5.775 5.775 0 0 0-1.7 4.13 5.775 5.775 0 0 0 5.79 5.778c1.512 0 3.03-.579 4.184-1.734l11.749-11.748a.975.975 0 0 0 .287-.694.982.982 0 0 0-1.676-.694L9.802 23.775a3.823 3.823 0 0 1-2.723 1.127H7.04a3.824 3.824 0 0 1-2.74-1.18c-1.444-1.5-1.404-3.938.091-5.433l13.18-13.18a6.363 6.363 0 0 1 4.531-1.875z" fill="#212B39"/><path d="M22.759 20.053a.632.632 0 0 1-.447-1.08l.252-.252a.632.632 0 1 1 .895.894l-.253.253a.63.63 0 0 1-.447.185zm-8.156 8.156a.632.632 0 0 1-.447-1.08l6.891-6.89a.632.632 0 0 1 .894.894l-6.89 6.89a.63.63 0 0 1-.448.186z" fill="#212B39"/></g></svg>