<svg width="30" height="40" viewBox="0 0 30 40" xmlns="http://www.w3.org/2000/svg"><title>compass</title><g fill="none" fill-rule="evenodd"><path d="M6.414 31.896l8.183-17.537-4.23-1.974-6.21 13.306a4.668 4.668 0 0 0 2.257 6.205zm16.391 0l-8.184-17.537 4.23-1.974 6.21 13.306a4.668 4.668 0 0 1-2.256 6.205z" fill="#BAE1F2"/><ellipse fill="#EF5263" cx="14.609" cy="11.747" rx="4.414" ry="4.414"/><path fill="#EF5263" d="M13.506.797h2.207v6.451h-2.207z"/><ellipse fill="#E6E6E6" cx="14.609" cy="11.747" rx="1.273" ry="1.273"/><path d="M28.36 22.408h-3.951l-4.64-9.942a5.218 5.218 0 0 0-3.26-5.57v-6.1A.797.797 0 0 0 15.714 0h-2.207a.797.797 0 0 0-.797.797v6.099a5.218 5.218 0 0 0-3.26 5.57l-4.64 9.942H.86a.797.797 0 0 0 0 1.594h3.207l-.63 1.352a5.43 5.43 0 0 0-.184 4.18 5.424 5.424 0 0 0 2.127 2.695l-3.097 6.637a.797.797 0 1 0 1.444.674l7.25-15.538h2.358a.797.797 0 0 0 0-1.594H11.72l2.55-5.464a4.76 4.76 0 0 0 .679 0L25.493 39.54a.797.797 0 1 0 1.444-.674l-3.097-6.637a5.424 5.424 0 0 0 2.127-2.696 5.429 5.429 0 0 0-.184-4.179l-.63-1.352h3.207a.797.797 0 0 0 0-1.594zM14.303 1.594h.613V6.45h-.613V1.594zm-4.074 12.97a5.24 5.24 0 0 0 2.45 2.02l-2.717 5.824H6.569l3.66-7.845zM4.88 26.027l.946-2.026h3.393l-3.155 6.76a3.844 3.844 0 0 1-1.314-1.773 3.846 3.846 0 0 1 .13-2.96zm6.113-14.282A3.621 3.621 0 0 1 14.61 8.13a3.621 3.621 0 0 1 3.617 3.617 3.621 3.621 0 0 1-3.617 3.617 3.621 3.621 0 0 1-3.617-3.617zM24.47 28.99a3.844 3.844 0 0 1-1.313 1.774L16.54 16.586a5.239 5.239 0 0 0 2.45-2.022l5.35 11.465a3.84 3.84 0 0 1 .13 2.96z" fill="#202B39"/><path d="M16.044 22.408h-.32a.797.797 0 0 0 0 1.594h.32a.797.797 0 0 0 0-1.594z" fill="#603813"/><path d="M14.61 9.676c-1.142 0-2.07.929-2.07 2.07 0 1.142.928 2.07 2.07 2.07 1.14 0 2.07-.928 2.07-2.07 0-1.141-.93-2.07-2.07-2.07zm0 2.547a.477.477 0 1 1 0-.954.477.477 0 0 1 0 .954z" fill="#202B39"/></g></svg>