<svg width="37" height="35" viewBox="0 0 37 35" xmlns="http://www.w3.org/2000/svg"><title>highlighter</title><g fill="none" fill-rule="evenodd"><path fill="#F95265" d="M8.007 16.655L19.492 28.14 35.409 9.062 27.084.737z"/><path fill="#ADB1B9" d="M9.318 17.967l8.865 8.864-2.689 2.651-8.848-8.848z"/><path d="M3.2 28.778l4.168 4.169.006.005a20.26 20.26 0 0 1 7.578-3.356l.542-.114-8.848-8.848-.105.51a20.048 20.048 0 0 1-3.34 7.634z" fill="#E6E6E6"/><path fill="#F95265" d="M4.827 34.262L.72 32.485l3.093-3.094 2.942 2.943z"/><path d="M35.918 8.553L27.593.23a.72.72 0 0 0-.97-.044L7.546 16.102a.72.72 0 0 0-.048 1.062l.802.802-2.163 2.158c-.1.1-.168.228-.196.365l-.105.51a19.455 19.455 0 0 1-3.22 7.36.72.72 0 0 0 .075.928l.104.104-2.584 2.585a.72.72 0 0 0 .223 1.17l4.107 1.777a.719.719 0 0 0 .795-.152l1.42-1.42.107.108.005.005a.719.719 0 0 0 .925.073c2.198-1.574 4.725-2.693 7.307-3.236l.542-.114a.716.716 0 0 0 .358-.192l2.18-2.15.803.804a.72.72 0 0 0 1.062-.048L35.962 9.524a.72.72 0 0 0-.044-.97zM4.664 33.408l-2.687-1.163 1.836-1.836 1.925 1.925-1.074 1.074zm-.53-4.713a20.953 20.953 0 0 0 2.934-6.62l6.99 6.99a21.086 21.086 0 0 0-6.6 2.953l-3.324-3.323zm11.364-.227l-7.834-7.834 1.654-1.65 7.844 7.843-1.664 1.641zM9.073 16.703L27.04 1.711l7.394 7.395-14.991 17.968-10.37-10.371z" fill="#202B39"/><path d="M20.194 8.96l-8.78 7.326a.72.72 0 1 0 .922 1.105l8.78-7.326a.72.72 0 1 0-.922-1.105zm2.951-2.462l-.965.805a.72.72 0 1 0 .922 1.106l.965-.806a.72.72 0 1 0-.922-1.105z" fill="#202B39"/></g></svg>