<svg width="26" height="30" viewBox="0 0 26 30" xmlns="http://www.w3.org/2000/svg"><title>notebook</title><g fill="none" fill-rule="evenodd"><path fill="#F95265" d="M6.611.598h18.558v28.805H6.611z"/><path fill="#BAE1F2" d="M2.487.598h4.124v28.805H2.487z"/><path fill="#E6E6E6" d="M10.999 5.284h9.782v6.186h-9.782z"/><path d="M25.169 30c.33 0 .597-.268.597-.598V.598A.598.598 0 0 0 25.17 0H2.487a.598.598 0 0 0-.597.598v1.901H.613a.598.598 0 0 0 0 1.196H1.89v4.678H.613a.598.598 0 0 0 0 1.195H1.89v4.678H.613a.598.598 0 0 0 0 1.195H1.89v4.678H.613a.598.598 0 0 0 0 1.196H1.89v4.678H.613a.598.598 0 0 0 0 1.195H1.89v2.214c0 .33.267.598.597.598H25.17zM3.085 27.188h1.277a.598.598 0 0 0 0-1.195H3.085v-4.678h1.277a.598.598 0 0 0 0-1.195H3.085v-4.678h1.277a.598.598 0 0 0 0-1.196H3.085V9.568h1.277a.598.598 0 0 0 0-1.195H3.085V3.695h1.277a.598.598 0 0 0 0-1.196H3.085V1.195h2.928v27.61H3.085v-1.617zm21.486 1.617H7.209V1.195H24.57v27.61z" fill="#202B39"/><path d="M10.999 12.067h9.782c.33 0 .597-.267.597-.597V5.284a.598.598 0 0 0-.597-.598h-9.782a.598.598 0 0 0-.598.598v6.186c0 .33.268.597.598.597zm.597-6.186h8.587v4.991h-8.587v-4.99z" fill="#202B39"/><path d="M18.67 6.873h-.437a.598.598 0 0 0 0 1.195h.437a.598.598 0 0 0 0-1.195zm-2.436 0h-3a.598.598 0 0 0 0 1.195h3a.598.598 0 0 0 0-1.195z" fill="#202B39"/></g></svg>