<svg width="35" height="35" viewBox="0 0 35 35" xmlns="http://www.w3.org/2000/svg"><title>paint-tube</title><g fill="none" fill-rule="evenodd"><path fill="#E6E6E6" d="M29.85 8.978L26.022 5.15l-5.242.483 8.587 8.587z"/><path fill="#ADB1B9" d="M28.113 3.06l3.827 3.827-2.09 2.09-3.828-3.827z"/><path fill="#ADB1B9" d="M28.476.698l5.826 5.827-1.363 1.363-5.826-5.827z"/><path fill="#BAE1F2" d="M29.367 14.22L20.78 5.633l-4.036 3.506 9.117 9.117z"/><path fill="#E6E6E6" d="M.697 23.08L11.92 34.303l1.436-1.654L2.351 21.644z"/><path fill="#BAE1F2" d="M6.727 17.842L2.35 21.644l11.005 11.005 3.802-4.376z"/><path fill="#F95265" d="M25.861 18.256L16.744 9.14 6.727 17.842l10.431 10.431z"/><path d="M29.894 14.677l-.001-.001a.695.695 0 0 0 .169-.392l.46-4.992 1.418-1.418.507.506a.695.695 0 0 0 .986 0l1.363-1.363a.697.697 0 0 0 0-.986L28.969.204a.697.697 0 0 0-.986 0L26.62 1.567a.697.697 0 0 0 0 .986l.506.507-1.418 1.419-4.992.46a.696.696 0 0 0-.392.168h-.001L.24 22.553a.697.697 0 0 0-.036 1.019l11.223 11.223a.698.698 0 0 0 1.02-.036l17.447-20.083zM25.76 5.874l3.365 3.365-.317 3.437-6.485-6.485 3.437-.317zm.064 11.36l-8.06-8.06 2.982-2.589 7.668 7.668-2.59 2.981zm-8.702 10.017l-9.374-9.374 8.962-7.786 8.198 8.198-7.786 8.962zm-5.239 6.03L1.72 23.116l.598-.52 10.087 10.087-.52.598zm1.437-1.653L3.372 21.68l3.322-2.886 9.512 9.513-2.885 3.32zM29.85 7.992L27.007 5.15l1.104-1.104 2.842 2.842-1.104 1.104zM28.098 2.06l.377-.377 4.84 4.84-.376.378-4.841-4.84z" fill="#202B39"/><path d="M16.779 23.81l-.182-.181a.697.697 0 0 0-.986.986l.182.182a.695.695 0 0 0 .986 0 .697.697 0 0 0 0-.986zm-6.316-6.315a.697.697 0 0 0-.986.986l4.725 4.725a.695.695 0 0 0 .986 0 .697.697 0 0 0 0-.986l-4.725-4.725z" fill="#202B39"/></g></svg>