<svg width="35" height="35" viewBox="0 0 35 35" xmlns="http://www.w3.org/2000/svg"><title>paint-brush</title><g fill="none" fill-rule="evenodd"><path d="M6.279 25.153c-1.128.344-2.296.91-3.224 1.838C.392 29.653.71 34.29.71 34.29s4.637.318 7.3-2.345c.928-.928 1.494-2.096 1.837-3.224l-3.568-3.568z" fill="#BAE1F2"/><path fill="#E6E6E6" d="M11.366 17.986l-5.088 7.166v.001l3.569 3.568v.001l7.167-5.088z"/><path fill="#ADB1B9" d="M17.014 23.634l-5.648-5.647 1.972-1.972 5.647 5.648z"/><path fill="#F95265" d="M34.303 3.521L31.479.697 13.337 16.015l5.648 5.648z"/><path d="M34.796 3.028L31.972.204a.697.697 0 0 0-.943-.04L12.888 15.483l-.02.018-.023.022-1.972 1.971-.002.004a.7.7 0 0 0-.073.086L5.843 24.56c-1.329.437-2.432 1.088-3.281 1.937C-.293 29.352 0 34.135.015 34.337c.024.348.3.624.648.648.037.003.231.015.542.015 1.365 0 4.972-.236 7.298-2.562.849-.849 1.5-1.952 1.937-3.281l6.977-4.955a.685.685 0 0 0 .086-.072l.004-.003 1.971-1.972c.008-.007.015-.016.022-.024l.018-.019L34.835 3.971a.697.697 0 0 0-.04-.943zm-17.782 19.62l-4.662-4.662.985-.985L18 21.662l-.985.986zm-7.09 5.165l-2.737-2.737 4.27-6.013 4.48 4.48-6.013 4.27zm-2.407 3.64c-1.845 1.844-4.819 2.12-6.118 2.148.028-1.3.304-4.273 2.149-6.118.653-.653 1.507-1.168 2.54-1.534l1.385 1.384a6.275 6.275 0 0 1-.731 1.803.697.697 0 1 0 1.188.73 7.41 7.41 0 0 0 .664-1.412l.457.457c-.366 1.034-.88 1.888-1.534 2.541zm11.425-10.82l-4.575-4.575L31.439 1.643l1.918 1.918-14.415 17.072z" fill="#202B39"/><path d="M22.196 10.619l-5.835 4.927a.697.697 0 0 0 .9 1.065l5.835-4.927a.697.697 0 0 0-.9-1.065zm2.023-1.708l-.463.39a.697.697 0 0 0 .9 1.066l.462-.39a.697.697 0 0 0-.9-1.066zm-20.06 18.93c-1.64 1.497-1.76 3.95-1.765 4.054a.697.697 0 0 0 1.393.058c.001-.02.115-1.99 1.311-3.082a.697.697 0 1 0-.94-1.03z" fill="#202B39"/></g></svg>