<svg width="31" height="30" viewBox="0 0 31 30" xmlns="http://www.w3.org/2000/svg"><title>pencil</title><g fill="none" fill-rule="evenodd"><path fill="#E6E6E6" d="M9.088 26.909l-5.747-5.747-1.259 4.162 2.844 2.844z"/><path fill="#ADB1B9" d="M4.926 28.168l-2.844-2.844-1.234 4.078z"/><path fill="#BAE1F2" d="M19.118 5.386l5.746 5.747L9.09 26.908l-5.747-5.746z"/><path fill="#E6E6E6" d="M26.87 9.126l-2.006 2.006-5.746-5.747 2.006-2.006z"/><path d="M29.039 6.958a2.096 2.096 0 0 0 0-2.964l-2.783-2.783a2.096 2.096 0 0 0-2.964 0L21.123 3.38l5.747 5.747 2.169-2.169z" fill="#F95265"/><path d="M2.919 20.74v.001a.596.596 0 0 0-.15.248l-2.493 8.24a.598.598 0 0 0 .745.745l8.24-2.493a.596.596 0 0 0 .25-.15l19.95-19.95a2.676 2.676 0 0 0 .79-1.905c0-.72-.281-1.396-.79-1.904L26.678.789A2.676 2.676 0 0 0 24.774 0c-.72 0-1.396.28-1.905.789L2.92 20.739zM21.123 4.224l4.902 4.902-1.16 1.16-4.902-4.901 1.16-1.16zM9.088 26.063l-4.901-4.901 14.93-14.931 4.902 4.902-14.93 14.93zM3.624 22.29l4.336 4.336-2.864.866-2.338-2.338.866-2.864zm-1.26 4.162l1.434 1.433-2.055.622.622-2.055zM28.617 6.535L26.87 8.281l-4.9-4.901 1.746-1.746a1.486 1.486 0 0 1 1.059-.439c.4 0 .776.156 1.059.439l2.783 2.783c.283.283.439.66.439 1.06s-.156.776-.439 1.058z" fill="#202B39"/><path d="M18.242 15.056a.598.598 0 0 0-.845 0l-.239.239a.598.598 0 0 0 .845.845l.24-.24a.598.598 0 0 0 0-.844zm-2.817 1.972L8.672 23.78a.598.598 0 0 0 .845.845l6.753-6.753a.598.598 0 0 0-.845-.845z" fill="#202B39"/></g></svg>