<svg width="35" height="35" viewBox="0 0 35 35" xmlns="http://www.w3.org/2000/svg"><title>pencil-1</title><g fill="none" fill-rule="evenodd"><path fill="#E6E6E6" d="M26.18 3.155l5.665 5.664 1.241-4.102-2.803-2.803z"/><path fill="#EF5263" d="M30.283 1.914l2.803 2.803 1.217-4.02z"/><path fill="#E6E6E6" d="M8.82 31.845L3.154 26.18l-1.241 4.103 2.803 2.803z"/><path fill="#BAE1F2" d="M4.717 33.086l-2.803-2.803-1.217 4.02zm9.951-18.417l5.664 5.663L8.82 31.845 3.156 26.18z"/><path fill="#EF5263" d="M31.844 8.82L20.33 20.332l-5.664-5.664L26.18 3.156z"/><path d="M.03 34.1a.697.697 0 0 0 .87.87l8.121-2.458a.696.696 0 0 0 .291-.174L32.338 9.312a.694.694 0 0 0 .174-.29V9.02l.002-.005L34.97.899a.697.697 0 0 0-.87-.87l-8.116 2.457-.004.001h-.001a.694.694 0 0 0-.291.175L2.662 25.687v.001a.696.696 0 0 0-.174.29L.03 34.102zM32.756 3.402l-1.157-1.157 1.66-.502-.503 1.66zM20.332 19.346l-4.678-4.678L26.181 4.14l4.678 4.678-10.527 10.527zM31.515 7.503l-4.018-4.018 2.588-.783 2.213 2.213-.783 2.588zM2.244 31.6l1.157 1.157-1.66.502.503-1.66zm2.671.699l-2.213-2.213.783-2.588 4.018 4.018-2.588.783zm-.774-6.118l10.527-10.526 4.678 4.678L8.819 30.859 4.141 26.18z" fill="#202B39"/><path d="M11.743 25.802a.695.695 0 0 0 .986 0l4.915-4.916a.697.697 0 0 0-.986-.986l-4.915 4.916a.697.697 0 0 0 0 .986zm-1.516.53l-.384.384a.697.697 0 0 0 .986.986l.384-.384a.697.697 0 0 0-.986-.986z" fill="#202B39"/></g></svg>