<svg width="36" height="25" viewBox="0 0 36 25" xmlns="http://www.w3.org/2000/svg"><title>protractor</title><g fill="none" fill-rule="evenodd"><path d="M17.778.722C8.35.722.708 8.364.708 17.792v6.486h34.14v-6.487c0-9.427-7.643-17.07-17.07-17.07zm2.726 17.15a2.727 2.727 0 1 0-5.453 0H7.078c0-5.91 4.79-10.7 10.7-10.7 5.909 0 10.7 4.79 10.7 10.7h-7.974z" fill="#BAE1F2"/><path d="M29.186 17.872c0-6.29-5.118-11.408-11.408-11.408-6.29 0-11.408 5.118-11.408 11.408 0 .391.317.708.708.708h7.973a.708.708 0 0 0 .709-.708 2.02 2.02 0 0 1 2.018-2.018 2.02 2.02 0 0 1 2.018 2.018c0 .391.317.708.708.708h7.973a.708.708 0 0 0 .709-.708zm-8.047-.708a3.44 3.44 0 0 0-3.361-2.727 3.44 3.44 0 0 0-3.362 2.727H7.811c.365-5.18 4.696-9.283 9.967-9.283 5.27 0 9.602 4.103 9.966 9.283H21.14z" fill="#202B39"/><path d="M30.349 5.22A17.66 17.66 0 0 0 17.778.013c-4.749 0-9.213 1.85-12.571 5.207A17.661 17.661 0 0 0 0 17.791v6.487c0 .391.317.709.708.709h34.14a.708.708 0 0 0 .708-.709v-6.487a17.66 17.66 0 0 0-5.207-12.57zM1.417 23.57v-1.12h24.986a.708.708 0 0 0 0-1.417H1.417v-2.497h1.357a.708.708 0 0 0 0-1.417H1.431a16.3 16.3 0 0 1 .96-4.892l1.226.508a.706.706 0 0 0 .926-.384.708.708 0 0 0-.384-.925l-1.226-.508a16.42 16.42 0 0 1 2.76-4.144l.923.924a.706.706 0 0 0 1.002 0 .708.708 0 0 0 0-1.002l-.926-.926a16.423 16.423 0 0 1 4.124-2.782l.499 1.204a.708.708 0 1 0 1.308-.542l-.502-1.212a16.255 16.255 0 0 1 4.876-.989v1.302a.708.708 0 0 0 1.416 0V1.444c1.708.065 3.349.393 4.884.945l-.499 1.206a.708.708 0 0 0 1.309.542l.501-1.211a16.419 16.419 0 0 1 4.149 2.745l-.922.923a.708.708 0 0 0 1.001 1.001l.928-.927a16.424 16.424 0 0 1 2.797 4.118l-1.22.506a.708.708 0 1 0 .542 1.309l1.23-.51a16.26 16.26 0 0 1 1.005 4.883h-1.337a.708.708 0 0 0 0 1.417h1.358v5.179H1.417z" fill="#202B39"/><path d="M29.52 21.033h-.58a.708.708 0 0 0 0 1.417h.58a.708.708 0 0 0 0-1.417z" fill="#202B39"/></g></svg>