<svg width="23" height="35" viewBox="0 0 23 35" xmlns="http://www.w3.org/2000/svg"><title>push-pin</title><g fill="none" fill-rule="evenodd"><path d="M15.835 11.719l.004.046H6.856l.005-.046a10.588 10.588 0 0 0-6.1 9.59h21.174c0-4.242-2.497-7.901-6.1-9.59z" fill="#EF5263"/><path fill="#EF5263" d="M15.835 11.719l-.798-8.455H7.658l-.797 8.455-.005.046h8.983z"/><path fill="#EF5263" d="M21.052.697H1.643l1.733 2.567h15.943z"/><path fill="#BAE1F2" d="M12.711 34.303l-2.727-2.968V21.31h2.727z"/><path d="M20.821 15.177a11.309 11.309 0 0 0-4.329-3.912l-.689-7.304h3.516a.697.697 0 0 0 .578-.307l1.733-2.567A.697.697 0 0 0 21.052 0H1.643a.697.697 0 0 0-.578 1.087l1.733 2.567c.13.192.346.307.578.307h3.516l-.689 7.304a11.309 11.309 0 0 0-4.329 3.912 11.241 11.241 0 0 0-1.81 6.133c0 .385.312.697.697.697h8.526v9.328a.7.7 0 0 0 .184.472l2.727 2.968a.697.697 0 0 0 1.21-.472V22.007h8.527a.697.697 0 0 0 .697-.697 11.24 11.24 0 0 0-1.811-6.133zM3.747 2.567l-.792-1.173H19.74l-.791 1.173H3.747zM14.403 3.96l.67 7.107h-7.45l.67-7.107h6.11zm-2.389 28.553l-1.333-1.45v-9.057h1.333v10.507zM1.483 20.612a9.942 9.942 0 0 1 5.441-8.15h8.847a9.941 9.941 0 0 1 5.442 8.15H1.483z" fill="#202B39"/><path d="M13.433 18.206H3.648a.697.697 0 0 0 0 1.395h9.785a.697.697 0 1 0 0-1.395zm2.967 0h-.32a.697.697 0 0 0 0 1.395h.32a.697.697 0 0 0 0-1.395z" fill="#202B39"/></g></svg>