<svg width="35" height="35" viewBox="0 0 35 35" xmlns="http://www.w3.org/2000/svg"><title>ruler</title><g fill="none" fill-rule="evenodd"><path fill="#BAE1F2" d="M34.302 7.265L7.266 34.302.698 27.735 27.735.698z"/><path d="M34.796 6.772L28.228.204a.697.697 0 0 0-.986 0L.204 27.242a.697.697 0 0 0 0 .986l6.568 6.568a.695.695 0 0 0 .986 0L34.796 7.758a.697.697 0 0 0 0-.986zM7.265 33.317l-5.582-5.582 2.87-2.87 1.04 1.041a.695.695 0 0 0 .987 0 .697.697 0 0 0 0-.986l-1.041-1.04 2.87-2.87 1.951 1.952a.695.695 0 0 0 .986 0 .697.697 0 0 0 0-.987l-1.952-1.951 2.87-2.87 1.041 1.04a.695.695 0 0 0 .986 0 .697.697 0 0 0 0-.985l-1.04-1.041 2.869-2.87 2.575 2.575a.695.695 0 0 0 .986 0 .697.697 0 0 0 0-.986l-2.575-2.575 2.87-2.87 1.04 1.041a.695.695 0 0 0 .987 0 .697.697 0 0 0 0-.986l-1.041-1.04 2.87-2.87 2.574 2.575a.695.695 0 0 0 .986 0 .697.697 0 0 0 0-.986L24.817 4.6l2.918-2.918 5.582 5.582L7.265 33.317z" fill="#202B39"/><path d="M12.88 23.51a.697.697 0 0 0-.985.986l.24.24a.695.695 0 0 0 .985 0 .697.697 0 0 0 0-.987l-.24-.24z" fill="#202B39"/></g></svg>