<svg width="33" height="35" viewBox="0 0 33 35" xmlns="http://www.w3.org/2000/svg"><title>scissors</title><g fill="none" fill-rule="evenodd"><path d="M21.381 20.44l-4.424 2.747L7.441 7.868A5.208 5.208 0 0 1 9.117.696l12.264 19.743z" fill="#BAE1F2"/><path d="M21.368 20.448l-4.41 2.74 5.34 8.597a5.193 5.193 0 1 0 8.822-5.48l-2.601-4.187a5.193 5.193 0 0 0-7.15-1.67zm7.22 7.026a2.425 2.425 0 1 1-4.12 2.56l-2.24-3.605a2.425 2.425 0 1 1 4.12-2.56l2.24 3.605z" fill="#E8655A"/><path d="M11.23 20.44l4.425 2.747L25.17 7.868A5.208 5.208 0 0 0 23.495.696L11.231 20.439z" fill="#BAE1F2"/><path d="M4.093 22.118l-2.6 4.187a5.192 5.192 0 1 0 8.822 5.48l5.34-8.598-4.411-2.74a5.193 5.193 0 0 0-7.15 1.671zm2.17 1.751a2.425 2.425 0 1 1 4.12 2.56l-2.239 3.605a2.425 2.425 0 1 1-4.12-2.56l2.24-3.605z" fill="#E8655A"/><path d="M13.74 10.945l-.253-.407a.696.696 0 1 0-1.182.734l.253.407a.695.695 0 1 0 1.183-.734z" fill="#202B39"/><path d="M31.71 25.938l-2.6-4.187a5.896 5.896 0 0 0-7.481-2.232l-1.438-2.315 5.571-8.969a5.91 5.91 0 0 0-1.9-8.13.696.696 0 0 0-.958.224L16.306 10.95 9.708.33A.696.696 0 0 0 8.75.105a5.91 5.91 0 0 0-1.9 8.13l5.571 8.969-1.438 2.315a5.896 5.896 0 0 0-7.48 2.232L.901 25.938a5.895 5.895 0 0 0 1.894 8.109 5.89 5.89 0 0 0 8.11-1.895l5.34-8.597.06-.097.06.097 5.34 8.597a5.89 5.89 0 0 0 8.11 1.895 5.895 5.895 0 0 0 1.895-8.11zm-11.287-5.723l-2.628 1.633-.614.381-.056-.09 2.247-3.616 1.051 1.692zM8.033 7.501a4.505 4.505 0 0 1-.442-3.819l3.455 5.563a.695.695 0 1 0 1.183-.734l-3.87-6.23a4.4 4.4 0 0 1 .562-.581l6.566 10.569-2.247 3.616-5.208-8.384zM23.69 1.7c.207.178.395.373.563.58l-2.608 4.198a.696.696 0 1 0 1.182.735l2.193-3.53a4.505 4.505 0 0 1-.44 3.817l-9.15 14.728-3.241-2.014L23.691 1.7zM9.723 31.418a4.498 4.498 0 0 1-7.64-4.746l2.601-4.186a4.502 4.502 0 0 1 6.193-1.447l3.82 2.372-4.974 8.007zm19.359 1.447a4.502 4.502 0 0 1-6.193-1.447l-4.973-8.007 3.82-2.372a4.502 4.502 0 0 1 6.192 1.447l2.6 4.186a4.502 4.502 0 0 1-1.446 6.193z" fill="#202B39"/><path d="M26.94 23.502a3.101 3.101 0 0 0-1.941-1.392 3.1 3.1 0 0 0-2.357.388 3.125 3.125 0 0 0-1.005 4.298l2.24 3.605a3.122 3.122 0 0 0 5.302-3.294l-2.239-3.605zm.5 6.721a1.732 1.732 0 0 1-2.381-.556l-2.24-3.606a1.731 1.731 0 0 1 1.863-2.596c.45.105.832.379 1.076.771l2.24 3.605c.502.81.253 1.879-.557 2.382zM9.97 22.498a3.1 3.1 0 0 0-2.357-.388 3.1 3.1 0 0 0-1.94 1.392l-2.24 3.605a3.125 3.125 0 0 0 1.004 4.299 3.122 3.122 0 0 0 4.298-1.004l2.24-3.606a3.125 3.125 0 0 0-1.005-4.298zm-.177 3.564l-2.24 3.605a1.732 1.732 0 0 1-2.382.556 1.731 1.731 0 0 1-.556-2.381l2.24-3.606a1.718 1.718 0 0 1 1.472-.817 1.731 1.731 0 0 1 1.466 2.643zm6.601-7.859a.696.696 0 0 0 .696-.696v-.622a.696.696 0 0 0-1.392 0v.622c0 .384.312.696.696.696z" fill="#202B39"/></g></svg>