<svg width="21" height="30" viewBox="0 0 21 30" xmlns="http://www.w3.org/2000/svg"><title>sharpener</title><g fill="none" fill-rule="evenodd"><path fill="#EF5263" d="M.614.598h18.929v28.805H.614z"/><path d="M3.634.598v16.245a6.436 6.436 0 0 0 2.774 5.297V.598H3.634z" fill="#EFF7FE"/><path d="M6.408.598V22.14a6.444 6.444 0 0 0 10.115-5.297V.598H6.407z" fill="#BAE1F2"/><ellipse fill="#ADB1B9" cx="10.337" cy="11.704" rx="1.538" ry="1.538"/><path d="M.614 0a.598.598 0 0 0-.598.598v28.804c0 .33.268.598.598.598h18.929c.33 0 .597-.268.597-.598V.598A.598.598 0 0 0 19.543 0H.613zm6.391 1.195h8.92v15.648a5.853 5.853 0 0 1-5.847 5.847 5.81 5.81 0 0 1-3.073-.872V1.195zm-1.195 0v19.643a5.85 5.85 0 0 1-1.578-3.995V1.195H5.81zm13.135 27.61H1.21v-.956h10.301a.598.598 0 0 0 0-1.196h-10.3V1.195h1.824v15.648a7.05 7.05 0 0 0 3.03 5.788 7 7 0 0 0 4.012 1.254 7.05 7.05 0 0 0 7.042-7.042V1.195h1.825v27.61z" fill="#202B39"/><path d="M12.473 11.703a2.138 2.138 0 0 0-2.136-2.135 2.138 2.138 0 0 0-2.135 2.135c0 1.178.958 2.136 2.135 2.136a2.138 2.138 0 0 0 2.136-2.136zm-3.076 0a.941.941 0 0 1 1.88 0 .941.941 0 0 1-1.88 0zm4.446 14.95h-.299a.598.598 0 0 0 0 1.196h.3a.598.598 0 0 0 0-1.196z" fill="#202B39"/></g></svg>