<svg width="30" height="30" viewBox="0 0 30 30" xmlns="http://www.w3.org/2000/svg"><title>stapler-remover</title><g fill="none" fill-rule="evenodd"><path fill="#F95265" d="M25.484 29.402L.746 19.587l1.016-2.56 24.737 9.816z"/><path d="M28.575 21.61l-3.315.726-11.83-4.693-2.566-3.652-3.952-1.568a3.09 3.09 0 0 0-2.28 5.744L26.5 26.843l2.076-5.232z" fill="#BAE1F2"/><path fill="#F95265" d="M26.128 3.125L1.697 13.677.605 11.15 25.037.597z"/><path d="M28.361 8.293l-3.336-.626-11.683 5.046-2.456 3.727-3.904 1.686a3.09 3.09 0 0 1-2.45-5.673L26.13 3.125l2.232 5.168z" fill="#BAE1F2"/><ellipse fill="#E6E6E6" cx="5.755" cy="15.256" rx=".902" ry=".902"/><path d="M29.13 21.831a.598.598 0 0 0-.682-.804l-3.137.686-11.494-4.56-1.386-1.972 1.312-1.99 11.352-4.903 3.156.592a.598.598 0 0 0 .659-.824L25.586.36a.597.597 0 0 0-.785-.312L.367 10.601a.597.597 0 0 0-.312.786l1.092 2.527a.598.598 0 0 0 .786.312l.344-.148a3.673 3.673 0 0 0 .036 2.526l-.332-.132a.597.597 0 0 0-.776.335L.19 19.367a.598.598 0 0 0 .335.775l24.739 9.816a.596.596 0 0 0 .776-.336l3.09-7.79zM2.008 12.892l-.617-1.43L24.726 1.383l.618 1.43-23.337 10.08zm23.81-8.981l1.55 3.587-2.232-.418a.597.597 0 0 0-.347.039l-11.683 5.046a.597.597 0 0 0-.262.22l-2.358 3.577-3.74 1.615a2.495 2.495 0 0 1-3.276-1.3 2.495 2.495 0 0 1 1.299-3.275l21.05-9.091zm-.093 23.267l-.575 1.448-23.628-9.374.575-1.449 23.628 9.375zM7.369 18.61l3.754-1.622a.597.597 0 0 0 .262-.22l.34-.514 1.217 1.732c.067.096.16.169.268.212l11.83 4.693a.6.6 0 0 0 .348.029l2.218-.485-1.442 3.632L7.37 18.61z" fill="#202B39"/><path d="M24.849 6.096c.079 0 .16-.016.236-.05l.415-.179a.598.598 0 0 0-.473-1.097l-.416.18a.598.598 0 0 0 .238 1.146zM16.98 9.494c.08 0 .16-.016.237-.05l6.036-2.606a.598.598 0 0 0-.474-1.097l-6.036 2.607a.598.598 0 0 0 .238 1.146zM5.202 16.649a1.502 1.502 0 0 0 1.947-.84 1.501 1.501 0 0 0-.841-1.947 1.501 1.501 0 0 0-1.93 1.988c.16.367.452.651.824.799zm.27-1.506a.305.305 0 1 1 .567.226.305.305 0 0 1-.567-.226z" fill="#202B39"/></g></svg>